<?xml version="1.0" encoding="utf-8"?>
<!-- Generator: Adobe Illustrator 19.2.0, SVG Export Plug-In . SVG Version: 6.00 Build 0)  -->
<svg version="1.1" id="Layer_1" xmlns="http://www.w3.org/2000/svg" xmlns:xlink="http://www.w3.org/1999/xlink" x="0px" y="0px"
	 viewBox="0 0 375 75" style="enable-background:new 0 0 375 75;" xml:space="preserve">
<style type="text/css">
	.st0{fill:none;}
	.st1{fill:#00598E;}
</style>
<g>
	<g>
		<rect x="10.1" y="-2" class="st0" width="400" height="200"/>
		<path class="st1" d="M12.6,48.3c0-0.2,0-0.7,0.1-1.4c0.1-0.7,0.1-1.1,0.2-1.4c0.1,0,0.2,0.1,0.4,0.1s0.3,0,0.4-0.1l0.2-0.5
			c0.1-0.1,0.3-0.3,0.5-0.5c0.2-0.2,0.5-0.5,0.8-0.8s0.5-0.5,0.7-0.8c0.2-0.2,0.4-0.4,0.5-0.5c0,0,0,0.1,0.1,0.2
			c0.1,0.1,0.1,0.1,0.1,0.2c0,0,0,0.2,0.1,0.4c0.1,0.2,0.2,0.3,0.2,0.3c0,0,0,0.1,0.1,0.1h0.1c0.1,0,0.2,0,0.2,0c0,0,0.1,0,0.1,0
			c0,0,0.1,0,0.2-0.1c0.1-0.1,0.2-0.1,0.3-0.1l0.5-0.5c0,0,0.1,0,0.2,0.1s0.1,0.1,0.2,0.2c0,0,0.1,0.1,0.1,0.1h0.2h0.2
			c0,0,0.1,0,0.2-0.1c0,0,0.2,0,0.5-0.1l0.4-0.1h0.3h0.2c0,0,0.2,0.1,0.4,0.2c0.2,0.2,0.4,0.3,0.4,0.3h0.4h0.4l0.3-0.3
			c0,0,0.2,0,0.5,0c0.3,0,0.5,0,0.6,0c0.1-0.1,0.2-0.2,0.2-0.3c0.1-0.1,0.1-0.2,0-0.3h3c0,0,0.1-0.1,0.2-0.2s0.1-0.2,0.1-0.3
			l-0.1-0.1l-0.1-0.1c0,0,0-0.2-0.1-0.4c-0.1-0.2-0.1-0.3-0.2-0.4c0-0.1,0-0.3-0.1-0.6c-0.1-0.3-0.1-0.5-0.1-0.6c0,0,0-0.1-0.1-0.3
			c-0.1-0.2-0.1-0.3-0.2-0.5c-0.1-0.2-0.1-0.4-0.2-0.5c0-0.2-0.1-0.3-0.1-0.3s0-0.1,0-0.2c0-0.1,0-0.2,0-0.3v-0.3
			c0-0.1,0-0.2,0.1-0.3c0-0.1,0-0.2,0.1-0.4c0-0.2,0.1-0.3,0.1-0.4c0.1,0,0.2,0,0.3-0.1l0.3-0.1c0-0.1,0-0.2,0-0.4
			C27,35.4,27,35.3,27,35.2h-0.1l-0.3,0.1l-0.3,0.1V33c0-0.1-0.1-0.3-0.2-0.7C26,31.9,26,31.7,26,31.6v-1.3c0,0,0-0.2-0.1-0.4
			c-0.1-0.2-0.1-0.4-0.1-0.4c0-0.1,0.1-0.2,0.3-0.5c0.2-0.2,0.3-0.4,0.3-0.4v-0.4v-0.4l-0.6,0.5l-0.1-0.1c0,0-0.1-0.1-0.1-0.1
			c0,0-0.1-0.2,0-0.4c0-0.2,0-0.4,0-0.5c0-0.1-0.1-0.4-0.2-1c-0.1-0.6-0.1-0.9-0.1-1v-0.1v-0.1c0,0,0-0.2,0.1-0.3
			c0-0.1,0.1-0.2,0.1-0.2c0-0.1,0-0.3,0-0.6c0-0.3,0-0.5,0-0.5c0,0,0.1-0.2,0.2-0.6c0.1-0.3,0.2-0.6,0.3-0.8c0,0,0.1-0.1,0.2-0.3
			c0.1-0.1,0.2-0.2,0.2-0.3c0,0-0.1-0.1-0.3-0.3c-0.1-0.1-0.2-0.2-0.3-0.3v-2.7c0.1,0,0.2,0,0.4,0.1c0.2,0.1,0.3,0.1,0.4,0.1h0.3
			h0.1l1.3-1.3V17v-0.1L28,16.8l-0.1-0.1c0-0.1,0-0.3,0-0.6c0-0.3,0-0.5,0-0.6l-0.3-0.3l-0.1-0.1l-0.1,0.1c-0.1,0-0.2,0.1-0.3,0.3
			c-0.1,0.1-0.2,0.2-0.2,0.3c0,0.1,0,0.2-0.1,0.4c-0.1,0.2-0.1,0.3-0.2,0.4c0-0.1,0-0.2-0.1-0.3c-0.1-0.1-0.1-0.2-0.1-0.2
			c0,0-0.1-0.1-0.2-0.1c-0.1,0-0.1-0.1-0.2-0.2l-0.3-0.1c-0.1,0-0.2-0.1-0.2-0.1h-0.1h-0.1c0,0-0.2,0-0.4,0c-0.2,0-0.4,0.1-0.6,0.1
			c-0.2,0-0.4,0.1-0.6,0.1c-0.2,0-0.3,0-0.4,0c0,0-0.2,0-0.5,0.1c-0.3,0-0.5,0.1-0.6,0.1c-0.1,0-0.2,0-0.4-0.1
			c-0.2,0-0.3-0.1-0.4-0.1l-0.3-0.5l-0.5,0.3v-1.1c0,0.1-0.2,0.2-0.4,0.2c-0.2,0.1-0.4,0.1-0.5,0c0-0.1,0-0.2-0.1-0.3l-0.2-0.3
			c-0.1,0-0.2,0-0.3-0.1c-0.1,0-0.3-0.1-0.5-0.2h-0.1h-0.3c0,0-0.1,0.1-0.2,0.2c-0.1,0.1-0.2,0.1-0.3,0.1c0,0,0-0.1-0.1-0.3
			c-0.1-0.1-0.1-0.2-0.2-0.2c0,0-0.1-0.1-0.3-0.2c-0.2-0.1-0.2-0.1-0.2-0.2c0,0-0.1,0-0.2-0.1c-0.1-0.1-0.1-0.1-0.1-0.2
			c0,0,0-0.1-0.1-0.2c-0.1-0.1-0.1-0.2-0.1-0.3c-0.1-0.1-0.2-0.2-0.4-0.4c-0.2-0.2-0.3-0.3-0.4-0.4c0-0.1,0.1-0.2,0.2-0.3
			c0.2-0.1,0.3-0.2,0.3-0.3h0.1h0.1c0.1,0.1,0.2,0.2,0.4,0.3c0.2,0.1,0.2,0.2,0.2,0.3v0.5c0.1,0.1,0.3,0.2,0.5,0.4
			c0.3,0.2,0.4,0.2,0.5,0.2c0.1,0,0.2-0.1,0.2-0.3v-0.1v-0.2c0-0.1-0.1-0.3-0.3-0.7c-0.2-0.4-0.4-0.6-0.4-0.7v-0.1v-0.1
			c0-0.1,0-0.2,0.1-0.4c0.1-0.2,0.1-0.3,0.2-0.4c0-0.1,0.1-0.2,0.3-0.3c0,0,0.2-0.1,0.5-0.2c0.3-0.1,0.5-0.1,0.6-0.1
			c0-0.1,0.1-0.2,0.2-0.3l0.3-0.3c0,0,0.1,0.1,0.3,0.2C20.1,9,20.2,9,20.3,8.9l0.5-0.5c0.1-0.1,0.2-0.2,0.4-0.2
			c0.2,0,0.3-0.1,0.4-0.1c0.1,0,0.2,0.1,0.3,0.3c0.1,0.2,0.2,0.2,0.3,0.2h0.4H23c0,0,0.2-0.1,0.4-0.2c0.2-0.1,0.4-0.2,0.5-0.3L24,8
			l0.1-0.1h0.1h0.1c0,0,0.1,0.1,0.2,0.3c0.1,0.2,0.2,0.2,0.2,0.2c0.1,0,0.3-0.1,0.6-0.3C25.8,8,25.9,7.9,26,7.9h0.3h0.2
			c0.1,0,0.2,0.1,0.5,0.2c0.2,0.2,0.4,0.3,0.4,0.3l0.1,0.1c0,0,0.1,0,0.1-0.1c0,0,0.2-0.1,0.4-0.3c0.2-0.1,0.4-0.2,0.4-0.3h0.1h0.1
			C28.8,7.9,29,8,29.2,8c0.2,0.1,0.3,0.1,0.4,0.1c0,0,0.2,0.2,0.4,0.4c0.2,0.2,0.4,0.4,0.4,0.4L30.5,9l0.1-0.1l0.3-0.1
			c0.1,0,0.2-0.1,0.2-0.1c0,0,0.1,0,0.1,0c0,0,0.1,0,0.1,0c0,0,0-0.1,0.1-0.3c0-0.2,0.1-0.3,0.1-0.3L31.3,8c0,0-0.1,0-0.1,0
			c0,0,0,0-0.1,0c0,0-0.1,0-0.1-0.1l-0.3-0.5C30.9,7.1,31,7,31.1,7c0.1,0.1,0.2,0.2,0.5,0.4C31.8,7.6,32,7.8,32,7.9
			c0.1,0.1,0.2,0.2,0.2,0.4c0,0.2,0.1,0.3,0.1,0.4c0.1,0,0.2-0.1,0.3-0.3c0.1-0.1,0.2-0.2,0.2-0.3c0,0,0.1-0.1,0.2-0.3
			c0.1-0.1,0.1-0.2,0.1-0.3h1h1c0.1,0,0.2,0,0.4,0.1c0.2,0.1,0.3,0.2,0.4,0.2c0.1,0.1,0.2,0.2,0.5,0.3c0.2,0.1,0.4,0.2,0.4,0.2v0.1
			v0.1c0,0.1-0.1,0.3-0.2,0.6c-0.1,0.3-0.1,0.5-0.1,0.5c0,0-0.1,0.1-0.3,0.2c-0.2,0.1-0.2,0.2-0.2,0.3v0.3v0.3
			c0.1,0,0.2-0.1,0.4-0.2c0.2-0.1,0.3-0.1,0.4-0.1c0,0,0.1-0.1,0.3-0.1c0.1,0,0.2-0.1,0.2-0.1l0.3,0.5c0,0,0.1-0.1,0.2-0.2
			s0.1-0.1,0.2-0.1v-0.3v-0.3c0,0-0.1-0.1-0.2-0.2c-0.1-0.2-0.1-0.3-0.1-0.3V8.9V8.4c0,0,0.1-0.1,0.3-0.2C37.8,8.1,38,8,38.1,7.9
			h0.2c0.1,0,0.2,0,0.3-0.1c0.1-0.1,0.2-0.1,0.3-0.2c0,0,0-0.1,0.1-0.3c0.1-0.1,0.1-0.2,0.1-0.3c0.2,0,0.3-0.1,0.3-0.3L39.6,7
			c0.1,0.1,0.2,0.3,0.3,0.6c0.1,0.3,0.2,0.5,0.3,0.6c0,0,0.1,0.1,0.1,0.2c0,0.1,0.1,0.1,0.1,0.1c0,0.1,0.1,0.2,0.2,0.4
			c0.1,0.2,0.1,0.3,0.1,0.4v0.7v0.5c0,0-0.1,0.1-0.3,0.2c-0.2,0.1-0.4,0.2-0.5,0.3h-0.1h-0.2c0,0.1-0.1,0.2-0.3,0.3
			c-0.1,0.1-0.2,0.2-0.3,0.3v0.2V12c0,0,0.1,0.3,0.2,0.6c0.1,0.4,0.1,0.6,0.1,0.7v0.6v0.5c0,0.2-0.1,0.3-0.3,0.3l-0.2,0.1h-0.2
			c0,0-0.1,0-0.1-0.1l-0.3-0.3c0,0-0.2-0.1-0.4-0.2c-0.2-0.1-0.4-0.1-0.5-0.1h-1.1c0,0-0.1-0.1-0.3-0.2c-0.1-0.2-0.2-0.2-0.3-0.2
			c0,0-0.2,0.1-0.5,0.2c-0.3,0.1-0.5,0.2-0.6,0.3c0,0.1-0.1,0.2-0.3,0.3c-0.1,0.1-0.2,0.2-0.3,0.3l-0.5-0.6l-0.3,0.3h-1.9
			c-0.1,0-0.2,0.1-0.3,0.4c-0.1,0.3-0.2,0.5-0.3,0.7V16v0.6c0,0,0,0.2,0.1,0.4c0.1,0.2,0.1,0.3,0.1,0.4c0,0.1,0.1,0.2,0.3,0.5
			c0.2,0.2,0.3,0.4,0.4,0.5l0.2,0.2c0.2,0.2,0.3,0.3,0.3,0.3v0.5c0,0.1,0.1,0.3,0.3,0.5c0.1,0.3,0.2,0.4,0.3,0.5v4.2
			c0,0.1-0.1,0.3-0.3,0.5c-0.1,0.2-0.2,0.4-0.3,0.5c0,0.1,0,0.3-0.1,0.6c-0.1,0.3-0.1,0.5-0.2,0.6c0,0.1,0,0.2,0,0.5
			c0,0.2,0,0.5-0.1,0.7c0,0.3,0,0.5-0.1,0.8c0,0.2,0,0.4,0,0.6c0,0-0.1,0-0.2,0.1c-0.1,0.1-0.1,0.1-0.1,0.2l-0.1,0.1l0.1,0.1
			c0,0,0.1-0.1,0.2-0.2c0.2-0.1,0.3-0.1,0.3-0.1c0.2,0,0.3,0.1,0.3,0.3v0.1V30c0,0.1,0,0.3-0.1,0.7c-0.1,0.4-0.1,0.6-0.1,0.7v0.9V33
			c0,0.1,0.2,0.2,0.3,0.4c0.2,0.2,0.3,0.3,0.3,0.4c0,0.1-0.1,0.2-0.2,0.4c-0.2,0.2-0.3,0.2-0.4,0.2v0.1v0.1c0.1,0,0.2,0.1,0.4,0.3
			c0.2,0.1,0.3,0.2,0.4,0.3c0,0,0.1,0.3,0.2,0.7c0.1,0.4,0.1,0.7,0.1,1v0.5v0.4c0,0.1,0,0.3-0.1,0.7c-0.1,0.4-0.1,0.6-0.2,0.7
			l-0.2,0.1h-0.2c0,0-0.1,0-0.1-0.1l-0.5-0.2l-0.1-0.1c0,0-0.1,0-0.1-0.1l-0.1,0.1c-0.1,0.1-0.2,0.2-0.2,0.4
			c-0.1,0.2-0.1,0.3-0.1,0.3c0,0,0.2,0.1,0.3,0.1c0.2,0,0.3,0.1,0.3,0.1c0,0.1,0.1,0.2,0.3,0.4c0.1,0.2,0.2,0.3,0.2,0.4v0.5l1.7,1.7
			c0,0,0.1-0.1,0.3-0.3c0,0,0.1-0.1,0.2-0.4c0.1-0.2,0.1-0.4,0.1-0.4l0.1-0.1c0,0,0.1,0,0.1,0.1c0.1,0,0.2,0,0.3,0.1
			c0.1,0.1,0.2,0.1,0.3,0.2h0.3l0.8,1.1c0,0,0,0.1,0.1,0.1h0.1l0.1-0.1c0,0,0-0.1,0.1-0.1l0.1-0.1l0.3-0.1h0.6c0,0,0.2,0,0.4-0.1
			c0.2-0.1,0.4-0.2,0.4-0.2h0.2h0.1c0,0.1,0,0.2,0.1,0.2l0.1,0.1h0.3h0.3c0.1,0,0.2,0,0.3-0.1c0.1-0.1,0.2-0.2,0.3-0.2h0.1h0.1
			c0,0.1,0.1,0.2,0.2,0.3s0.1,0.2,0.1,0.3c0,0.2,0.1,0.3,0.3,0.3h0.5h0.4c0,0,0.1-0.1,0.2-0.1c0.1,0,0.1-0.1,0.1-0.1
			c0-0.1,0-0.3,0.1-0.6c0-0.3,0.1-0.5,0.1-0.6c0.1,0,0.2,0.1,0.2,0.1l0.2,0.2c0,0.1,0.1,0.2,0.1,0.3c0,0.1,0.1,0.2,0.1,0.3
			c0,0.1,0,0.2,0.1,0.2c0.1,0.1,0.2,0.2,0.3,0.5c0.1,0.2,0.2,0.4,0.2,0.4c0.1,0,0.3,0.1,0.6,0.1c0.3,0,0.5,0.1,0.7,0.1
			c0,0.2-0.1,0.4-0.2,0.5c0,0,0,0.1-0.1,0.2c0,0-0.1,0.1-0.1,0.1c0,0-0.1-0.1-0.3-0.2c-0.2-0.1-0.3-0.2-0.3-0.2
			c-0.1,0-0.2,0.1-0.5,0.3c-0.2,0.1-0.3,0.2-0.3,0.3c0,0.1,0,0.2,0.1,0.3c0.1,0.1,0.2,0.2,0.2,0.3l0.1,0.1c0,0,0,0.1-0.1,0.1
			c0,0-0.2,0.1-0.3,0.3c-0.2,0.1-0.3,0.2-0.3,0.3c0,0-0.1,0.1-0.1,0.3c0,0.2-0.1,0.3-0.1,0.3c0,0-0.1,0.1-0.1,0.3c0,0.1,0,0.2,0,0.3
			H41v-0.1c0,0,0-0.1,0.1-0.1l0.3-0.3v-0.1v-0.2c0,0-0.1,0-0.1-0.1c0-0.1-0.1-0.1-0.1-0.2v-2.2l-0.3,0.3c0,0.1-0.1,0.4-0.2,0.8
			c-0.2,0.5-0.3,0.7-0.3,0.8c0,0-0.2,0.1-0.4,0.3c-0.2,0.2-0.4,0.2-0.5,0.2l-0.1,0.1c0,0-0.1,0.1-0.1,0.1c0,0,0,0.1-0.1,0.1
			c0,0-0.1,0.1-0.1,0.3c0,0.1-0.1,0.2-0.1,0.3l-1.7-0.9c0,0.1,0,0.2-0.1,0.3c0,0.1-0.1,0.2-0.1,0.3c0,0-0.1,0.1-0.1,0.1
			c0,0-0.1,0-0.2,0.1l-0.3,0.1l-0.1,0.1l0.1,0.1c0.1,0.1,0.2,0.2,0.4,0.3c0.2,0.1,0.3,0.2,0.4,0.2c0.1,0,0.3,0,0.6,0
			c0.3,0,0.5,0,0.5,0c0.1,0,0.2,0.1,0.2,0.4c0,0.2,0.1,0.4,0.1,0.5c0,0,0.2,0.1,0.4,0.1c0.2,0,0.4,0.1,0.4,0.1l0.1,0.1
			c0,0,0.1,0.1,0.1,0.1c0,0.1-0.1,0.2-0.3,0.3h-0.6h-0.5c0-0.1-0.1-0.2-0.1-0.4c0-0.2-0.1-0.3-0.1-0.4c-0.1-0.1-0.2-0.2-0.3-0.2
			c-0.1,0-0.2-0.1-0.3-0.1h-0.3c-0.1,0-0.2,0-0.3,0.1v1.1h-0.7c-0.4,0-0.7,0-1.1-0.1c0,0-0.2,0-0.4-0.1c-0.2-0.1-0.4-0.2-0.5-0.2
			h-0.3h-0.3c0,0-0.1,0.1-0.3,0.1c-0.1,0-0.2,0.1-0.3,0.2v-0.7c0,0-0.1,0-0.1-0.1h-0.1c0,0-0.1,0.2-0.1,0.4c0,0.2-0.1,0.3-0.1,0.4
			c0,0-0.1,0.1-0.1,0.1c0,0-0.1,0.1-0.2,0.1c0,0-0.1,0-0.1-0.1c0,0-0.1,0-0.1-0.1L31.9,50c0-0.1-0.1-0.2-0.1-0.3h-0.1
			c0,0-0.1,0-0.1-0.1l-0.1,0.1c0,0-0.1,0-0.2,0.1s-0.1,0.1-0.2,0.1L31.1,50h-0.1c0,0-0.1,0-0.1-0.1c-0.1,0-0.3-0.1-0.7-0.3
			c-0.4-0.2-0.6-0.4-0.7-0.4h-0.2h-0.1l-0.1,0.4c0,0.1-0.1,0.2-0.1,0.3c0,0-0.1,0.1-0.1,0.2c0,0.1-0.1,0.1-0.1,0.2
			c0-0.1-0.1-0.4-0.1-0.8c0-0.4-0.1-0.7-0.1-0.8c-0.1-0.2-0.2-0.3-0.2-0.5c0-0.1-0.1-0.2-0.1-0.3h-0.5c0,0-0.2,0-0.4-0.1
			c-0.2-0.1-0.3-0.1-0.4-0.1c-0.1,0-0.2,0.1-0.2,0.1l-0.1,0.1c0.2,0,0.3,0.1,0.3,0.3c0,0,0.1,0,0.3,0.1c0.2,0.1,0.2,0.1,0.2,0.2
			l0.1,0.3l0.1,0.3c0,0,0.1,0.1,0.1,0.1c-0.1,0-0.2,0-0.3,0.1c-0.1,0-0.2,0.1-0.3,0.1c0,0-0.1,0.1-0.3,0.2c-0.1,0.1-0.2,0.2-0.3,0.3
			c-0.1,0.1-0.2,0.3-0.2,0.5H25h-1.2c-0.2,0-0.5-0.1-1-0.2c-0.5-0.1-0.8-0.2-0.9-0.3l-0.1,0.1c0,0-0.1,0.1-0.2,0.1
			c0,0-0.1,0.2-0.1,0.3c0,0.2-0.1,0.3-0.1,0.3l-0.3,0.3h-1.9c0,0-0.1-0.2-0.2-0.4c-0.1-0.2-0.1-0.4-0.1-0.5c0,0-0.1,0-0.2-0.1
			s-0.1-0.1-0.2-0.1l-0.3,0.2c0,0.1,0,0.2-0.1,0.5c0,0.2-0.1,0.4-0.1,0.4l-0.5-0.5c0,0.1-0.1,0.2-0.3,0.3c-0.1,0.1-0.2,0.2-0.3,0.2
			c0,0.1-0.1,0.2-0.3,0.2c-0.2,0-0.3,0.1-0.3,0.1c0,0-0.1,0-0.2,0c-0.1,0-0.2,0-0.3,0c-0.1,0-0.2,0-0.3,0c-0.1,0-0.2,0-0.3,0
			c-0.1,0-0.3,0-0.6-0.1c-0.3-0.1-0.5-0.1-0.6-0.2c0,0-0.1-0.1-0.3-0.2c-0.2-0.1-0.4-0.2-0.5-0.3c0-0.1,0-0.2-0.1-0.2
			c-0.1,0-0.1-0.1-0.2-0.1c0-0.1-0.1-0.3-0.2-0.6c-0.1-0.3-0.2-0.6-0.2-0.7v-0.1V48.3z M14.2,47.3c-0.1,0-0.2,0.1-0.2,0.3
			s0.1,0.3,0.2,0.3c0.1,0,0.2-0.1,0.2-0.3S14.4,47.3,14.2,47.3z M18.1,45.9c-0.1,0-0.1,0-0.1,0.1s0,0.2,0.1,0.1
			C18.3,46,18.3,46,18.1,45.9z M19.7,10.3h0.4v-0.3L19.7,10.3z M20.1,50.2c-0.2,0-0.3,0.1-0.3,0.3s0.1,0.3,0.3,0.3
			c0.1,0,0.1-0.1,0.1-0.3S20.2,50.2,20.1,50.2z M21.3,44c-0.1-0.1-0.1-0.1-0.1,0s0,0.2,0.1,0.2c0.1,0,0.1,0,0.1-0.1
			C21.5,44,21.4,44,21.3,44z M22.2,47.8C22.2,47.7,22.2,47.7,22.2,47.8c-0.2-0.1-0.3-0.1-0.4-0.1c-0.1,0-0.2,0-0.3,0
			c-0.1,0-0.1,0.1-0.1,0.1c0.1,0.1,0.2,0.1,0.5,0.1C22,47.9,22.2,47.9,22.2,47.8z M23,48.1h0.6l-0.3-0.3L23,48.1z M24.1,44
			c-0.1,0-0.2,0.1-0.2,0.2c0,0.2,0.1,0.2,0.2,0.2c0.1,0,0.2-0.1,0.2-0.2C24.3,44.1,24.3,44,24.1,44z M24.6,8.7
			c-0.1,0-0.1,0.1-0.1,0.3c0,0.2,0,0.3,0.1,0.3c0.1,0,0.2-0.1,0.2-0.3C24.8,8.8,24.7,8.7,24.6,8.7z M24.8,43.6h0.4v-0.2h-0.4V43.6z
			 M26.8,43.1c-0.1,0-0.2,0.1-0.4,0.2c-0.2,0.1-0.3,0.2-0.4,0.2c0,0,0,0.1-0.1,0.3c0,0.1-0.1,0.2-0.2,0.3v0.2v0.1L26.8,43.1z
			 M26.8,44.5h0.3l-0.3-0.3V44.5z M27.1,24.8c-0.1,0-0.2,0.1-0.2,0.3c0,0.2,0.1,0.3,0.2,0.3c0.1,0,0.2-0.1,0.2-0.3
			C27.3,24.9,27.2,24.8,27.1,24.8z M27.4,46.1c0-0.1,0-0.1-0.1-0.1c-0.1,0-0.1,0-0.1,0.1c0,0.1,0.1,0.1,0.2,0.1
			C27.3,46.3,27.4,46.2,27.4,46.1z M29.3,8.7c0-0.1,0-0.1-0.3-0.1c-0.2,0-0.3,0-0.3,0.1c0,0.1,0.1,0.1,0.3,0.1
			C29.2,8.8,29.2,8.8,29.3,8.7z M29.3,48.1c0.1,0,0.3,0.1,0.6,0.2c0.3,0.1,0.5,0.2,0.6,0.3c0.1,0.1,0.2,0.2,0.3,0.4
			c0.1,0.2,0.2,0.3,0.2,0.4l0.3-0.3v-0.1c0,0,0-0.1,0-0.1c0,0,0,0,0-0.1l-0.1-0.1c0-0.1-0.1-0.3-0.2-0.5c-0.1-0.2-0.2-0.3-0.2-0.3
			c0,0-0.2-0.1-0.3-0.1c-0.2,0-0.3,0-0.4,0h-0.3c0,0-0.1,0-0.1,0c0,0-0.1,0-0.1,0H29.3z M29.8,14.7c-0.1,0.1-0.1,0.2-0.1,0.3h0.2
			c0.1,0,0.1,0,0.2,0c0,0,0.1,0,0.1,0l0.3-0.3v-0.3v-0.3L29.8,14.7z M30.2,37.7c-0.1-0.1-0.1-0.1-0.1,0c0,0.1,0,0.2,0.1,0.2
			c0.1,0,0.1,0,0.1-0.1C30.3,37.7,30.2,37.7,30.2,37.7z M30.9,10.3c-0.1,0-0.1,0.1-0.1,0.3c0,0.2,0,0.3,0.1,0.3
			c0.1,0,0.2-0.1,0.2-0.3C31.1,10.4,31,10.3,30.9,10.3z M31.9,45C31.8,45,31.8,45,31.9,45c-0.1,0.1-0.2,0.1-0.3,0.1
			c-0.1,0-0.1,0.1-0.1,0.1H32V45H31.9z M31.8,13.3c-0.1,0-0.1,0.1-0.1,0.2c0,0.1,0,0.2,0.1,0.2C32,13.6,32,13.4,31.8,13.3z
			 M31.7,37.3C31.7,37.4,31.8,37.4,31.7,37.3c0.1,0.2,0.1,0.3,0.3,0.4h0.1h0.1l0.3-0.3V37v-0.2c-0.2-0.2-0.4-0.3-0.6-0.3
			c-0.1,0-0.2,0.1-0.2,0.3c0,0-0.1,0.1-0.1,0.1v0.1V37.3z M31.9,20.1c0,0.1,0,0.2,0,0.3c0,0.1,0,0.2,0,0.2c0,0,0,0.1,0.1,0.2
			l0.1,0.1v-0.9H31.9z M32,48.3l0.6-0.3l-0.3-0.3L32,48.3z M33.1,10.1l-0.3,0.3c0,0,0,0.1,0,0.3c0,0.2,0,0.3,0,0.4l0.3-0.1
			c0.1,0,0.2-0.1,0.2-0.3c0.1-0.1,0.1-0.2,0.1-0.3l0.1-0.1v-0.1H33.1z M32.7,44.7c0,0,0,0.1,0,0.2c0,0.1,0,0.1,0,0.2l0.1,0.1
			c0,0,0.1,0.1,0.1,0.1c0.1,0,0.2,0,0.2-0.1l0.1-0.1c0,0,0.1-0.2,0.1-0.3H32.7z M35.1,10.1c0-0.1,0-0.1-0.2-0.1
			c-0.2,0-0.2,0-0.2,0.1C34.9,10.2,35,10.2,35.1,10.1z M34.7,49.4h0.3v-0.3h-0.3V49.4z M35.1,8.7c-0.2,0-0.3,0.1-0.3,0.3
			c0,0.2,0.1,0.3,0.3,0.3c0.1,0,0.2-0.1,0.2-0.3C35.3,8.8,35.2,8.7,35.1,8.7z M35.1,12.2l0.3-0.2l-0.3-0.3V12.2z M35.1,48.1h0.3h0.3
			l0.3-0.3l-0.5-0.5L35.1,48.1z M35.6,9.8c-0.1,0-0.2,0.1-0.2,0.3c0,0.2,0.1,0.3,0.2,0.3c0.1,0,0.2-0.1,0.2-0.3
			C35.8,9.9,35.7,9.8,35.6,9.8z M35.9,8.9c-0.1,0-0.2,0.1-0.2,0.3c0,0.2,0.1,0.3,0.2,0.3s0.2-0.1,0.2-0.3C36.1,9,36,8.9,35.9,8.9z
			 M37.4,11.5c-0.1,0-0.2,0.1-0.2,0.3c0,0.2,0.1,0.3,0.2,0.3c0.2,0,0.3-0.1,0.3-0.3C37.7,11.5,37.6,11.5,37.4,11.5z M38.1,13.8v-0.5
			v-0.5c0,0,0-0.1-0.1-0.2c-0.1-0.1-0.2-0.1-0.2-0.1l-0.3,0.3L38.1,13.8z M39.2,44.9c-0.2,0-0.3,0-0.3,0.1c-0.1,0-0.2,0.1-0.3,0.3
			c-0.1,0.2-0.2,0.2-0.3,0.2c0,0.1-0.1,0.3-0.1,0.7c0,0.4-0.1,0.6-0.1,0.7h0.5c0-0.2,0.1-0.4,0.2-0.6c0.1-0.2,0.2-0.4,0.2-0.6
			c0-0.2,0.1-0.4,0.1-0.5c0,0,0-0.1,0-0.2C39.2,45,39.2,45,39.2,44.9z M38.6,9.2c0.1,0.2,0.2,0.3,0.3,0.3c0,0,0.1-0.1,0.2-0.1
			c0.2-0.1,0.3-0.2,0.3-0.2V9V8.9c0-0.2-0.1-0.3-0.3-0.3H39h-0.1c-0.2,0-0.3,0.1-0.3,0.3V9V9.2z M39.6,44.5c-0.1,0-0.1,0-0.1,0.1
			s0,0.2,0.1,0.1c0.1,0,0.1,0,0.1-0.1S39.7,44.5,39.6,44.5z M40,9.9h0.1c0,0,0.1,0,0.1-0.1l0.3-0.3H40V9.9z"/>
		<path class="st1" d="M89,49.5c-0.1,0-0.4,0.1-0.8,0.3c-0.4,0.2-0.7,0.3-0.8,0.4c-0.2,0.1-0.4,0.3-0.4,0.6s-0.2,0.5-0.4,0.5
			c0-0.9-0.1-1.5-0.4-1.7c-0.2-0.2-0.6-0.3-0.9-0.3c-0.4,0-0.8,0.1-1.2,0.2c-0.4,0.1-0.8,0-1.2-0.3c-0.3-0.2-0.4-0.4-0.4-0.6
			c0-0.2,0-0.4,0-0.6c0-0.2,0-0.3-0.1-0.4s-0.3-0.2-0.7-0.2s-0.7,0.2-0.8,0.6c-0.2,0.4-0.5,0.6-1,0.6c0-0.4,0.1-0.6,0.4-0.9
			c0.3-0.2,0.4-0.5,0.4-0.9c0-0.3-0.1-0.4-0.2-0.5c-0.2-0.1-0.3-0.1-0.6-0.1c-0.2,0-0.4,0-0.7,0c-0.2,0-0.4,0-0.5-0.1
			c-0.1,0-0.3-0.2-0.5-0.5c-0.2-0.3-0.4-0.4-0.5-0.4h-0.1c0,0-0.1,0-0.1,0c0,0-0.1,0-0.1,0c-0.4,0-0.6,0.1-0.8,0.4
			c-0.2,0.2-0.4,0.4-0.7,0.4c0,0-0.1-0.1-0.3-0.4c-0.2-0.3-0.3-0.6-0.5-0.9c-0.2-0.3-0.3-0.7-0.5-1c-0.1-0.3-0.2-0.5-0.2-0.6v-0.2
			c0,0,0.1-0.1,0.2-0.3c0.1-0.2,0.1-0.3,0.1-0.3c0-0.1-0.2-0.3-0.5-0.5c-0.3-0.3-0.4-0.4-0.4-0.5c-0.1-0.1-0.2-0.3-0.2-0.5
			c-0.1-0.2-0.1-0.4-0.2-0.6l-0.9-7.9c0-0.2-0.1-0.4-0.3-0.8c-0.2-0.4-0.3-0.6-0.4-0.9c-0.1,0-0.3,0-0.6,0.1
			c-0.3,0.1-0.5,0.2-0.6,0.2c-0.1,0.1-0.2,0.3-0.2,0.6c0,0.3-0.1,0.4-0.2,0.4c0,0.1-0.2,0.1-0.4-0.1c-0.2-0.1-0.3-0.2-0.4-0.2
			c0,0.1,0,0.3,0.1,0.7c0.1,0.4,0.1,0.6,0.1,0.7c0,0-0.1,0.1-0.2,0.2c-0.1,0.1-0.1,0.1-0.2,0.1h-2.7c-0.1,0.1-0.3,0.3-0.5,0.6
			c-0.2,0.2-0.4,0.4-0.5,0.5c0,0-0.1,0-0.3-0.1c-0.1-0.1-0.2-0.1-0.3-0.1c0,0.4,0,0.7-0.1,0.8c0,0.1,0.1,0.4,0.3,0.7
			c-0.4,0.1-0.7,0.2-0.9,0.3c-0.2,0.1-0.3,0.3-0.4,0.5c-0.1,0.2-0.2,0.4-0.3,0.7c-0.1,0.2-0.2,0.5-0.4,0.8c0,0-0.1-0.1-0.3-0.2
			c-0.2-0.1-0.3-0.1-0.3-0.1c0,0-0.1,0,0,0c0,0,0,0.1-0.1,0.1c0,0.5,0.1,0.8,0.2,0.8c0.1,0.1,0.2,0.1,0.4,0.1c0.2,0,0.3,0.1,0.4,0.2
			c0.1,0.1,0.2,0.5,0.2,1c-0.4,0-0.8,0.1-1,0.3c-0.2,0.2-0.4,0.4-0.6,0.7c-0.2,0.3-0.3,0.6-0.5,0.9c-0.2,0.3-0.4,0.6-0.7,0.9
			c-0.1,0.1-0.3,0.2-0.6,0.2c-0.2,0-0.5,0-0.7,0c-0.2,0-0.4,0-0.6,0c-0.2,0-0.3,0.1-0.4,0.4c-0.1,0.4-0.1,0.9-0.2,1.7
			c0,0.8-0.2,1.3-0.5,1.7c-0.7,0-1.2,0.1-1.5,0.2c-0.4,0.2-0.7,0.4-0.9,0.6c-0.2,0.3-0.5,0.6-0.7,1c-0.2,0.4-0.5,0.8-0.9,1.2
			c-0.2-0.2-0.3-0.5-0.3-0.7c0-0.3-0.1-0.5-0.2-0.7c-0.1-0.2-0.2-0.4-0.4-0.5c-0.2-0.1-0.5-0.1-1.1,0c-0.1,0-0.2,0.1-0.4,0.3
			c-0.2,0.2-0.3,0.3-0.3,0.4c0,0,0.1,0.1,0.2,0.2s0.1,0.1,0.2,0.2h0.1h0.2c0,0,0.1-0.1,0.3-0.2c0.2-0.1,0.3-0.1,0.3-0.1
			c0,0,0.1,0,0.2,0.1c0.1,0.1,0.1,0.2,0.1,0.2v0.1c0,0,0,0.1,0.1,0.1l-0.1,0.1c0,0-0.2,0.1-0.3,0.3c-0.2,0.2-0.3,0.3-0.3,0.4
			c-0.1,0.1-0.2,0.5-0.3,1c-0.1,0.5-0.2,0.9-0.3,1c-0.4-0.2-0.7-0.7-1.1-1.7c-0.4-0.9-0.7-2-1-3.1c-0.3-1.2-0.5-2.3-0.7-3.3
			c-0.2-1.1-0.3-1.8-0.3-2.3v-0.5c0,0,0.1,0.1,0.3,0.2c0.2,0.1,0.3,0.1,0.4,0.2h0.1h0.1c0.1,0,0.2-0.2,0.4-0.3
			c0.2-0.2,0.3-0.3,0.4-0.4v-0.1c-0.4-0.2-0.7-0.4-1-0.5c-0.6-0.3-1-0.5-1.1-0.6c-0.1-0.8-0.2-1.3-0.2-1.8c0-0.4,0-0.9,0-1.6
			c0-0.6,0.1-1.2,0.2-1.8c0.1-0.6,0.2-1.2,0.2-1.8c0-0.7-0.1-1.4-0.2-2.1c-0.1-0.7-0.2-1.4-0.2-2.1v-0.1c0,0,0.1-0.2,0.3-0.3
			c0.2-0.2,0.3-0.3,0.4-0.3V27c-0.2-0.5-0.4-0.9-0.5-1.3c-0.1-0.4-0.3-0.7-0.4-1.1c-0.1-0.4-0.2-0.8-0.2-1.1c0-0.3,0.1-0.6,0.2-0.8
			c0.1-0.2,0.2-0.4,0.2-0.7v-0.1c0-0.1-0.1-0.3-0.2-0.5c-0.1-0.3-0.2-0.4-0.2-0.5c0-0.2,0.1-0.3,0.2-0.3c0.2,0,0.3,0,0.5-0.1
			c0.2,0,0.4-0.1,0.6-0.3c0.2-0.2,0.4-0.5,0.5-1c0.1-0.1,0.1-0.3,0-0.6c-0.1-0.3-0.1-0.5-0.1-0.6c-0.2,0-0.5,0-0.8-0.1
			c-0.3-0.1-0.4,0.1-0.4,0.4v0.1l0.7,0.7v0.1v0.2c-0.1,0-0.3,0.1-0.5,0.2c-0.2,0.1-0.4,0.1-0.5,0.1v-2.4c0.5,0,0.9-0.2,1.2-0.6
			c0.2-0.4,0.4-0.8,0.4-1.3c0.1,0,0.4,0.1,0.7,0.2c0.3,0.1,0.7,0.3,1.1,0.5c0.4,0.2,0.7,0.5,1,0.7c0.3,0.2,0.5,0.5,0.6,0.6
			c-0.3,0.1-0.5,0.3-0.8,0.5c-0.2,0.3-0.5,0.4-0.7,0.4H51c0,0-0.1,0-0.3-0.1c-0.2-0.1-0.3-0.1-0.3-0.1v0.7c0,0,0.2,0,0.5,0
			c0.3,0,0.6,0.1,0.9,0.1s0.6,0.2,0.9,0.3c0.2,0.1,0.4,0.3,0.4,0.5c0,0.5-0.2,1-0.5,1.4C52.2,21.5,52,22,52,22.5
			c0,0.3,0.1,0.5,0.3,0.6c0.2,0.1,0.5,0.3,0.7,0.4c0.2,0.1,0.5,0.3,0.7,0.5c0.2,0.2,0.3,0.5,0.3,0.8c0,0.1,0,0.3,0,0.5
			c0,0.2,0,0.4,0,0.4c0,0.1-0.1,0.3-0.2,0.5c-0.1,0.3-0.2,0.4-0.2,0.5c0,0.5,0.2,0.8,0.6,0.9c0.4,0.1,0.7,0.2,1,0.2
			c0,0.5,0,1.1,0.1,2c0.1,0.8,0.2,1.3,0.3,1.6c0,0,0.2,0.3,0.3,0.6c0.2,0.4,0.3,0.6,0.3,0.7v0.1v0.2c0,0-0.2,0.1-0.5,0.3
			c-0.3,0.2-0.4,0.3-0.5,0.3v0.2V34c0.3,1,0.6,1.7,0.7,1.9c0.2,0.3,0.4,0.4,0.5,0.4c0.2,0,0.4,0,0.6,0.1c0.2,0,0.5,0.3,0.8,0.9
			l0.3-0.3c-0.1-1.3-0.1-2.2,0.1-2.8c0.2-0.5,0.4-0.9,0.8-1c0.3-0.2,0.7-0.4,1.2-0.5c0.4-0.2,0.9-0.6,1.3-1.3
			c0.4-0.8,0.8-1.5,1.1-2.1c0.3-0.6,0.8-1.2,1.6-1.9c0,0.2,0.1,0.4,0.2,0.7c0.1,0.3,0.2,0.5,0.5,0.6c0-0.1,0.1-0.2,0.3-0.4
			c0.2-0.2,0.3-0.3,0.4-0.3c0,0,0.2,0,0.3,0.1c0.2,0.1,0.3,0.2,0.3,0.2c0.1,0,0.3,0,0.6-0.1c0.3,0,0.5-0.1,0.6-0.1
			c0-0.1-0.1-0.3-0.2-0.6c-0.1-0.3-0.1-0.5-0.1-0.6c0,0,0.1-0.1,0.3-0.2c0.2-0.1,0.3-0.1,0.4-0.1c0,0,0.1-0.1,0.2-0.2
			c0.1-0.1,0.1-0.1,0.1-0.2c0,0,0-0.2-0.1-0.4c-0.1-0.2-0.1-0.5-0.2-0.8c-0.1-0.3-0.2-0.6-0.2-0.9c-0.1-0.3-0.1-0.5-0.1-0.6
			c0-0.2,0.1-0.6,0.4-1c0.2-0.4,0.5-0.7,0.6-0.8c0.2,0,0.3,0.2,0.4,0.3c0,0.2,0,0.4,0,0.6c0,0.2-0.1,0.4,0,0.6
			c0,0.2,0.1,0.3,0.4,0.4c0,0,0.1-0.1,0.2-0.3c0.1-0.2,0.1-0.3,0.1-0.4c0-0.2,0-0.7,0.1-1.3c0.1-0.7,0.1-1.1,0.1-1.3
			c0-0.1,0-0.2,0.1-0.2c0.1-0.1,0.2-0.1,0.3-0.1c0,0,0.1,0,0.3,0.1c0.2,0.1,0.3,0.1,0.4,0.2v0.1c0,0.3,0,0.4-0.1,0.5
			c-0.1,0.1-0.1,0.4-0.1,0.8c0,0,0.1,0,0.1,0.1c0,0.1,0.1,0.1,0.1,0.1c0-0.1,0.1-0.3,0.3-0.5c0.2-0.3,0.3-0.4,0.3-0.5h0.2
			c0.3,0,0.5,0.1,0.8,0.2c0.3,0.2,0.6,0.3,0.9,0.5c0.3,0.2,0.6,0.4,0.9,0.6c0.3,0.2,0.6,0.3,0.8,0.4c0.1,0,0.3,0,0.5,0
			c0.3,0,0.4,0,0.5,0c0,0.1,0.1,0.3,0.2,0.7c0.1,0.4,0.1,0.6,0.2,0.6c0.1,0.3,0.3,0.6,0.6,0.8c0.3,0.2,0.5,0.4,0.8,0.6
			c0.3,0.2,0.5,0.4,0.7,0.7s0.3,0.6,0.3,1.1c0,0.3-0.1,0.5-0.2,0.7c-0.1,0.2-0.2,0.4-0.2,0.6c0,0.3,0.1,0.4,0.3,0.5
			c0.2,0.1,0.3,0.3,0.3,0.6v0.4c0,0.1,0,0.4-0.1,0.8c-0.1,0.5-0.2,0.7-0.2,0.8v0.1c0,0.3,0,0.5,0.1,0.6c0.1,0.1,0.2,0.2,0.3,0.3
			c0.1,0.1,0.3,0.1,0.4,0.2c0.2,0.1,0.3,0.2,0.4,0.4c0,0.1,0,0.3,0,0.5c0,0.3,0,0.4,0,0.5c0,0,0.2,0.1,0.3,0.4
			c0.2,0.3,0.3,0.4,0.3,0.5c0,0.1,0.1,0.4,0.2,0.7c0.1,0.3,0.2,0.6,0.2,1c0.1,0.4,0.1,0.7,0.2,1c0.1,0.3,0.1,0.5,0.1,0.7l0.6,0.9
			l0.7,3.3l1.7,1.5l1.6,1.2l1.3,0.9l1.2,1.7l0.5,0.4V49.5z M49.4,23.5l1.1-1.1l0.1-0.3h-1.1V23.5z M49.7,23.5
			c-0.2,0-0.3,0.1-0.3,0.3s0.1,0.3,0.3,0.3c0.2,0,0.3-0.1,0.3-0.3S49.9,23.5,49.7,23.5z M49.7,38h0.4v-0.3L49.7,38z M50.4,41.6h0.3
			v-0.3L50.4,41.6z M51,21.5c0.1-0.1,0.1-0.1-0.1-0.1c-0.2,0-0.2,0-0.2,0.1c0,0.1,0.1,0.1,0.2,0.1C51,21.6,51,21.6,51,21.5z
			 M51,20.2c-0.1-0.1-0.1-0.1-0.1,0.1c0,0.2,0,0.2,0.1,0.2c0.1-0.1,0.1-0.2,0.1-0.2S51.1,20.2,51,20.2z M51.8,46.2H52v-0.3h-0.3
			V46.2z M52.3,37.3c0,0.4,0.2,1,0.5,1.7c0.3,0.7,0.5,1.1,0.6,1.2c0,0,0,0.1,0.1,0.1h0.1c0.3,0,0.5-0.3,0.6-0.8
			c0.1-0.5,0.4-1,0.8-1.5v-0.1v-0.2c0,0-0.1-0.1-0.2-0.2c-0.1-0.1-0.1-0.1-0.2-0.1H52.3z M52.7,34.5c0,0.4,0.1,0.7,0.2,1.2
			c0.1,0.4,0.4,0.6,0.8,0.6c0.3,0,0.5-0.1,0.7-0.2c0.2-0.1,0.4-0.2,0.7-0.2v-0.3h-1l-0.1-0.8c0-0.2-0.1-0.4-0.1-0.6
			c0-0.2-0.1-0.4-0.1-0.6v-0.2c0-0.1,0-0.2,0.1-0.3c0.1,0,0.2-0.1,0.3-0.1c0.1,0,0.2-0.1,0.3-0.2c0.1-0.1,0.1-0.2,0.1-0.5
			c0-0.2,0-0.4-0.1-0.7c0-0.3-0.2-0.4-0.5-0.4c0,0.7-0.2,1.2-0.6,1.6C52.9,33.3,52.7,33.9,52.7,34.5z M53.7,30.1h1
			c-0.1-0.2-0.2-0.3-0.3-0.4c-0.1,0-0.2,0-0.4,0c0,0-0.1,0-0.2,0c-0.1,0-0.1,0-0.2,0V30.1z M58.9,38h0.4v-0.3h-0.4V38z M64.6,31.4
			c0-0.1,0.1-0.3,0.2-0.5c0.1-0.2,0.1-0.4,0.2-0.5c0,0,0.1-0.2,0.2-0.3c0.1-0.2,0.1-0.3,0.1-0.3c0-0.1-0.1-0.3-0.3-0.4h-0.1h-0.2
			c0,0.1-0.1,0.2-0.2,0.2c-0.1,0.1-0.1,0.1-0.1,0.2L64.6,31.4z M67.9,31.7c-0.2,0-0.3,0.1-0.3,0.3c0,0.2,0.1,0.3,0.3,0.3
			c0.2,0,0.3-0.1,0.3-0.3C68.1,31.8,68.1,31.7,67.9,31.7z M68.2,28.4c0.3-0.1,0.4-0.4,0.4-0.7h-0.4V28.4z M69.2,30.7l0.3-0.3h-0.3
			V30.7z M69.5,26.6c0,0.3,0,0.5,0.1,0.7c0.1,0.1,0.3,0.2,0.7,0.2c0-0.6-0.3-1-0.8-1.4V26.6z M70.8,28.6c0,0.2,0.1,0.4,0.3,0.4
			c0.2,0.1,0.4,0.1,0.6,0.1c0-0.2-0.1-0.4-0.2-0.5c-0.2-0.1-0.3-0.2-0.6-0.2L70.8,28.6z M77.1,29.8c-0.2,0-0.3,0.1-0.3,0.3
			c0,0.2,0.1,0.3,0.3,0.3c0.2,0,0.3-0.1,0.3-0.3C77.4,29.9,77.3,29.8,77.1,29.8z M77.8,40c-0.1,0-0.1,0-0.1,0.1s0,0.2,0.1,0.1
			c0.1,0,0.1,0,0.1-0.1C77.9,40,77.8,40,77.8,40z M78.4,36.5c0,0.1,0.2,0.3,0.4,0.6c0.2,0.3,0.5,0.6,0.7,0.8l0.3-0.4
			c-0.1-0.4-0.3-0.7-0.6-1c-0.3-0.3-0.6-0.6-1-0.8L78,35.5c-0.1-0.1-0.2-0.2-0.2-0.3c0,0.2-0.1,0.4-0.1,0.6c0,0.1-0.1,0.3-0.1,0.5
			v0.2L78.4,36.5z M78.4,34h0.3v-0.3h-0.3V34z M79.7,33.7c-0.2,0-0.3,0.1-0.3,0.4c0,0.2,0.1,0.4,0.3,0.4c0.2,0,0.3-0.1,0.3-0.4
			C80,33.8,79.9,33.7,79.7,33.7z M79.5,40.9l0.3,0.3c0.1-0.1,0.2-0.2,0.4-0.3c0.2-0.1,0.3-0.2,0.4-0.5v-0.1v-0.2c0,0-0.1,0-0.2-0.1
			c-0.1-0.1-0.1-0.1-0.2-0.1c-0.1,0-0.2,0.1-0.4,0.3c-0.2,0.2-0.3,0.3-0.3,0.3v0.2V40.9z M80.7,42.3c-0.1,0-0.2,0.1-0.2,0.3
			s0.1,0.3,0.2,0.3c0.2,0,0.3-0.1,0.3-0.3S80.9,42.3,80.7,42.3z M81.1,43.9c-0.2,0-0.3,0.1-0.3,0.3s0.1,0.3,0.3,0.3
			c0.2,0,0.3-0.1,0.3-0.3S81.2,43.9,81.1,43.9z M82.8,45.4c0,0.5,0.3,0.8,0.8,0.8c0-0.4,0-0.6-0.1-0.7
			C83.4,45.3,83.1,45.3,82.8,45.4z M83.1,48.2h0.6c0.3,0,0.6-0.1,1-0.2c0.4-0.1,0.6-0.1,0.6-0.2v-0.3c-0.3-0.1-0.5-0.2-0.8-0.3
			c-0.2-0.1-0.5-0.2-0.7-0.2c-0.2-0.1-0.4-0.1-0.6-0.2l0.1,0.3c0,0,0,0.1,0,0.1c0,0,0,0.1,0,0.1v0.1c-0.1,0-0.2,0-0.2-0.1
			c0,0-0.1-0.1-0.2-0.1V48.2z"/>
		<path class="st1" d="M98.3,50.5c0,0,0-0.1,0-0.2c0-0.1,0-0.1,0-0.2s0-0.1,0.1-0.3c0.1-0.2,0.1-0.3,0.1-0.3l-0.1-0.1l-0.1-0.1h-0.1
			c-0.4,0.4-0.6,0.6-0.8,0.9c-0.2,0.2-0.5,0.5-0.8,0.9h-0.1h-0.1L96,50.8h-0.1h-0.1l-0.3,0.3h-0.1c-0.4,0-0.6,0-0.7-0.1
			c-0.1,0-0.2-0.1-0.2-0.2s0-0.2,0.1-0.3c0.1-0.1,0.1-0.3,0.1-0.5c-0.5,0-0.8,0-0.9,0.1c-0.1,0.1-0.1,0.2-0.1,0.3
			c0,0.1,0.1,0.2,0,0.3c0,0.1-0.2,0.1-0.6,0.1c-0.2,0-0.5-0.1-0.8-0.3c-0.3-0.2-0.5-0.5-0.5-0.7c0.3,0,0.7-0.2,1.2-0.5
			c0.5-0.3,0.7-0.7,0.7-1c0-0.4-0.1-0.8-0.4-1.3c-0.2-0.5-0.3-0.9-0.2-1.2c0,0,0.1-0.1,0.3-0.2c0.2-0.1,0.3-0.1,0.3-0.2
			c0.1-0.1,0.2-0.3,0.2-0.5c0.1-0.3,0.1-0.5,0.2-0.8c0-0.3,0.1-0.5,0.2-0.7c0.1-0.2,0.2-0.3,0.4-0.3c0,0,0.1,0,0.1,0.1
			c0,0,0.1,0,0.3,0.1c0.2,0.1,0.3,0.1,0.3,0.1c0.4-0.1,0.7-0.3,1.1-0.6c0.4-0.3,0.7-0.5,1-0.6c0.1,0,0.2,0.1,0.5,0.2
			c0.2,0.1,0.4,0.2,0.5,0.2c0.1,0,0.3,0,0.5,0c0.2,0,0.4,0,0.5,0v1.7h0.2h0.3c0,0,0.1,0,0.3-0.1c0.2-0.1,0.3-0.1,0.3-0.1h0.1
			c0.2,0,0.4,0.1,0.5,0.2c0.1,0.1,0.2,0.3,0.3,0.5c0.1,0.2,0.2,0.3,0.3,0.5c0.1,0.2,0.2,0.3,0.4,0.3v-2.1c0.4,0,0.7,0.1,1,0.3
			c0.3,0.1,0.5,0.3,0.7,0.6l0.1-0.1l0.1-0.1h0.1h0.2c0,0,0.1,0,0.3,0.1c0.2,0.1,0.3,0.1,0.3,0.1h0.1h0.1c0.1-0.1,0.4-0.3,0.8-0.6
			c0.4-0.3,0.6-0.5,0.7-0.6c0.2,0,0.5,0,1-0.1c0.5-0.1,0.9-0.1,1.4-0.2c0.5-0.1,1-0.1,1.4-0.2c0.4,0,0.8-0.1,0.9-0.1
			c0.3-0.1,0.7-0.2,1.3-0.3c0.5-0.1,0.8-0.4,0.8-0.9c0-0.4-0.1-0.9-0.4-1.5c-0.3-0.5-0.6-1-1-1.5c-0.4-0.4-0.9-0.8-1.4-1.1
			c-0.5-0.3-1-0.4-1.4-0.4c-0.4,0-0.8,0-1.3,0.1c-0.5,0-0.9,0.2-1.2,0.5c-0.1,0.1-0.1,0.3-0.1,0.6c0,0.3,0,0.5,0.1,0.6
			c-0.2-0.2-0.4-0.4-0.5-0.6c-0.1-0.2-0.1-0.4-0.1-0.6c0-0.3,0.1-0.4,0.2-0.5c0.1-0.1,0.2-0.3,0.2-0.7c0-0.7-0.3-1.3-0.9-1.7v2.1
			l-0.3,0.3L105,37c-0.4,0-0.6-0.2-0.7-0.6c-0.1-0.4-0.2-0.8-0.3-1.2c-0.1-0.4-0.2-0.9-0.3-1.2c-0.1-0.4-0.4-0.6-0.7-0.6
			c-0.4,0-0.5,0.2-0.5,0.5c0,0.3-0.1,0.6-0.2,0.7c0,0-0.2,0-0.4,0c-0.2,0-0.4,0-0.5,0l-0.3,0.3c-0.1,0.1-0.2,0.2-0.4,0.4
			c-0.2,0.2-0.4,0.4-0.7,0.6c-0.3,0.2-0.5,0.4-0.7,0.6c-0.2,0.2-0.4,0.2-0.4,0.2h-0.1c-0.1,0-0.2-0.1-0.3-0.3
			c-0.1-0.1-0.2-0.2-0.3-0.3c0.3-0.1,0.4-0.2,0.3-0.2c0,0-0.1-0.1-0.1-0.3c0,0-0.1,0-0.1,0c0,0-0.1,0-0.1,0c0,0-0.1,0.1-0.3,0.2
			c-0.1,0.1-0.2,0.1-0.3,0.2c0-0.3,0-0.5-0.2-0.7c-0.2-0.2-0.4-0.3-0.6-0.5c-0.2-0.2-0.5-0.4-0.7-0.8c-0.2-0.3-0.4-0.9-0.5-1.6
			c0-0.1,0-0.4-0.1-0.7c0-0.4-0.1-0.7-0.1-1.2c0-0.4,0-0.8-0.1-1.2c0-0.4,0-0.6,0-0.8c0.2-0.8,0.5-1.5,0.8-2.3
			c0.3-0.8,0.8-1.4,1.5-1.9c0.2-0.1,0.3-0.2,0.3-0.3c0-0.1,0.1-0.2,0.1-0.3c0-0.1,0-0.3-0.1-0.5c0-0.2,0-0.4,0-0.6
			c0,0,0-0.1,0.1-0.2s0.1-0.1,0.2-0.2c0,0,0.1,0,0.3-0.1c0.2-0.1,0.3-0.1,0.3-0.1c0.3-0.2,0.5-0.4,0.6-0.6c0.2-0.2,0.3-0.3,0.5-0.5
			c0.2-0.2,0.3-0.3,0.5-0.4c0.2-0.1,0.4-0.2,0.8-0.3c0.2,0,0.4-0.1,0.5-0.1c0.1,0,0.2,0,0.3,0c0.1,0,0.2,0,0.3,0
			c0.1,0,0.2-0.1,0.4-0.2c0.1,0.1,0.2,0.3,0.2,0.5c0.1,0.2,0.2,0.3,0.4,0.4c0-0.1,0-0.3,0.1-0.7c0.1-0.4,0.2-0.6,0.5-0.7
			c0,0,0,0.1,0.1,0.3c0.1,0.1,0.1,0.2,0.2,0.3h0.1h0.2c0-0.1,0.2-0.3,0.5-0.6c0.3-0.3,0.5-0.5,0.6-0.6c0,0,0.1,0,0.2,0
			c0.1,0,0.1,0,0.2,0l0.1,0.1h0.1c-0.2,0.1-0.3,0.3-0.3,0.6v0.1c0,0,0,0.1,0.1,0.1c0.4-0.1,0.7-0.4,1-0.7c0.3-0.3,0.5-0.7,0.4-1.1
			h1.5c0,0.1,0.1,0.2,0.2,0.3c0.1,0.1,0.1,0.2,0.2,0.3l0.1,0.1l0.1-0.1c0,0,0.1-0.2,0.2-0.4c0.1-0.2,0.1-0.4,0.2-0.4h0.1
			c0.2,0,0.4,0.3,0.7,0.8c0.2,0.5,0.4,0.9,0.7,1c0-0.1,0.1-0.2,0.3-0.3c0.1-0.1,0.2-0.2,0.3-0.3l0.1-0.1l0.1,0.1
			c0.3,0.4,0.5,0.5,0.7,0.5c0.2,0,0.4,0.1,0.8,0.4c0.4,0.4,0.9,0.8,1.3,1.4c0.4,0.6,0.8,1.2,1.2,1.9c0.3,0.7,0.6,1.4,0.8,2
			c0.2,0.7,0.3,1.3,0.3,1.8v0.5c0,0.1,0,0.3-0.1,0.6c0,0.3-0.1,0.6-0.1,0.9c0,0.3-0.1,0.6-0.1,0.9c0,0.3-0.1,0.5-0.1,0.6
			c-0.3,0.6-0.7,0.9-1.2,0.9c-0.3,0-0.4-0.1-0.4-0.2c0-0.2,0-0.4-0.1-0.7c-0.1-0.2-0.2-0.7-0.3-1.3c-0.1-0.7-0.2-1.1-0.3-1.3
			c-0.1-0.2-0.5-0.3-1.1-0.5c-0.7-0.2-1.2-0.5-1.5-1l-0.3-0.3h-1.1c-0.4,0-0.8,0.1-1.2,0.2c-0.3,0.1-0.7,0.2-1.1,0.2h-0.1
			c-0.1,0-0.3-0.1-0.7-0.2c-0.4-0.1-0.6-0.1-0.7-0.1c0,0-0.1,0-0.3,0.1c-0.1,0.1-0.2,0.2-0.3,0.2c0,0-0.1,0-0.2,0.1
			c-0.1,0.1-0.1,0.1-0.2,0.1h-0.1h-0.1c-0.1,0-0.3,0-0.6-0.1c-0.3-0.1-0.5-0.1-0.6-0.1h-0.3c-1,0-1.9,0.4-2.6,1.1
			c-0.7,0.7-1.1,1.5-1.1,2.4h0.7l1.8,1.8c0-0.1,0-0.2,0.1-0.3c0.1-0.1,0.1-0.2,0.1-0.3h0.1c0.4,0,1,0.1,1.6,0.2
			c0.6,0.1,1.3,0.3,2,0.5c0.7,0.2,1.3,0.4,1.8,0.7c0.6,0.3,1,0.6,1.3,1c0.1,0,0.4,0.1,0.7,0.2c0.3,0.1,0.7,0.2,1.1,0.3
			c0.4,0.1,0.7,0.3,1.1,0.4c0.3,0.1,0.6,0.2,0.7,0.2c0.1,0,0.4,0.1,0.7,0.3c0.3,0.2,0.7,0.3,1,0.5c0.3,0.2,0.6,0.4,0.9,0.7
			c0.3,0.2,0.4,0.5,0.4,0.8c0,0.3-0.1,0.5-0.3,0.6c-0.2,0.1-0.3,0.4-0.3,0.8c0,0.2,0,0.5,0,0.7c0,0.2,0.1,0.5,0.3,0.7
			c0.1-0.1,0.2-0.2,0.4-0.5c0.2-0.2,0.3-0.4,0.4-0.4h0.1c0,0,0.1,0,0.1,0c0,0,0,0,0.1,0c0.3,0,0.4,0.2,0.4,0.6c0,0.4,0,0.7,0,0.9
			c0,0.3-0.1,0.5-0.2,0.6c-0.1,0.1-0.2,0.2-0.2,0.4c0,0.2,0.1,0.3,0.2,0.4c0.1,0.1,0.2,0.2,0.2,0.4c0,0-0.1,0.3-0.3,0.8
			c-0.2,0.5-0.4,1.1-0.6,1.7c-0.2,0.6-0.5,1.2-0.7,1.7c-0.2,0.5-0.4,0.8-0.5,0.9c-0.1,0-0.2,0-0.3,0c-0.1-0.1-0.2-0.1-0.3-0.2
			c-0.2,0.4-0.5,1-1,1.7c-0.4,0.7-0.9,1.2-1.4,1.5c-0.2-0.1-0.4-0.3-0.5-0.7c-0.1-0.4-0.1-0.6-0.1-0.7h-0.1h-0.2
			c-0.3,0.2-0.5,0.4-0.7,0.5c-0.1,0.1-0.2,0.4-0.2,0.7c0,0.2,0.1,0.4,0.2,0.4c0.1,0,0.2,0.2,0.2,0.3c0,0,0,0.1-0.1,0.1
			c0,0,0,0.1-0.1,0.2c-0.1,0.1-0.1,0.1-0.2,0.2c-0.1-0.1-0.3-0.2-0.6-0.5c-0.3-0.2-0.5-0.4-0.6-0.5l-0.3,0.1c0,0.3,0,0.5,0,0.8
			c0,0.2-0.2,0.4-0.6,0.4c-0.2,0-0.4,0-0.5-0.1c-0.1-0.1-0.2-0.2-0.2-0.3c0-0.1-0.1-0.2-0.1-0.4c0-0.2-0.1-0.3-0.2-0.5
			c-0.3,0.1-0.4,0.3-0.4,0.6c0.1,0.2,0,0.5-0.2,0.6c0,0-0.2,0.1-0.4,0.3c-0.2,0.2-0.4,0.3-0.4,0.3l-0.3,0.3h-3.2
			c-0.2-0.6-0.3-1-0.4-1.3c-0.1-0.3-0.1-0.7-0.1-1.3c-0.1,0-0.2,0-0.3,0.1c-0.1,0.1-0.2,0.2-0.3,0.3c-0.1,0.1-0.2,0.1-0.3,0.2
			c-0.1,0-0.2,0-0.4-0.1c-0.1,0.8-0.2,1.2-0.4,1.5c-0.2,0.2-0.5,0.5-1.1,0.9c-0.1-0.1-0.2-0.3-0.3-0.6c-0.1-0.3-0.2-0.5-0.3-0.6
			c0,0-0.1-0.1-0.1-0.1V50.5z M94.3,47.5c-0.1,0-0.1,0-0.1,0.1c0,0.1,0,0.2,0.1,0.2C94.5,47.8,94.5,47.7,94.3,47.5z M95.7,47.5
			c-0.1,0-0.1,0-0.1,0.1c0,0.1,0,0.2,0.1,0.2C95.9,47.8,95.9,47.7,95.7,47.5z M95.7,49l0.6-0.6h-0.6V49z M97.2,25.2
			c-0.1,0-0.2,0.1-0.2,0.3c0,0.2,0.1,0.3,0.2,0.3c0.1,0,0.2-0.1,0.2-0.3C97.4,25.3,97.3,25.2,97.2,25.2z M99,26.3V26h-0.3L99,26.3z
			 M99,22.2c0,0.1,0,0.2,0.1,0.5c0.1,0.2,0.1,0.4,0.2,0.4c0.2,0,0.3-0.2,0.3-0.5c0-0.4-0.1-0.6-0.3-0.6C99.1,21.9,99,22,99,22.2z
			 M100.1,24c0,0.3,0.1,0.6,0.3,0.8c0.1,0.2,0.2,0.4,0.3,0.6c0.1,0.2,0.2,0.3,0.4,0.3l0.1,0.1l0.1-0.1c0.4-0.2,0.6-0.4,0.7-0.5
			c0.1-0.1,0.2-0.3,0.2-0.6c0-0.3,0-0.4-0.1-0.5c-0.1,0-0.2-0.1-0.3-0.1c-0.1,0-0.3,0-0.4,0c-0.1,0-0.2,0-0.3-0.1
			c-0.1-0.1-0.2-0.3-0.3-0.6c-0.1-0.3-0.1-0.5-0.1-0.6c-0.2,0.1-0.3,0.3-0.4,0.6C100.1,23.6,100.1,23.9,100.1,24z M100.7,30.2
			c-0.1,0-0.2,0.1-0.2,0.3s0.1,0.3,0.2,0.3c0.2,0,0.3-0.1,0.3-0.3S100.9,30.2,100.7,30.2z M101,21.9c-0.2,0-0.3,0.1-0.3,0.3
			c0,0.2,0.1,0.3,0.3,0.3c0.1,0,0.2-0.1,0.2-0.3C101.2,22,101.2,21.9,101,21.9z M102.7,46.4c-0.1,0-0.1,0-0.1,0.1
			c0,0.1,0,0.2,0.1,0.2c0.1,0,0.1-0.1,0.1-0.2C102.9,46.4,102.8,46.4,102.7,46.4z M103,23.9c0,0.3,0.1,0.6,0.2,1
			c0.1,0.3,0.4,0.5,0.8,0.5V23c-0.2,0-0.4,0.1-0.6,0.3S103,23.7,103,23.9z M103.9,44.3c-0.1,0-0.2,0.1-0.2,0.3
			c0,0.2,0.1,0.3,0.2,0.3c0.2,0,0.3-0.1,0.3-0.3C104.2,44.4,104.1,44.3,103.9,44.3z M103.9,49.6c-0.1,0-0.2,0.1-0.2,0.3
			s0.1,0.3,0.2,0.3c0.2,0,0.3-0.1,0.3-0.3S104.1,49.6,103.9,49.6z M105.1,47.3h0.3v-0.9h-0.3V47.3z M107.3,19.5
			c0,0.3,0.1,0.4,0.4,0.5c0.2,0.1,0.5,0.1,0.7,0.1V20c0-0.3-0.1-0.4-0.4-0.5C107.7,19.5,107.5,19.5,107.3,19.5z M108.1,35.2v-0.6
			l-0.3,0.3L108.1,35.2z M109.6,21.9c0,0,0,0.1,0.1,0.3c0.1,0.1,0.1,0.2,0.2,0.3l0.3-0.3v-0.1v-0.1c0-0.1-0.1-0.2-0.2-0.3
			c-0.1-0.1-0.1-0.2-0.2-0.3c-0.2,0-0.3,0.1-0.3,0.3v0.1V21.9z M110.2,34.6c-0.2,0-0.3,0.1-0.3,0.3c0,0.2,0.1,0.3,0.3,0.3
			c0.1,0,0.2-0.1,0.2-0.3C110.4,34.7,110.3,34.6,110.2,34.6z M113.4,20.1c-0.1,0-0.1,0.1-0.1,0.3c0,0.2,0,0.3,0.1,0.3
			c0.1,0,0.1-0.1,0.1-0.3C113.5,20.3,113.4,20.2,113.4,20.1z M116.6,40.2c-0.1,0-0.1,0-0.1,0.1s0,0.2,0.1,0.2c0.1,0,0.1-0.1,0.1-0.2
			S116.7,40.2,116.6,40.2z"/>
		<path class="st1" d="M135,49.5c-0.1,0-0.3,0.2-0.5,0.3c-0.3,0.2-0.4,0.3-0.5,0.3c-0.4,0.1-0.9-0.1-1.4-0.4c-0.5-0.4-1-0.6-1.4-0.6
			c-0.2,0-0.4,0-0.5,0.1c-0.1,0.1-0.2,0.2-0.2,0.3s-0.2,0.2-0.3,0.3c-0.1,0.1-0.4,0.1-0.7,0.1v-1.1c0,0-0.1,0.1-0.2,0.1
			c-0.2,0.1-0.3,0.1-0.3,0.1c-0.1,0-0.3-0.2-0.5-0.5c-0.2-0.3-0.4-0.6-0.5-0.9c-0.2-0.3-0.3-0.6-0.5-0.9c-0.1-0.3-0.2-0.5-0.2-0.6
			c0-0.1,0-0.3,0-0.4c0-0.1,0.1-0.2,0.4-0.3c-0.4,0-0.7-0.1-1.1-0.2c-0.4-0.1-0.6-0.2-0.9-0.4c-0.2-1.3-0.4-2.5-0.6-3.5
			c-0.2-1.1-0.2-2.3-0.2-3.5c0-0.8,0-1.6,0-2.4s0.1-1.6,0.3-2.4c0-0.1,0.1-0.3,0.3-0.7c0.2-0.4,0.3-0.6,0.3-0.7v-0.3
			c0-0.5-0.1-0.9-0.2-1.3c-0.1-0.4-0.2-0.8-0.2-1.3c0-0.2,0-0.6,0-1c0-0.4,0-0.9,0.1-1.3c0-0.4,0.1-0.9,0.2-1.3
			c0.1-0.4,0.2-0.7,0.3-0.9V5.9c0.4-0.4,0.5-0.7,0.5-0.9c0-0.3-0.1-0.6-0.3-0.7c-0.2-0.2-0.3-0.4-0.3-0.7c0-0.2,0.2-0.4,0.7-0.6
			c0.5-0.2,0.8-0.3,1-0.3c0.3,0,0.5,0.1,0.5,0.3c0,0.2,0.1,0.3,0.4,0.3c0.4,0,0.5-0.2,0.6-0.6c0-0.4,0-0.7,0-0.9
			c0.4,0,0.8,0.1,1.2,0.3c0.4,0.2,0.7,0.5,0.7,1c0,0.3-0.1,0.5-0.2,0.6c-0.1,0.2-0.3,0.3-0.5,0.6c0,0.1,0,0.2,0.1,0.3
			c0.1,0.1,0.2,0.1,0.3,0.1c0,0,0.1,0,0.3-0.1c0.1-0.1,0.2-0.2,0.2-0.3v0.5c0.3,0,0.6,0,0.8,0c0.2,0,0.3-0.1,0.3-0.5V4
			c0-0.1-0.1-0.3-0.1-0.5c0-0.2-0.1-0.4-0.1-0.7c0-0.2-0.1-0.5-0.1-0.7l-0.7-0.3c0.2-0.2,0.3-0.3,0.5-0.3h0.1c0.6,0,1,0.3,1.1,0.8
			c0.1,0.5,0.1,1,0.1,1.5c0.4,0,0.7-0.1,0.9-0.2c0.2-0.2,0.3-0.3,0.4-0.5c0.1-0.2,0.2-0.3,0.3-0.5c0.1-0.2,0.3-0.2,0.5-0.2
			c0,0,0.2,0.2,0.3,0.5c0.2,0.3,0.4,0.7,0.5,1c0.2,0.4,0.3,0.8,0.5,1.1c0.1,0.4,0.2,0.6,0.2,0.8c0,0.5-0.1,1-0.3,1.7
			c-0.2,0.6-0.4,1.2-0.5,1.8c0,0.2-0.1,0.3-0.2,0.3c-0.1,0-0.1,0-0.2,0c-0.1,0-0.1,0-0.2-0.1c-0.1,0-0.2,0-0.3,0.1
			c-0.1,0.1-0.3,0.3-0.5,0.6c-0.2,0.3-0.3,0.6-0.5,1c-0.1,0.4-0.2,0.7-0.3,1c-0.1,0.3-0.1,0.6,0,0.7c0,0,0.1,0.2,0.2,0.5
			c0.2,0.3,0.3,0.4,0.4,0.5v0.2v0.1c-0.1,0.1-0.2,0.3-0.3,0.6c-0.1,0.3-0.1,0.5-0.1,0.6c0,0.1,0.1,0.3,0.2,0.5
			c0,0.1,0.1,0.3,0.2,0.5c-0.1,0.1-0.2,0.3-0.3,0.7c-0.1,0.4-0.2,0.6-0.3,0.7c0.1,0.2,0.2,0.3,0.4,0.4c0.2,0.1,0.4,0.2,0.5,0.3
			c0.2,0.1,0.3,0.3,0.5,0.5c0.1,0.2,0.2,0.6,0.2,1c0,0.3-0.1,0.6-0.2,0.8c-0.1,0.2-0.2,0.5-0.2,0.8c0,0.2,0,0.4,0,0.5
			c0,0.1,0.1,0.3,0.2,0.5c0.1,0,0.4,0,0.7,0.1c0.3,0,0.7,0.1,1,0.1c0.3,0,0.7,0.1,1,0.1c0.3,0,0.5,0.1,0.7,0.1h0.3
			c0.2,0,0.4,0,0.5-0.1c0.1-0.1,0.2-0.3,0.2-0.6h0.7c0.4,0,0.7,0.1,0.8,0.2c0.1,0.2,0.2,0.2,0.5,0.2h0.1c0,0,0.1,0,0.1-0.1
			c0,0,0.1-0.2,0.3-0.4c0.2-0.2,0.3-0.3,0.4-0.3h0.1c0.3,0,0.5,0.1,0.7,0.2c0.1,0.2,0.3,0.3,0.4,0.5c0.1,0.2,0.3,0.3,0.4,0.5
			c0.2,0.2,0.4,0.2,0.7,0.2c0.3,0,0.5-0.1,0.6-0.2c0.1-0.2,0.2-0.3,0.2-0.5c0-0.2,0.1-0.3,0.3-0.5c0.1-0.2,0.4-0.2,0.9-0.2
			c0,0.7-0.1,1.1-0.2,1.3c-0.1,0.2-0.2,0.4-0.4,0.5c-0.1,0.1-0.3,0.2-0.4,0.3c-0.1,0.1-0.2,0.3-0.2,0.6v0.6c0,0,0.1,0.2,0.2,0.5
			c0.2,0.3,0.3,0.4,0.4,0.5c0,0.1,0,0.2-0.1,0.5c-0.1,0.2-0.1,0.5-0.2,0.7c-0.1,0.2-0.2,0.5-0.4,0.6c-0.2,0.2-0.4,0.2-0.5,0.1
			c-0.1,0-0.2-0.1-0.4-0.3c-0.2-0.2-0.3-0.3-0.3-0.4H144h-0.1c0,0,0,0.1-0.1,0.2c-0.1,0.1-0.1,0.1-0.1,0.2v0.3v0.1
			c0,0.1,0,0.3,0.1,0.7c0.1,0.4,0.1,0.6,0.1,0.6v0.4v0.3c-0.1,0-0.3-0.1-0.5-0.2c-0.2-0.1-0.4-0.1-0.4-0.1h-0.2
			c-0.3,0-0.5,0.1-0.6,0.3c-0.1,0.2-0.2,0.4-0.3,0.7c-0.1,0.2-0.2,0.5-0.4,0.7c-0.2,0.2-0.4,0.3-0.7,0.3c-0.5,0-0.9-0.1-1.4-0.3
			c-0.4-0.2-0.9-0.3-1.5-0.3c-0.2,0-0.3,0-0.4,0c-0.1,0-0.2,0.1-0.4,0.2c0-0.1,0.1-0.3,0.1-0.5c0-0.2,0.1-0.4,0.2-0.5l0.3-0.5
			c-0.1-0.3-0.2-0.5-0.4-0.7c-0.2-0.2-0.4-0.4-0.6-0.6c-0.2-0.2-0.4-0.4-0.5-0.6c-0.1-0.2-0.2-0.5-0.2-0.9c0-0.2,0.1-0.6,0.2-1
			c0.1-0.5,0.3-0.7,0.6-0.7l0.3,0.1c0.2,0.1,0.3,0.1,0.4,0.1l0.1-0.1l0.1-0.1c0-0.4-0.2-0.7-0.5-1.1c-0.3-0.4-0.6-0.6-1-0.6h-0.5
			c0.1,0,0.3,0.1,0.5,0.3c0.3,0.2,0.4,0.3,0.5,0.4V24c0,0.1-0.2,0.4-0.7,0.8c-0.5,0.4-0.8,0.7-1,1c-0.2,0.6-0.4,1-0.6,1.2
			c-0.2,0.2-0.4,0.4-0.6,0.6c-0.2,0.2-0.4,0.4-0.5,0.6c-0.2,0.2-0.2,0.7-0.2,1.2h0.1c-0.4-0.1-0.8-0.2-1-0.2c-0.2,0-0.3-0.1-0.4-0.1
			c-0.1,0-0.2-0.1-0.3-0.3c-0.1-0.1-0.2-0.4-0.5-0.7h-0.1c0,0-0.1,0-0.1-0.1c-0.4,0-0.6,0.2-0.6,0.7c0,0.2,0.1,0.4,0.3,0.6
			c0.2,0.2,0.4,0.5,0.6,0.7c0.2,0.2,0.5,0.4,0.8,0.5c0.3,0.1,0.5,0.1,0.8,0c-0.2,0.6-0.6,1-1.1,1.2c-0.5,0.2-0.9,0.5-1.2,1
			c0,0.2,0.1,0.3,0.2,0.3c0.1,0,0.2,0,0.3,0s0.3,0,0.4,0.1c0.1,0,0.3,0.1,0.4,0.3c0,0,0,0.2,0.1,0.3c0.1,0.2,0.1,0.3,0.1,0.3
			c0.1,0.1,0.3,0.1,0.4,0c0.3,0.6,0.4,1.2,0.3,1.7c-0.1,0.5-0.1,1.1-0.1,1.9h0.6c0,0.1,0,0.3,0,0.5c0,0.2-0.1,0.4-0.3,0.5v2.9
			c-0.3,0.1-0.5,0.2-0.6,0.3c-0.1,0.1-0.1,0.2-0.1,0.4s0,0.3,0.1,0.4c0,0.2,0.1,0.3,0.1,0.5c0.3,0,0.6-0.1,0.9-0.2
			c0.3-0.1,0.6-0.3,0.8-0.4c0.1,0.6,0.5,1.2,1.1,1.8c0.7,0.6,1.3,1,1.9,1.1c0,0,0.1,0,0.3-0.1c0.2-0.1,0.3-0.1,0.4-0.2
			c0.1,0,0.4,0,0.7,0c0.4,0,0.7,0.1,1.1,0.1s0.8,0.1,1.2,0.1c0.4,0,0.7,0,0.8,0c0.5,0,0.9,0,1.3,0c0.4-0.1,0.5,0.1,0.5,0.6
			c0.4,0,0.9-0.1,1.2-0.2c0.4-0.1,0.8-0.2,1.3-0.2c0.1,0,0.3,0,0.6,0c0.3,0,0.5,0.1,0.5,0.4c0,0,0,0.2-0.1,0.3l-0.1,0.3
			c0,0.1-0.1,0.4,0,0.9c0,0.4,0,0.7,0,0.8l-0.2,0.2c0,0-0.1,0.1-0.1,0.1c0,0-0.1,0-0.1,0.1c-0.1,0-0.4,0.1-0.8,0.3
			c-0.4,0.2-0.7,0.3-0.7,0.3c-0.4,0.2-0.6,0.4-0.7,0.6c-0.1,0.2-0.2,0.3-0.3,0.4c-0.1,0.1-0.2,0.2-0.5,0.3c-0.2,0.1-0.6,0.1-1.3,0.1
			c-0.1,0-0.3,0-0.5,0s-0.3,0-0.4,0l-0.3-0.3l-0.7,0.6l0.4,0.3c-0.1,0-0.2,0.1-0.5,0.2c-0.2,0.1-0.4,0.2-0.5,0.2h-0.2h-0.1
			c-0.2,0-0.5-0.1-0.8-0.2c-0.3-0.1-0.6-0.2-0.9-0.3c-0.3-0.1-0.6-0.2-0.9-0.3c-0.3-0.1-0.4-0.1-0.5-0.1c0,0-0.2-0.2-0.4-0.5
			c-0.2-0.3-0.4-0.4-0.5-0.5H135L135,49.5z M126.5,37.6h0.4V37L126.5,37.6z M126.9,7.5c0,0.2,0.3,0.3,0.7,0.3c0.3,0,0.5-0.1,0.7-0.2
			c0.2-0.1,0.5-0.2,0.9-0.2V6.4c-0.5,0-0.9,0.1-1.2,0.4C127.6,7.1,127.3,7.3,126.9,7.5z M127.6,37c0,0.2,0,0.4,0,0.5
			c0,0.1,0.1,0.3,0.2,0.5c0.4,0.1,0.6,0,0.7-0.3c0.1-0.3,0.1-0.5,0.1-0.6s0-0.4-0.1-0.8c0-0.4-0.2-0.6-0.5-0.6
			c-0.3,0-0.5,0.2-0.5,0.5S127.6,36.8,127.6,37z M129.4,3.8c-0.4,0-0.8,0.1-1.1,0.4c-0.4,0.3-0.5,0.6-0.5,1.1c0.6,0,1-0.1,1.3-0.3
			C129.3,4.9,129.4,4.5,129.4,3.8z M129.2,9.1c-0.2,0.1-0.4,0.2-0.4,0.3c0,0.1-0.1,0.2-0.1,0.4l0.1,0.3l0.5-0.6L129.2,9.1z
			 M128.7,21.3c0,0.3,0.1,0.6,0.3,0.9c0.2,0.3,0.5,0.4,0.9,0.4c0-0.3-0.1-0.6-0.3-0.9C129.4,21.4,129.1,21.3,128.7,21.3z
			 M129.2,35.7l0.2-0.3l-0.2-0.3l-0.3,0.3L129.2,35.7z M129.2,15.5c-0.1,0-0.1,0-0.1,0.1c0,0.1,0,0.2,0.1,0.2
			C129.4,15.6,129.4,15.5,129.2,15.5z M129.8,39.2c-0.5,0-0.7,0.3-0.7,0.8C129.6,40,129.8,39.7,129.8,39.2z M129.2,19.9l0.2-0.3
			h-0.2V19.9z M129.4,33.2c0.1-0.2,0.1-0.3,0-0.3c-0.1,0-0.2,0.1-0.2,0.3c0,0.1,0.1,0.1,0.1,0.1C129.4,33.3,129.4,33.3,129.4,33.2z
			 M129.2,36.7h0.2v-0.3h-0.2V36.7z M129.4,45.6h0.4v-2.5l-0.4,0.3V45.6z M129.8,3c-0.2,0-0.3,0.1-0.3,0.3c0,0.2,0.1,0.3,0.3,0.3
			c0.1,0,0.2-0.1,0.2-0.3C130,3.1,129.9,3,129.8,3z M129.9,7.9l0.1,0.1c0.4,0.3,0.7,0.6,0.9,1c0.1,0.4,0.4,0.7,0.9,0.9l0.6-0.6
			L133,10l0.9-0.9c0-0.3-0.3-0.4-0.7-0.3c-0.4,0.1-0.7,0.1-0.7,0.1c0-0.3,0.1-0.5,0.2-0.7c0.1-0.2,0.3-0.4,0.4-0.5
			c0.2-0.2,0.3-0.4,0.4-0.6c0.1-0.2,0.2-0.5,0.2-0.8c-0.4,0-0.8,0.1-1.2,0.3c-0.4,0.2-0.8,0.3-1.2,0.3c-0.3,0-0.4-0.1-0.5-0.3
			c-0.2,0.1-0.4,0.3-0.7,0.6c-0.3,0.3-0.4,0.5-0.4,0.7L129.9,7.9z M130.1,10.7C130,10.6,130,10.7,130.1,10.7c-0.1,0.3,0,0.3,0,0.3
			c0.1-0.1,0.2-0.2,0.2-0.2C130.3,10.8,130.2,10.7,130.1,10.7z M130.5,12.7l0.4-0.3h-0.8L130.5,12.7z M130.1,40.8h1.1
			c0-0.1,0-0.2-0.1-0.3c-0.1-0.1-0.1-0.1-0.2-0.2L130.1,40.8z M133.2,11.1c-0.3,0.1-0.6,0.2-0.9,0.5c-0.4,0.2-0.7,0.5-1,0.8
			c-0.3,0.3-0.5,0.6-0.8,0.9c-0.2,0.3-0.3,0.7-0.3,1c0,0,0.2-0.2,0.6-0.5c0.3-0.3,0.7-0.6,1.1-1c0.4-0.4,0.7-0.7,1-1
			c0.3-0.3,0.5-0.5,0.5-0.6L133.2,11.1z M130.5,15.8h0.4l-0.4-0.3V15.8z M130.9,37.3c0,0.3,0.1,0.5,0.3,0.7c0.2,0.1,0.4,0.2,0.6,0.2
			c0-0.1,0-0.4-0.1-0.8c0-0.4-0.2-0.6-0.5-0.6h-0.1c-0.1,0-0.2,0.1-0.2,0.3C130.9,37.2,130.9,37.3,130.9,37.3z M131.1,15.2h0.2v-0.3
			L131.1,15.2z M131.3,20.9c0.2,0,0.5,0.2,0.8,0.4c0.3,0.2,0.6,0.3,0.7,0.3l0.3-0.3c0.1-0.1,0.2-0.2,0.3-0.3
			c0.1-0.1,0.2-0.2,0.3-0.4c0.2-0.3,0.5-0.6,0.9-1c0.1-0.3,0-0.6-0.2-0.9c-0.2-0.3-0.4-0.4-0.7-0.4c-0.2,0-0.4,0-0.7,0
			c-0.3,0-0.6,0.1-0.9,0.1c-0.3,0.1-0.5,0.2-0.7,0.3c-0.2,0.1-0.3,0.3-0.3,0.5c0,0.2,0,0.4,0.1,0.4c0.1,0.1,0.2,0.1,0.3,0.2
			c0.1,0,0.2,0.1,0.3,0.1c0.1,0,0.1,0.2,0.1,0.3v0.2l-0.3,0.1C131.5,20.9,131.4,20.9,131.3,20.9z M131.3,24.9c0.1,0,0.2,0.1,0.2,0.2
			s0.1,0.1,0.2,0.1l0.1,0.1l0.1-0.1c0.1,0,0.2,0,0.2-0.1c0-0.1,0.1-0.1,0.2-0.2v-0.3v-0.1c-0.1-0.2-0.3-0.3-0.4-0.3l-0.1-0.1
			c0,0-0.1,0-0.1,0.1c-0.2,0-0.3,0.1-0.5,0.3v0.1V24.9z M131.8,26.1c0,0,0,0.1,0.1,0.2s0.1,0.1,0.1,0.2h0.2h0.2
			c-0.2-0.2-0.4-0.3-0.4-0.3l-0.1-0.1C131.9,26,131.8,26.1,131.8,26.1z M132.4,48.3c-0.2,0-0.3,0.1-0.3,0.3s0.1,0.3,0.3,0.3
			c0.2,0,0.3-0.1,0.3-0.3S132.6,48.3,132.4,48.3z M132.4,28c-0.1,0-0.1,0-0.1,0.2c0,0.2,0,0.2,0.1,0.1c0.1,0,0.1-0.1,0.1-0.2
			C132.5,28.1,132.5,28,132.4,28z M132.4,40.3c-0.1-0.1-0.1-0.1-0.1,0.1c0,0.1,0,0.2,0.1,0.2c0.1,0,0.1-0.1,0.1-0.2
			S132.5,40.3,132.4,40.3z M132.8,15.8c-0.2,0-0.3,0.1-0.3,0.3c0,0.2,0.1,0.3,0.3,0.3c0.1,0,0.2-0.1,0.2-0.3
			C133,15.9,132.9,15.8,132.8,15.8z M133.2,14.9c0.1-0.1,0-0.1-0.3-0.1s-0.3,0-0.2,0.1c0,0.1,0.1,0.1,0.2,0.1
			C133.1,15,133.2,15,133.2,14.9z M133,27.4v-0.6l-0.3,0.3L133,27.4z M133,10.4c-0.1,0-0.2,0.1-0.2,0.3c0,0.2,0.1,0.3,0.2,0.3
			c0.1,0,0.1-0.1,0.1-0.3C133.2,10.5,133.1,10.4,133,10.4z M133.2,22.9c0,0.1,0.1,0.4,0.2,0.7c0.2,0.4,0.4,0.5,0.6,0.5
			c0.3,0,0.5-0.1,0.5-0.4c0-0.2,0.1-0.5,0.1-0.6c0-0.3,0-0.6-0.1-0.7c-0.1-0.2-0.3-0.3-0.7-0.3C133.5,22.2,133.2,22.4,133.2,22.9z
			 M133.2,44.7h0.5v-0.3L133.2,44.7z M133.6,25.2c0,0.1,0,0.2,0.1,0.2c0.1,0.2,0.2,0.5,0.3,0.8c0.1,0.3,0.2,0.5,0.3,0.5h0.5
			c0-0.4-0.1-0.7-0.2-1.1c-0.2-0.4-0.5-0.6-1-0.6V25.2z M134.6,47c-0.1,0-0.2,0.1-0.2,0.3s0.1,0.3,0.2,0.3c0.2,0,0.3-0.1,0.3-0.3
			S134.8,47,134.6,47z M135.8,5.6c-0.2,0.1-0.4,0.2-0.8,0.4c-0.3,0.2-0.5,0.5-0.5,0.8v0.3c0.3-0.2,0.5-0.5,0.8-0.7
			C135.6,6.2,135.7,5.9,135.8,5.6z M136.9,46c-0.2,0-0.3,0.1-0.3,0.3c0,0.2,0.1,0.3,0.3,0.3c0.2,0,0.3-0.1,0.3-0.3
			C137.2,46.1,137.1,46,136.9,46z M138.5,25.4c0,0.5,0.2,0.7,0.7,0.7v-0.4c0,0-0.1-0.2-0.2-0.5c-0.1-0.3-0.2-0.4-0.2-0.5
			C138.6,24.9,138.5,25.1,138.5,25.4z M138.8,28.3h0.4c0-0.3-0.1-0.5-0.4-0.6V28.3z M140.4,24.9c-0.2,0-0.3,0.1-0.3,0.3
			c0,0.2,0.1,0.3,0.3,0.3c0.2,0,0.3-0.1,0.3-0.3C140.7,25,140.6,24.9,140.4,24.9z M141.4,48.8c-0.4,0-0.7,0.2-0.7,0.7l0.1,0.1
			c0.2,0,0.4-0.1,0.4-0.3C141.4,49.1,141.4,49,141.4,48.8z M141.4,45.6c-0.2,0-0.3,0.1-0.3,0.4c0,0.2,0.1,0.4,0.3,0.4
			c0.1,0,0.2-0.1,0.2-0.4C141.6,45.7,141.5,45.6,141.4,45.6z M141.7,26.4h0.2h0.1c0,0,0.1-0.1,0.1-0.1c0,0,0.1-0.1,0.1-0.1l0.1-0.1
			c0-0.1,0-0.3-0.1-0.5c-0.1-0.2-0.2-0.4-0.3-0.5L141.7,26.4z M142.7,27.7l0.3-0.3l-0.3-0.3V27.7z M143.9,25.1l0.1,0.1h0.1
			c0,0,0.1,0,0.1-0.1l0.1-0.1c0,0,0.1-0.1,0.1-0.1c0,0,0-0.1,0.1-0.1c0-0.1,0.1-0.2,0.2-0.3h-1L143.9,25.1z"/>
		<path class="st1" d="M181.8,49.6c-0.4,0-0.8,0-1.3-0.1c-0.5-0.1-1-0.2-1.6-0.4s-1-0.4-1.5-0.7c-0.4-0.3-0.8-0.6-0.9-0.9v-0.3
			c-0.1-0.7-0.3-1.2-0.6-1.6c-0.3-0.4-0.6-0.7-0.9-0.9c-0.3-0.2-0.6-0.5-0.9-0.7c-0.3-0.2-0.5-0.5-0.6-0.8c0-0.1-0.1-0.2,0-0.4
			c0-0.2,0-0.3,0-0.5c0-0.2,0-0.3-0.1-0.3c-0.1-0.1-0.3-0.1-0.5,0c0,0-0.1,0.2-0.2,0.4c-0.1,0.2-0.1,0.4-0.2,0.5
			c-0.1,0.3-0.3,0.5-0.5,0.8s-0.6,0.6-0.9,0.8c-0.3,0.3-0.6,0.5-0.9,0.8c-0.2,0.3-0.4,0.6-0.4,0.9v0.3c0.1,0,0.3-0.1,0.5-0.2
			c0.2-0.1,0.4-0.1,0.5-0.1c0,0,0.1,0,0.2,0.1c0.1,0.1,0.1,0.2,0.2,0.2v0.1c0,0,0,0.1,0.1,0.1c0,0.2,0,0.3-0.1,0.4
			c-0.1,0-0.2,0-0.3,0c-0.1,0-0.2,0-0.3,0.1c-0.1,0.1-0.1,0.2-0.1,0.5c0,0-0.1,0.1-0.3,0.4c-0.2,0.3-0.3,0.4-0.3,0.4
			c0-0.1-0.2-0.1-0.5-0.1c-0.3,0-0.5,0-0.5,0c-0.2-0.4-0.4-0.5-0.5-0.5c-0.1,0-0.3,0.1-0.7,0.1c-0.2,0.3-0.4,0.5-0.8,0.6
			c-0.4,0.1-0.7,0.2-1.1,0.4c-0.4,0.1-0.7,0.3-1,0.5s-0.4,0.4-0.4,0.7h-3.7c0,0.2-0.1,0.3-0.3,0.3c-0.2,0-0.3,0-0.5,0
			c-1.1,0-2.1-0.2-3.1-0.7c-1-0.4-1.4-1.2-1.4-2.4c0-0.4,0-0.8,0-1.1c0-0.3,0.1-0.7,0.4-1.1c-0.1-0.1-0.3-0.2-0.5-0.2
			c-0.2-0.1-0.4-0.1-0.5-0.1c-0.1,0-0.3,0-0.5,0.1c-0.2,0.1-0.4,0.1-0.5,0.2c0.1,0.1,0.2,0.2,0.2,0.4c0,0.2,0.1,0.3,0.1,0.4
			c0,0,0,0.1,0,0.2c0,0.1,0,0.2,0,0.2c-0.5,0-0.9-0.2-1.2-0.5c-0.2-0.3-0.4-0.7-0.5-1.1c-0.1-0.4-0.2-0.9-0.2-1.4
			c0-0.5,0-0.9-0.1-1.2c0,0,0-0.2-0.1-0.3c-0.1-0.2-0.2-0.4-0.3-0.6c-0.1-0.2-0.3-0.4-0.4-0.6c-0.1-0.2-0.2-0.3-0.2-0.3
			c0-0.1-0.1-0.4-0.2-0.7c-0.1-0.3-0.1-0.7-0.2-1s-0.1-0.7-0.2-1c-0.1-0.3-0.1-0.5-0.1-0.7c0.1,0,0.2-0.1,0.4-0.3
			c0.2-0.1,0.3-0.2,0.3-0.3v-0.1c0-0.3-0.1-0.6-0.2-0.8c-0.1-0.2-0.2-0.4-0.2-0.7c0-0.2,0.1-0.5,0.2-0.8c0.1-0.3,0.3-0.4,0.6-0.4
			h0.2c0.1,0,0.2,0.1,0.2,0.3c0.1,0.1,0.1,0.2,0.1,0.3l0.6-0.3c-0.1-0.3-0.3-0.4-0.6-0.5c-0.3-0.1-0.5-0.2-0.8-0.2
			c-0.2-0.1-0.5-0.2-0.7-0.3c-0.2-0.1-0.3-0.3-0.3-0.6c0-0.2,0.1-0.3,0.2-0.4c0.1-0.1,0.3-0.1,0.5-0.1c0.2,0,0.3-0.1,0.5-0.1
			c0.1-0.1,0.2-0.2,0.2-0.5h2.1v-0.6l-1.7-0.7v-0.4c0-0.8,0.1-1.4,0.4-1.8c0.3-0.4,0.6-0.6,1-0.7c0.4-0.1,0.7-0.2,1.1-0.3
			c0.4,0,0.6-0.2,0.7-0.5c0,0-0.1,0-0.3-0.1c-0.2-0.1-0.3-0.1-0.3-0.2l-0.1-0.1c0-0.4,0.1-0.7,0.4-0.8c0.2-0.2,0.5-0.3,0.9-0.3
			c0.3-0.1,0.7-0.1,1-0.2c0.3-0.1,0.6-0.2,0.8-0.3c0,0,0.1-0.2,0.1-0.5c0-0.1,0-0.3-0.1-0.4c0.1-0.1,0.3-0.3,0.6-0.5
			c0.3-0.2,0.5-0.4,0.5-0.5v-0.3v-0.3l-0.7-0.9v-0.2v-0.1c0-0.1,0.1-0.2,0.3-0.3c0.2-0.1,0.3-0.2,0.4-0.3l0.1-0.1l0.1,0.1
			c0.1,0,0.2,0.1,0.3,0.2c0.1,0.1,0.1,0.2,0.1,0.2h2.6c0,0.1,0,0.2,0.1,0.3c0.1,0.1,0.2,0.2,0.3,0.2c0.6,0,1.1-0.1,1.4-0.3
			c0.3-0.3,0.6-0.6,0.9-0.9s0.6-0.6,1-0.9c0.4-0.3,0.9-0.4,1.6-0.3c0.1,0,0.4,0.2,0.9,0.5c0.5,0.3,1,0.7,1.6,1.1
			c0.6,0.4,1.1,0.8,1.7,1.2c0.5,0.4,0.9,0.7,1.1,0.8c0.2,0.1,0.4,0.3,0.6,0.6c0.2,0.3,0.3,0.6,0.5,1c0.1,0.4,0.2,0.7,0.3,1.1
			s0.1,0.6,0,0.8c0.3,0,0.5,0.2,0.6,0.4c0.2,0.2,0.3,0.4,0.4,0.6c0.1,0.2,0.3,0.4,0.4,0.6c0.1,0.2,0.3,0.2,0.6,0.2
			c0,0.1,0,0.3,0.1,0.6c0.1,0.3,0.2,0.6,0.3,0.9c0.1,0.3,0.2,0.6,0.3,0.9c0.1,0.3,0.2,0.5,0.2,0.6V31v0.2l0.1,0.1
			c0,0,0.1,0.1,0.2,0.1v0.2c0,0,0,0.1,0.1,0.2c-0.4,0-0.8-0.1-1.2-0.3c-0.4-0.2-0.7-0.3-1.1-0.3c0,0,0.1,0.3,0.2,0.8
			c0.1,0.5,0.3,0.7,0.4,0.7h2.6c0.1,0,0.1,0.1,0.1,0.3c0,0.2-0.1,0.4-0.2,0.6c-0.1,0.2-0.2,0.4-0.3,0.6c-0.1,0.2-0.1,0.3-0.1,0.4
			l0.7,2.2c0.1,0.4,0.3,0.5,0.6,0.5c0.3,0,0.5,0.1,0.5,0.5c0,0.1-0.1,0.3-0.3,0.5c-0.2,0.3-0.3,0.5-0.2,0.6c0,0.2,0.2,0.4,0.3,0.5
			c0.2,0.1,0.4,0.3,0.5,0.4c0.2,0.1,0.3,0.2,0.5,0.4c0.2,0.2,0.2,0.3,0.2,0.5l-0.2,1.4c0,0.1,0.1,0.2,0.3,0.3
			c0.2,0.1,0.4,0.3,0.6,0.4c0.2,0.1,0.5,0.2,0.7,0.4c0.2,0.1,0.4,0.2,0.4,0.3c0,0,0,0.1,0,0.1c0,0,0,0.1,0,0.2
			c0.1,0.3,0.2,0.6,0.3,1.1c0.1,0.4,0.2,0.7,0.3,0.8c0,0.1,0.3,0.2,0.7,0.4c0.4,0.2,0.9,0.4,1.5,0.6c0.6,0.2,1.1,0.5,1.6,0.7
			c0.5,0.3,0.9,0.5,1.1,0.7c-0.4,0.1-0.6,0.2-0.7,0.4s-0.1,0.4,0,0.6c0,0.2,0.1,0.5,0.1,0.7c0,0.2,0,0.5-0.2,0.7
			c-0.2,0.2-0.5,0.4-1.1,0.5c-0.6,0.1-1.4,0.2-2.5,0.2c-0.3,0-0.5-0.1-0.6-0.2c-0.1-0.1-0.2-0.3-0.3-0.4c-0.1-0.2-0.2-0.3-0.3-0.5
			C182.1,49.9,182,49.7,181.8,49.6z M156.4,40.2c0.2,0.2,0.4,0.6,0.6,1.2c0.2,0.6,0.4,0.9,0.7,1c0.4,0.1,0.8,0.2,1.1,0.3
			c0.3,0.1,0.5,0.1,0.7,0.2c0.2,0,0.4,0,0.7,0.1c0.2,0,0.5,0,0.9,0c0.4,0,0.8,0,0.9-0.1c0.2-0.1,0.3-0.2,0.5-0.3
			c0.1-0.1,0.3-0.2,0.4-0.4c0.2-0.1,0.4-0.3,0.8-0.5c0.1,0,0.4-0.1,0.8-0.2c0.5-0.1,0.7-0.1,0.8-0.2c0.5-0.2,1-0.7,1.4-1.5
			c0.4-0.8,0.7-1.4,0.9-1.9c0.1-0.2,0.3-0.4,0.6-0.4c0.3-0.1,0.6-0.1,0.7-0.2v-0.1v-0.1c0,0-0.2-0.1-0.4-0.3
			c-0.2-0.1-0.3-0.2-0.3-0.3c0-0.1,0.1-0.3,0.3-0.5c0.2-0.2,0.4-0.4,0.4-0.4c0.4-1.1,0.7-2.5,0.9-4c0.2-1.5,0.4-2.8,0.4-3.9
			c0-0.6-0.1-1-0.4-1.4c-0.3-0.3-0.6-0.6-1.1-0.7c-0.4-0.2-0.9-0.3-1.4-0.3c-0.5,0-1-0.1-1.6-0.1c-0.1,0-0.5,0.1-1,0.4
			c-0.5,0.3-1,0.6-1.6,0.9c-0.6,0.3-1.1,0.6-1.5,0.9c-0.4,0.3-0.7,0.5-0.7,0.5c0,0.1,0,0.3-0.1,0.6c-0.1,0.3-0.2,0.5-0.2,0.6
			c-0.1,0-0.2,0.1-0.3,0.1c0,0-0.1,0.1-0.2,0.1c0,0-0.1,0-0.1,0.1l-1.3,1.2c0,0-0.1,0-0.1,0.1V31c0,0.2,0.1,0.4,0.2,0.4
			s0.2,0.3,0.2,0.6c0,0.3,0,0.6,0,0.8c0,0.2-0.1,0.4-0.1,0.6c-0.1,0.2-0.1,0.4-0.2,0.7c-0.1,0.3-0.2,0.6-0.3,1
			c-0.2,0.6-0.4,1-0.8,1.3c-0.4,0.3-0.7,0.5-1.1,0.6c-0.4,0.1-0.7,0.2-1,0.3s-0.4,0.2-0.4,0.4c0,0.4,0.1,0.7,0.3,0.8
			c0.2,0.1,0.5,0.2,0.8,0.3c0.3,0,0.6,0.1,0.9,0.1c0.3,0,0.5,0.2,0.6,0.5c-0.1,0.2-0.3,0.4-0.6,0.5C156.9,40,156.7,40.1,156.4,40.2z
			 M160.4,44.1c0.1-0.1,0-0.1-0.1-0.1c-0.2,0-0.2,0-0.2,0.1c0,0.1,0.1,0.1,0.2,0.1C160.4,44.3,160.4,44.2,160.4,44.1z M161.1,43.5
			c-0.2,0-0.3,0.1-0.3,0.3s0.1,0.3,0.3,0.3c0.2,0,0.3-0.1,0.3-0.3S161.3,43.5,161.1,43.5z M161.4,26.2h0.3v-0.3h-0.3V26.2z
			 M164.1,43.5c0.1-0.1,0.2-0.2,0.5-0.4c0.2-0.2,0.3-0.3,0.3-0.6h-0.8V43.5z M167.3,19.9c0-0.1,0-0.1-0.1-0.1c-0.1,0-0.2,0-0.2,0.1
			c0.1,0.1,0.2,0.1,0.2,0.1C167.3,20,167.3,20,167.3,19.9z M167,42.6h0.3v-0.3H167V42.6z M167.3,43.5c-0.2,0-0.3,0.1-0.3,0.3
			s0.1,0.3,0.3,0.3c0.2,0,0.3-0.1,0.3-0.3S167.5,43.5,167.3,43.5z M168,38.8c0,0.2,0.1,0.4,0.3,0.4s0.4,0.1,0.6,0.1h0.5l-0.3-1.2
			c-0.2,0-0.4,0.1-0.7,0.2C168.1,38.5,168,38.6,168,38.8z M168.3,20.1c-0.1,0-0.2,0.1-0.2,0.3c0,0.2,0.1,0.3,0.2,0.3
			c0.2,0,0.3-0.1,0.3-0.3C168.6,20.2,168.5,20.1,168.3,20.1z M172,41.8h0.6v-0.7H172V41.8z"/>
		<path class="st1" d="M202.1,67.5h-0.9c0,0.4,0,0.8,0,1.1c0,0.3-0.3,0.4-0.9,0.4c-0.2,0-0.6-0.1-1.2-0.3s-1.2-0.4-1.9-0.7
			c-0.6-0.3-1.2-0.5-1.7-0.8c-0.5-0.3-0.8-0.5-0.8-0.8c0,0.1-0.2,0.2-0.3,0.2s-0.3,0.1-0.3,0.2H194h-0.1c0-0.1-0.1-0.2-0.2-0.3
			c-0.1-0.1-0.1-0.2-0.1-0.3c0-0.1,0.2-0.4,0.4-0.8c0.2-0.4,0.4-0.6,0.5-0.7c0.4-0.5,0.8-0.9,1.2-1.1c0.4-0.2,0.8-0.5,1.2-1.1h-0.1
			c0,0-0.1,0-0.1-0.1c-0.2,0-0.5,0.1-0.9,0.2c0-0.5,0.2-0.9,0.6-1.3c0.4-0.4,0.8-0.7,1.2-0.9h0.1h0.1c0.2,0,0.4,0.1,0.6,0.3
			c0.2,0.2,0.4,0.3,0.5,0.4v0.1v0.1c-0.1,0-0.2,0.1-0.3,0.2c0,0-0.1,0.1-0.1,0.2v1.9l0.4,0.2l0.5-0.6c0,0.2,0.1,0.4,0.2,0.6
			c0.1,0.2,0.3,0.4,0.5,0.6c0.2-0.2,0.3-0.4,0.2-0.7c-0.1-0.3,0-0.5,0.2-0.8l0.5-0.1v1.5c0,0,0.1,0,0.1,0.1c0.1,0.1,0.2,0.1,0.2,0.1
			c0-0.1,0.1-0.2,0.4-0.5c0.2-0.2,0.4-0.3,0.4-0.3h0.5c0.4,0,0.6,0.1,0.6,0.3c0,0.2,0.1,0.4,0.1,0.6c0,0.2,0,0.4,0.1,0.6
			s0.3,0.3,0.7,0.3l0.3,0.8c0.1-0.1,0.2-0.3,0.3-0.7c0.1-0.4,0.2-0.6,0.3-0.7c0,0,0-0.2,0.1-0.4c0.1-0.2,0.1-0.4,0.2-0.4l0.1-0.1
			l0.1,0.1c0,0,0.1,0.2,0.2,0.3c0.1,0.2,0.1,0.3,0.2,0.3h0.3c0-0.1,0.1-0.2,0.2-0.4c0.1-0.2,0.1-0.3,0.1-0.3
			c0.1,0.2,0.3,0.3,0.6,0.3c0,0,0.1-0.2,0.2-0.4s0.2-0.3,0.2-0.3l0.1-0.1l0.1-0.1c0.3,0,0.4,0.1,0.5,0.3c0,0.2,0.1,0.4,0,0.6
			c0,0.2,0,0.5,0,0.8c0,0.3,0.1,0.5,0.2,0.6h0.2c0.2,0,0.3-0.1,0.5-0.3c0.2-0.2,0.3-0.4,0.5-0.6c0.2-0.2,0.3-0.5,0.5-0.6
			c0.2-0.2,0.4-0.3,0.7-0.3l0.1,0.1c0.1,0,0.2,0.2,0.3,0.4c0.1,0.2,0.2,0.4,0.3,0.4c0.1,0.1,0.3,0.3,0.7,0.7
			c0.4,0.4,0.6,0.6,0.7,0.7c0.1-0.3,0.2-0.6,0.3-0.9c0.1-0.3,0.1-0.5,0.1-0.7c0.3,0,0.7,0,1.1-0.1c0.4,0,0.9-0.1,1.3-0.3
			c0.4-0.1,0.7-0.3,1-0.6c0.3-0.2,0.4-0.6,0.4-1l-0.1-0.3c0-0.1-0.1-0.2-0.1-0.3c0-0.6,0-1.3,0.1-2.1c0-0.8,0.2-1.5,0.4-2.2
			c0.1,0.2,0.2,0.4,0.2,0.6c0,0.2,0.1,0.5,0.1,0.7c0.1,0.2,0.2,0.4,0.3,0.6c0.1,0.2,0.3,0.2,0.7,0.2h0.2v-0.1c0,0,0-0.1,0-0.1
			c0,0,0-0.1,0-0.1v-0.1v-0.1c0-0.1,0-0.3-0.1-0.6c-0.1-0.3-0.2-0.5-0.3-0.8s-0.2-0.5-0.3-0.7c-0.1-0.2-0.1-0.3-0.1-0.4
			c0,0-0.1-0.2-0.2-0.5c-0.1-0.3-0.2-0.4-0.3-0.4c0,0-0.1,0-0.1-0.1c0,0-0.1,0-0.1-0.1c0-0.2,0.1-0.3,0.3-0.3c0.2,0,0.3-0.2,0.3-0.6
			c0,0-0.1-0.2-0.2-0.4c-0.1-0.2-0.2-0.5-0.4-0.8c-0.2-0.3-0.3-0.6-0.4-0.8c-0.1-0.2-0.2-0.4-0.3-0.6V45c0,0-0.1,0-0.2,0
			c-0.1,0-0.2,0-0.2-0.1c-0.1-0.1-0.2-0.4-0.2-0.8c0-0.4-0.1-0.6-0.1-0.7c0,0,0-0.1,0.1-0.3c0.1-0.1,0.1-0.2,0.2-0.2v-0.5
			c0-0.2-0.1-0.4-0.2-0.5c-0.1-0.1-0.2-0.3-0.3-0.4c-0.1-0.1-0.2-0.3-0.3-0.4c-0.1-0.1-0.2-0.3-0.2-0.6c0.4,0,0.5,0.1,0.5,0.3
			c0,0.2,0.2,0.3,0.5,0.3h0.4c0-0.1-0.1-0.3-0.2-0.6c-0.1-0.3-0.2-0.5-0.2-0.6v-0.1c0-0.5,0.1-1,0.2-1.4c0.1-0.5,0.6-0.7,1.3-0.7
			c-0.8-0.1-1.4-0.4-1.7-0.7c-0.3-0.4-0.5-0.7-0.6-1.1c-0.1-0.4-0.2-0.8-0.2-1.1c-0.1-0.3-0.3-0.5-0.6-0.5c0.1-0.3,0.1-0.7,0-1.3
			c-0.1-0.6-0.2-1.2-0.3-1.8c-0.2-0.6-0.3-1.2-0.5-1.8c-0.2-0.5-0.4-0.9-0.5-1.1h-0.9l-0.3-0.2c-0.1,0-0.2-0.1-0.3-0.2
			c-0.1-0.1-0.2-0.1-0.3-0.1h-0.1c-0.2,0-0.3,0.1-0.5,0.2c-0.1,0.1-0.3,0.2-0.5,0.2c-0.5,0-1-0.1-1.5-0.4c-0.5-0.2-1-0.4-1.5-0.5
			c-0.2,0-0.6,0-1.1,0.1c-0.6,0.1-1,0-1.3-0.4c-0.1,0.1-0.4,0.3-0.9,0.6c-0.4,0.3-0.7,0.5-0.9,0.6c-0.1,0.1-0.3,0.1-0.5,0.2
			c-0.2,0-0.3,0-0.4,0c-0.5-0.1-0.8-0.5-0.8-1.1c0-0.2,0-0.4,0.1-0.6c0.1-0.2,0.1-0.4,0.1-0.6c-0.4,0-0.5,0.2-0.6,0.6
			c0,0.4-0.1,0.7-0.3,1.1c-0.1,0.2-0.3,0.5-0.5,0.9c-0.2,0.4-0.3,0.6-0.4,0.6H200v-1.5c-0.2,0-0.4,0.2-0.6,0.6
			c-0.2,0.4-0.3,0.8-0.5,1.2c-0.2,0.4-0.3,0.8-0.5,1.2c-0.2,0.4-0.4,0.6-0.7,0.6c-0.2,0-0.3,0-0.5-0.1c-0.1-0.1-0.3-0.1-0.5-0.1
			c-0.3,0.4-0.5,0.7-0.6,0.9c-0.1,0.2-0.3,0.4-0.4,0.6c-0.1,0.2-0.2,0.3-0.2,0.4c0,0.3,0.1,0.7,0.3,1.2c0.3,0.6,0.6,1.1,1,1.8
			c0.4,0.6,0.8,1.2,1.2,1.7c0.4,0.5,0.7,0.9,0.9,1c0.4,0.2,0.9,0.4,1.4,0.5c0.5,0.1,0.9,0.3,1.4,0.7c0,0,0.1,0.2,0.4,0.5
			c0.2,0.3,0.4,0.4,0.4,0.4h0.3c0.3,0,0.5-0.1,0.8-0.2c0.2-0.1,0.5-0.2,0.9-0.2c0.3,0,0.7,0,1.2,0c0.5,0,0.9,0.1,1.1,0.4
			c0,0,0.1,0.1,0.1,0.4c0,0.2,0.1,0.4,0.1,0.5h0.1c0.3,0,0.6-0.1,0.9-0.2c0.3-0.1,0.6-0.3,0.8-0.5c0.3-0.2,0.5-0.3,0.8-0.5
			c0.2-0.1,0.5-0.2,0.8-0.2c0,0.1,0,0.3,0.1,0.7c0,0.4,0.1,0.6,0.1,0.7c0,0,0.1,0.2,0.2,0.3c0.1,0.2,0.2,0.3,0.2,0.3v0.1
			c0,0.3-0.1,0.5-0.3,0.7c-0.2,0.2-0.4,0.4-0.5,0.5c-0.3-0.1-0.6-0.1-0.8,0c-0.2,0.1-0.5,0.1-0.8,0c0,0-0.1-0.1-0.1-0.2
			c0-0.2,0-0.3,0-0.5c0-0.2,0-0.4,0.1-0.7c0-0.1,0.1-0.2,0.2-0.4c0.1-0.2,0.2-0.2,0.2-0.2v-0.1v-0.2l-1.8,1.7c0,0-0.1,0-0.1,0.1
			c0,0.1,0,0.2,0,0.2c0,0.4,0.1,0.6,0.2,0.8c0.1,0.2,0.4,0.3,0.7,0.6c-0.1,0-0.2,0.1-0.3,0.2c-0.1,0.1-0.2,0.2-0.3,0.2v0.2v0.3
			c0.1,0,0.2,0.1,0.2,0.2c0,0.1,0.1,0.2,0.2,0.3l0.2,0.3c0,0,0,0.2-0.1,0.4c-0.1,0.2-0.1,0.4-0.1,0.4c-0.8-0.3-1.4-0.6-1.7-0.8
			c-0.4-0.2-0.6-0.5-0.7-0.7c-0.1-0.2-0.1-0.5-0.1-0.7c0.1-0.2,0.1-0.5,0.2-0.8h-0.2c-0.6,0.4-1.1,0.7-1.6,0.8
			c-0.5,0.1-1.2,0.2-2,0.2c-0.4,0-0.8-0.1-1.2-0.3c-0.4-0.2-0.7-0.4-1.1-0.6c-0.3-0.2-0.6-0.4-0.9-0.6c-0.3-0.2-0.6-0.3-0.8-0.3
			c-0.2,0-0.4,0-0.5,0c-0.1,0-0.2,0.1-0.5,0.2v-0.1v-0.1c0,0,0.1-0.2,0.2-0.5c0.1-0.3,0.2-0.5,0.2-0.6v-0.3c-0.4,0-0.7,0.1-0.9,0.2
			c-0.2,0.1-0.5,0.2-0.8,0.2v-0.7c-0.4,0.1-0.6,0.1-0.8,0.2c-0.2,0-0.4,0-0.6,0c-0.2,0-0.3-0.2-0.3-0.4V41c0,0,0.1-0.2,0.2-0.4
			c0.1-0.2,0.2-0.3,0.3-0.4c0-0.1,0-0.1-0.1,0c0,0.1-0.1,0.1-0.1,0.1c-0.1,0-0.3-0.1-0.5-0.2c-0.2-0.2-0.4-0.2-0.5-0.2
			c-0.1,0-0.2,0.1-0.3,0.4c-0.1,0.2-0.1,0.4,0,0.5c-0.1-0.3-0.2-0.5-0.3-0.7c0-0.2-0.1-0.3,0-0.5c0-0.2,0-0.3,0.1-0.5
			c0-0.2,0-0.5,0-0.8h-0.6v1.5c-0.5-0.3-0.8-0.6-1.1-1.1c-0.2-0.5-0.4-0.9-0.5-1.4h-0.1h-0.2l-0.1,0.1c0,0-0.1,0.1-0.1,0.1h-0.1
			h-0.1c0,0-0.2-0.1-0.3-0.2c-0.2-0.1-0.3-0.2-0.3-0.3c0-0.2,0-0.4,0-0.7c0-0.3,0-0.5,0-0.6c0-0.2,0-0.6,0-1.3c0-0.6,0-1.3,0.1-1.9
			c0.1-0.7,0.2-1.2,0.3-1.8c0.2-0.5,0.4-0.8,0.6-0.9c0.4,0,0.8,0,0.9,0c0.2,0.1,0.3-0.2,0.3-0.9c0,0,0-0.2-0.1-0.4
			c-0.1-0.2-0.1-0.4-0.1-0.4c0,0,0.1-0.2,0.3-0.4c0.2-0.2,0.4-0.4,0.5-0.5h0.1h0.2c0,0,0.1,0.2,0.2,0.3c0.1,0.2,0.2,0.3,0.3,0.4
			c-0.1-0.1-0.1-0.3,0-0.5c0.1-0.2,0.2-0.3,0.2-0.4c0.1,0,0.2,0,0.5,0.1c0.2,0,0.4,0,0.4-0.1c0.3-0.3,0.5-0.7,0.6-1.2
			c0.1-0.6,0.3-1,0.6-1.2c0.1-0.2,0.3-0.5,0.5-0.8c0.2-0.3,0.4-0.5,0.4-0.8c0-0.1,0-0.3,0-0.4c0-0.1-0.1-0.3-0.4-0.5
			c0.5-0.1,0.9-0.2,1.2-0.2c0.3,0,0.5-0.3,0.5-0.9h1.7c0,0,0,0.2-0.1,0.4c-0.1,0.2-0.1,0.4-0.1,0.5v0.1v0.1c0.2-0.1,0.3-0.2,0.5-0.4
			c0.1-0.2,0.3-0.4,0.4-0.6c0,0,0.1,0.1,0.2,0.2c0.1,0.1,0.2,0.2,0.2,0.3h0.3h0.1c0-0.1,0.1-0.2,0.2-0.2c0.1,0,0.2-0.1,0.3-0.1
			c-0.1,0-0.2-0.1-0.3-0.2c-0.1-0.1-0.2-0.2-0.2-0.2v-0.3c0-0.1,0.1-0.3,0.3-0.4c0.2-0.1,0.4-0.2,0.6-0.3v0.9c0,0.3,0,0.6-0.1,0.8
			c-0.1,0.2-0.1,0.4-0.1,0.7c0.3,0,0.5-0.1,0.6-0.3c0.1-0.2,0.2-0.4,0.2-0.7c0-0.2,0.1-0.5,0.2-0.7c0.1-0.2,0.3-0.3,0.6-0.3
			c0.4-0.1,0.7-0.1,0.8,0c0.1,0.1,0.3,0.2,0.4,0.4c0.1,0.2,0.2,0.3,0.3,0.4c0.1,0.1,0.3,0.2,0.7,0.2h0.1l0.1-0.3
			c0-0.1,0.1-0.2,0.1-0.2l0.1-0.1l0.1,0.1h0.1l0.3,0.3c0.1,0.1,0.2,0.2,0.2,0.3c0.1,0.1,0.1,0.2,0.2,0.2l0.1,0.1h0.1
			c0,0,0.1,0,0.1-0.1c0-0.1,0.1-0.2,0.2-0.2c0.1-0.1,0.2-0.1,0.2-0.1c0,0,0.1,0,0.2,0c0.1,0,0.1,0,0.2,0h0.1v1.1l0.1,0.1
			c0.1,0.1,0.2,0.1,0.3-0.1l0.1-0.1l0.1-0.1c0,0,0.1-0.1,0.1-0.2h0.1c0.2,0,0.4,0.2,0.6,0.5c0.2,0.3,0.3,0.5,0.4,0.6
			c0.2-0.1,0.3-0.3,0.4-0.6c0.1-0.3,0.2-0.4,0.5-0.5c0,0,0.2-0.1,0.5-0.2c0.3-0.1,0.5-0.1,0.6-0.2c0-0.1,0.1-0.2,0.2-0.3
			c0.1-0.1,0.1-0.2,0.2-0.2h0.1c0.3,0,0.5,0.2,0.5,0.5v0.3l-0.3,0.2c0,0.1,0,0.2,0.1,0.4c0.1,0.2,0.1,0.3,0.2,0.4c0,0,0-0.1,0.1-0.1
			c0.1,0,0.1-0.1,0.1-0.1h0.1h0.1c0.1,0.1,0.2,0.2,0.2,0.5c0,0.2,0.1,0.4,0.1,0.5c0,0,0,0.1,0.1,0.1h0.1c0.2,0,0.5-0.1,0.7-0.4
			c0.2-0.2,0.4-0.5,0.4-0.6c0,0,0-0.1,0-0.3c0-0.2-0.1-0.3-0.2-0.3h0.1c0.8,0,1.2,0.3,1.3,0.9c0.1,0.6,0.1,1.1-0.1,1.7
			c0.4-0.6,0.9-0.9,1.5-0.9V24c0,0-0.1,0.1-0.1,0.2l-0.1,0.3c0,0.3,0.1,0.4,0.2,0.5c0.1,0,0.3,0.1,0.5,0.1c0.2,0,0.4-0.1,0.5-0.2
			c0.1-0.1,0.2-0.3,0.3-0.5c0.1-0.2,0.1-0.3,0.2-0.5c0-0.1,0.1-0.2,0.3-0.2c0.2,0,0.3,0.1,0.5,0.4c0.1,0.3,0.2,0.6,0.3,1
			c0.1,0.4,0.1,0.7,0.1,1.1c0,0.4,0,0.6,0,0.7c0.4-0.1,0.9-0.1,1.5-0.2c0.6,0,1,0.2,1.3,0.7c0.1,1,0.3,1.9,0.5,2.8
			c0.3,0.9,0.4,1.8,0.4,2.7c0,0.5-0.1,0.8-0.3,1.1c-0.2,0.2-0.3,0.5-0.3,0.9v0.2c0,0.1,0,0.3,0.1,0.7c0,0.4,0.1,0.6,0.1,0.7h0.2h0.1
			c0.1-0.1,0.2-0.2,0.3-0.2c0.1,0,0.2-0.1,0.3-0.1v0.3c0,0.2,0,0.4-0.1,0.5c-0.1,0.1-0.1,0.3-0.1,0.5h0.9c0,0.5-0.1,1-0.3,1.5
			s-0.3,1-0.3,1.5s0.1,0.8,0.2,0.9s0.3,0.2,0.5,0.3c0.2,0,0.3,0.1,0.5,0.2c0.2,0.1,0.2,0.3,0.2,0.6c0,0.4-0.1,0.6-0.4,0.6
			c-0.3,0-0.4,0.1-0.4,0.4c0,0.3,0.2,0.6,0.7,1.1c0.5,0.5,0.7,1.1,0.7,1.8c0,0.6-0.1,1.1-0.4,1.4c-0.2,0.3-0.5,0.5-0.8,0.7
			c-0.3,0.2-0.6,0.4-0.8,0.5c-0.2,0.2-0.4,0.5-0.4,0.9c0,0.1,0,0.3,0.1,0.4c0.1,0.1,0.3,0.2,0.6,0.2c-0.2,0.2-0.3,0.4-0.3,0.7v0.3
			c0,0.1,0,0.3,0,0.6c0,0.3,0.1,0.6,0.1,0.9c0,0.3,0.1,0.6,0.1,0.8c0,0.3,0,0.4,0,0.5c0,0-0.1,0.1-0.3,0.3c-0.2,0.1-0.3,0.2-0.3,0.3
			v0.2V55l0.1,0.3c0,0.1,0.1,0.2,0.2,0.2v0.2c0,0.7,0,1.6-0.1,2.7c0,1.1-0.1,2-0.2,2.7c-0.1,0.1-0.3,0.5-0.6,1
			c-0.3,0.5-0.5,0.9-0.6,1c0,0.3-0.3,0.7-0.6,1.1c-0.4,0.4-0.6,0.7-0.7,0.9c-0.2,0.3-0.5,0.4-0.7,0.3c-0.3-0.1-0.5,0-0.7,0.3
			c0,0-0.1,0.2-0.3,0.5s-0.2,0.6-0.3,0.7c-0.1,0-0.2,0-0.2,0.1c-0.1,0.1-0.2,0.2-0.2,0.2c0,0-0.1,0.1-0.2,0.1
			c-0.1,0-0.1,0.1-0.2,0.2c-0.1,0.1-0.2,0.2-0.3,0.2c-0.2-0.1-0.4-0.4-0.5-0.7c-0.1,0-0.2,0.1-0.4,0.3c-0.2,0.2-0.4,0.4-0.6,0.6
			c-0.2,0.2-0.4,0.4-0.6,0.6c-0.2,0.2-0.4,0.3-0.5,0.3c-0.1,0-0.4,0.1-0.8,0.3c-0.5,0.2-0.7,0.3-0.8,0.3c0,0-0.1,0.1-0.1,0.3
			c0,0.2-0.1,0.3-0.1,0.3c-0.1,0.1-0.3,0.2-0.5,0.3c-0.3,0.1-0.5,0.2-0.8,0.4c-0.3,0.1-0.6,0.2-0.8,0.3c-0.2,0.1-0.4,0.1-0.4,0.1
			h-0.3c0,0-0.1-0.1-0.1-0.3c0-0.2-0.1-0.3-0.1-0.4c-0.1,0.4-0.3,0.6-0.5,0.6c-0.2,0-0.4,0.1-0.6,0.1c-0.5,0-1.1,0-1.9,0
			c-0.8,0-1.3-0.1-1.8-0.2c-0.4-0.1-0.7-0.3-0.9-0.5c-0.2-0.2-0.4-0.4-0.5-0.6c-0.2-0.2-0.4-0.4-0.7-0.5c-0.3-0.1-0.8-0.2-1.5-0.2
			V67.5z M191.4,33c-0.2,0-0.3,0.1-0.3,0.3c0,0.2,0.1,0.3,0.3,0.3c0.1,0,0.2-0.1,0.2-0.3C191.6,33.1,191.5,33,191.4,33z M191.4,65.5
			c0-0.4,0.1-0.6,0.2-0.8s0.3-0.5,0.6-0.8c0.4,0.1,0.8,0.1,1.1-0.1c0.3-0.2,0.5-0.5,0.7-0.8c0.2-0.3,0.4-0.6,0.6-0.9
			c0.2-0.3,0.5-0.4,0.8-0.4c0,0-0.1,0.1-0.1,0.1V62c-0.1,0.3-0.3,0.5-0.5,0.8c-0.2,0.3-0.5,0.5-0.8,0.8c-0.3,0.3-0.5,0.5-0.8,0.7
			c-0.2,0.2-0.4,0.3-0.6,0.4c0,0,0.1,0,0.2,0.1C193,64.9,193,65,193,65v0.3c0,0.2-0.1,0.4-0.3,0.6c-0.2,0.2-0.5,0.3-0.8,0.3
			c-0.3,0-0.4-0.1-0.5-0.2C191.4,65.9,191.4,65.7,191.4,65.5z M196.1,65.5c0,0.5,0.1,0.9,0.3,1.3c0.1-0.1,0.2-0.2,0.3-0.3
			c0.1-0.1,0.1-0.2,0.1-0.3l0.1-0.1c0-0.3-0.1-0.4-0.3-0.5C196.4,65.5,196.2,65.5,196.1,65.5z M197.7,29.3c0,0.2,0,0.4,0.1,0.5
			c0.1,0.1,0.2,0.3,0.3,0.4c0.1,0,0.2-0.1,0.2-0.2c0-0.1,0.1-0.2,0.1-0.3C198.3,29.4,198.1,29.3,197.7,29.3z M198.9,25.8l0.2,0.3
			l0.1,0.1c0,0,0.1,0,0.1,0c0,0,0.1,0,0.1,0c0.4-0.6,0.5-1.1,0.5-1.7c-0.3,0-0.5,0.1-0.8,0.4c-0.2,0.3-0.4,0.5-0.4,0.7V25.8z
			 M199.3,43c-0.1,0-0.1,0.1-0.1,0.3c0,0.2,0,0.3,0.1,0.3c0.2,0,0.3-0.1,0.3-0.3C199.6,43.1,199.5,43,199.3,43z M199.5,22.8
			c0.4,0,0.7,0.2,1,0.5c0.3,0.4,0.5,0.7,0.7,1.1c0.1,0,0.2-0.2,0.3-0.4c0.1-0.2,0.1-0.3,0.1-0.4c-0.1-0.1-0.3-0.3-0.6-0.8
			c-0.3-0.4-0.6-0.6-0.9-0.6c-0.1,0-0.2,0.1-0.3,0.2C199.5,22.6,199.5,22.7,199.5,22.8z M200.7,67.5c0.3,0,0.4-0.1,0.5-0.2
			s0.1-0.3,0.1-0.4c0-0.1,0.1-0.3,0.2-0.4c0.1-0.1,0.3-0.2,0.7-0.2c0-0.2-0.1-0.3-0.2-0.5c-0.2-0.2-0.3-0.2-0.4-0.2
			c-0.2,0-0.4,0.1-0.5,0.2c-0.2,0.2-0.3,0.3-0.5,0.5s-0.3,0.5-0.5,0.8C200.1,67.4,200.3,67.5,200.7,67.5z M202.5,23.5
			c-0.2,0-0.3,0.1-0.5,0.2h0.5V23.5z M202.5,67.2c0,0.3,0.1,0.6,0.3,0.7v-0.7H202.5z M203.1,21.2c0,0.1,0,0.2,0,0.4
			c0,0.2,0.1,0.3,0.3,0.4v-0.5c0-0.1,0-0.3,0-0.5c0-0.2-0.1-0.3-0.3-0.3c0,0-0.1,0.1-0.1,0.2V21.2z M204.2,43
			c-0.3,0-0.5,0.1-0.6,0.3h0.6V43z M205.4,23c-0.4,0-0.6,0.2-0.6,0.6c0,0.4-0.1,0.7-0.1,0.9c0,0,0,0.1,0,0.2c0,0.1,0,0.2,0,0.2
			c0.2-0.2,0.4-0.5,0.5-0.8C205.4,23.7,205.4,23.3,205.4,23z M205.4,24.6c-0.1,0-0.2,0.1-0.2,0.3c0,0.2,0.1,0.3,0.2,0.3
			c0.2,0,0.3-0.1,0.3-0.3C205.6,24.7,205.6,24.6,205.4,24.6z M206.8,41.7c-0.2,0-0.3,0.1-0.3,0.3c0,0.2,0.1,0.3,0.3,0.3
			c0.1,0,0.2-0.1,0.2-0.3C207,41.8,207,41.7,206.8,41.7z M207.3,25.4c-0.5,0.3-0.7,0.7-0.7,1.2c0.3,0,0.5-0.1,0.7-0.3
			c0.2-0.2,0.3-0.4,0.3-0.6C207.6,25.6,207.5,25.4,207.3,25.4z M206.9,23.7c0,0.2,0.1,0.4,0.2,0.7c0.1,0.2,0.3,0.3,0.5,0.3
			c0.1,0,0.2-0.1,0.2-0.3c0.1-0.2,0.1-0.3,0.2-0.3v-0.3H206.9z M208,43.9c0.7,0.3,1.3,0.3,1.9,0c0.6-0.3,1.2-0.5,1.7-0.6
			c0.2,0,0.4,0.1,0.6,0.2v0.1c0,0.3-0.2,0.6-0.6,0.8c-0.4,0.2-0.7,0.4-0.9,0.7c0,0.1,0,0.3-0.1,0.5s-0.1,0.4-0.1,0.4
			c-0.1,0.1-0.4,0.2-0.7,0.3c-0.4,0.1-0.6,0.1-0.7,0c-0.2-0.2-0.4-0.6-0.6-1.2C208.2,44.5,208,44.1,208,43.9z M208.5,26.9v-0.7
			l-0.3,0.4L208.5,26.9z M208.7,25.2v-0.3h-0.2L208.7,25.2z M208.5,67.2h0.2v-0.8h-0.2V67.2z M209.4,23.6c-0.1-0.1-0.1,0-0.1,0.2
			c0,0.2,0,0.3,0.1,0.2c0.1,0,0.1-0.1,0.1-0.2C209.5,23.7,209.4,23.6,209.4,23.6z M209.8,24.9c0,0-0.1,0-0.1,0.1
			c0,0.1,0,0.2,0.1,0.2c0.1,0,0.1,0,0.1-0.1S209.9,24.9,209.8,24.9z M211.3,24.8c-0.3,0-0.5,0.1-0.6,0.3c-0.1,0.2-0.2,0.4-0.2,0.7
			C211.1,25.8,211.3,25.4,211.3,24.8z M211.9,26c-0.2,0.1-0.4,0.3-0.6,0.6c-0.2,0.3-0.3,0.6-0.3,0.8c0.2,0,0.5-0.1,0.8-0.3
			c0.3-0.2,0.4-0.4,0.4-0.6C212.1,26.3,212,26.1,211.9,26z M211.1,22.8c0,0.1,0,0.3,0.1,0.5c0.1,0.2,0.2,0.3,0.5,0.3h0.1
			C211.8,23.1,211.5,22.8,211.1,22.8z M214.1,24.9c-0.1,0.1-0.2,0.2-0.2,0.3c-0.1,0.1-0.1,0.2-0.1,0.3h0.3V24.9z M213.8,27.4
			c0.1,0.2,0.3,0.4,0.5,0.6c0.2,0.2,0.5,0.4,0.8,0.4c0-0.3-0.1-0.7-0.3-1.2c-0.2-0.6-0.4-0.9-0.7-1c0,0.1-0.1,0.2-0.2,0.5
			c-0.1,0.2-0.1,0.4-0.1,0.4v0.2V27.4z M216,25.8C216,25.7,216,25.7,216,25.8c-0.1,0.3,0,0.3,0,0.3c0.1,0,0.1-0.1,0.1-0.2
			S216.1,25.8,216,25.8z M216,28.3h0.3v-0.5H216V28.3z M216.9,37h0.3v-0.3h-0.3V37z M217.2,47.4c-0.1,0-0.2,0.1-0.2,0.3
			c0,0.2,0.1,0.3,0.2,0.3c0.2,0,0.3-0.1,0.3-0.3C217.4,47.5,217.4,47.4,217.2,47.4z M217.2,30.7c0,0.1,0.1,0.2,0.2,0.3
			c0.1,0.1,0.3,0.1,0.4,0.1v-0.9c-0.1,0-0.3,0-0.4,0.1C217.2,30.4,217.2,30.5,217.2,30.7z M217.8,27.8c-0.1,0-0.2,0.1-0.2,0.2
			c0,0.2,0.1,0.2,0.2,0.2c0.1,0,0.1-0.1,0.1-0.2C217.9,27.9,217.9,27.8,217.8,27.8z M218.7,61.7c-0.4,0.1-0.6,0.2-0.8,0.3
			c-0.2,0.1-0.2,0.3-0.2,0.7c0.1,0,0.3-0.1,0.4-0.3c0.2-0.2,0.3-0.3,0.6-0.4v-0.1V61.7z M218.3,46.8c0-0.1-0.1-0.1-0.2-0.1
			c-0.1,0-0.2,0-0.2,0.1s0.1,0.1,0.2,0.1C218.2,46.9,218.3,46.9,218.3,46.8z M220.2,27.8h0.3v-0.4L220.2,27.8z M220.2,31.9h0.3
			l-0.3-0.3V31.9z M221.6,28.5c-0.1,0-0.2,0.1-0.2,0.3c0,0.2,0.1,0.3,0.2,0.3c0.2,0,0.3-0.1,0.3-0.3C222,28.6,221.8,28.5,221.6,28.5
			z M222.1,48.8c-0.1,0-0.1,0.1-0.1,0.2c0,0.2,0,0.2,0.1,0.2c0.2,0,0.3-0.1,0.3-0.2C222.4,48.9,222.3,48.8,222.1,48.8z M222.1,47.9
			h0.3v-0.3L222.1,47.9z M222.9,42.4c0,0.1,0,0.4,0.1,0.7s0.1,0.5,0.1,0.6c0,0.1,0,0.2,0.1,0.3c0,0,0.1,0.1,0.2,0.1v-0.3
			c0-0.1,0-0.2,0-0.2c0,0,0-0.1,0-0.1c0-0.2,0-0.5-0.1-0.7c-0.1-0.2-0.2-0.4-0.4-0.6v0.1V42.4z M223.5,44.7c0,0.1,0,0.2,0.1,0.2
			c0,0.1,0,0.2,0.1,0.5c0.1,0.2,0.2,0.4,0.2,0.4c0.1,0,0.3-0.1,0.6-0.2s0.4-0.3,0.5-0.5c-0.1-0.1-0.3-0.3-0.6-0.4s-0.6-0.2-0.9-0.2
			V44.7z M223.6,47.4h0.3v-0.6h-0.3V47.4z M223.9,42.6c0,0,0,0.1,0.1,0.2c0,0,0.1,0.1,0.1,0.2c0-0.1,0.1-0.2,0.1-0.2
			c0.1-0.1,0.1-0.2,0.1-0.2c0-0.1,0-0.2-0.1-0.2s-0.1-0.1-0.1-0.2c0,0-0.1,0-0.1,0.1l-0.1,0.1l-0.1,0.1L223.9,42.6z"/>
		<path class="st1" d="M238.9,51.8c-0.2,0-0.4,0-0.4-0.1s-0.2,0-0.4,0.3c0-0.2-0.1-0.5-0.2-1c-0.1-0.5-0.2-0.8-0.4-1V47
			c-0.1-0.2-0.2-0.5-0.3-0.7c-0.1-0.3-0.1-0.5-0.1-0.7c0-0.3,0.2-0.5,0.5-0.7c0.3-0.2,0.5-0.5,0.5-0.9c0-0.1,0-0.5-0.1-1
			c-0.1-0.6-0.1-0.9-0.2-1c0,0-0.2-0.2-0.4-0.5c-0.2-0.3-0.3-0.4-0.3-0.5c0,0-0.1-0.2,0-0.5c0-0.3,0.1-0.6,0.2-0.8
			c0,0,0.1,0,0.1-0.1s0-0.1,0.1-0.1s0.1-0.1,0.1-0.2v-0.1V39c-0.2-0.7-0.4-1.3-0.5-2s-0.2-1.3-0.2-2.1c0-0.1,0.1-0.2,0.1-0.3
			c0-0.1,0.1-0.2,0.1-0.2c0,0,0.1-0.1,0.1-0.1v-0.9c0-0.3,0-0.6-0.1-1.1c0-0.4-0.1-0.9-0.2-1.4c-0.1-0.5-0.3-0.9-0.5-1.3
			c-0.2-0.4-0.5-0.6-0.8-0.8c0,0-0.1,0.1-0.2,0.1c0,0-0.1,0.1-0.2,0.1H235c-0.1,0-0.2,0-0.3-0.1l-0.3-0.1h-0.2
			c-0.3,0-0.6,0.1-0.7,0.2c-0.1-0.4-0.2-0.9-0.4-1.3c-0.2-0.4-0.6-0.6-1.1-0.4c0-0.2-0.2-0.6-0.3-1c-0.2-0.5-0.4-0.8-0.7-0.9
			c0.7-0.4,1-0.8,1.1-1.4c0.1-0.6,0.1-1.2,0.1-1.8c-0.1,0-0.2,0-0.4,0.1c-0.2,0.1-0.2,0-0.2-0.3c0-0.1,0-0.3,0-0.5
			c0-0.3,0-0.4,0-0.5c0-0.2,0-0.5,0-0.9c0-0.4,0.1-0.6,0.3-0.8c0.2,0,0.3,0.2,0.3,0.4c0,0.2,0,0.4-0.1,0.7c0,0.2-0.1,0.5-0.1,0.7
			s0.1,0.3,0.3,0.3c0.2,0,0.4-0.1,0.5-0.2l0.2,0.9c0.1,0,0.2-0.1,0.3-0.2c0.1-0.1,0.2-0.2,0.3-0.3v-0.1v-0.1c0,0-0.1-0.2-0.2-0.4
			c-0.1-0.2-0.1-0.3-0.1-0.4v-0.1v-0.1c0.1-0.1,0.2-0.2,0.4-0.5c0.2-0.2,0.4-0.3,0.6-0.3v0.3c0,0-0.1,0.1-0.2,0.3
			c-0.1,0.1-0.1,0.2-0.1,0.3c0,0.1,0.1,0.2,0.2,0.4s0.2,0.3,0.3,0.4c0.7-0.1,1.2-0.2,1.6-0.3c0.4-0.1,0.7-0.5,1-1.2
			c0.3,0,0.5,0.1,0.7,0.2c0.2,0.2,0.3,0.3,0.4,0.5c0.1,0.2,0.2,0.4,0.3,0.5c0.1,0.2,0.2,0.2,0.4,0.2c0.3,0,0.4-0.1,0.5-0.3
			c0.1-0.2,0.2-0.3,0.5-0.3c0,0.9,0.2,1.5,0.5,1.8c0.3,0.3,0.7,0.5,1.1,0.5c0.4,0.1,0.8,0.1,1.1,0.1c0.3,0,0.5,0.2,0.6,0.6
			c0.1-0.2,0.3-0.4,0.7-0.6c0.4-0.2,0.7-0.4,0.8-0.4c0.1,0,0.3,0,0.6,0c0.3,0,0.5,0,0.6,0c0.5-0.2,1-0.6,1.6-1.2
			c0.6-0.6,1-1,1.2-1.4c0,0,0.1,0,0.1-0.1c0-0.1,0.1-0.1,0.1-0.1c0.1,0,0.3,0,0.5,0c0.3,0,0.4,0,0.5,0c0.1,0,0.3-0.2,0.5-0.5
			c0.2-0.3,0.4-0.4,0.5-0.5h0.1c0,0,0.1,0,0.1,0c0,0,0,0,0.1,0l0.1,0.1c0,0,0.1,0,0.3,0.1s0.2,0.1,0.3,0.1h0.1h0.1
			c0,0,0.2,0,0.4-0.1c0.2-0.1,0.3-0.1,0.4-0.1c0,0,0.2,0.1,0.3,0.4c0.2,0.2,0.3,0.4,0.3,0.4c0.2,0.1,0.5,0.2,0.9,0.2
			c0.4,0,0.7,0.1,0.8,0.1c0,0.2,0.1,0.4,0.2,0.7c0.1,0.2,0.2,0.5,0.2,0.9h0.3c0,0,0.2,0,0.3-0.1c0.2-0.1,0.3-0.1,0.3-0.1h0.2
			c0.2,0,0.3,0.1,0.5,0.3c0.1,0.2,0.3,0.4,0.4,0.7c0.1,0.3,0.2,0.5,0.4,0.8c0.2,0.3,0.4,0.5,0.6,0.7l0.1,0.1h0.1
			c0,0.1,0,0.2-0.1,0.5c-0.1,0.2-0.1,0.4-0.1,0.4v0.2c0,0,0,0.1,0.1,0.1l0.2,0.1l0.1-0.1c0,0,0.1-0.1,0.1-0.1c0,0,0-0.1,0.1-0.1
			c0-0.1,0.1-0.2,0.2-0.2l0.1-0.1l0.1,0.1c0.1,0.1,0.2,0.2,0.5,0.4c0.2,0.2,0.3,0.3,0.3,0.4v2.2l-0.2,0.3c-0.2,0.1-0.5,0-0.9-0.3
			c-0.4-0.3-0.6-0.6-0.7-0.7c0,0.1-0.1,0.2-0.1,0.3c0,0.1-0.1,0.2-0.1,0.3v0.1v0.1c0,0.1,0.1,0.3,0.1,0.8c0,0.4,0.1,0.7,0.1,0.8V29
			c0,0-0.1,0.2-0.3,0.4c-0.2,0.2-0.4,0.4-0.7,0.7c-0.3,0.2-0.5,0.5-0.7,0.6c-0.2,0.2-0.4,0.3-0.4,0.3c-0.3,0-0.5-0.1-0.7-0.3
			c-0.1-0.2-0.3-0.4-0.4-0.6c-0.1-0.2-0.2-0.4-0.3-0.7c-0.1-0.2-0.3-0.4-0.5-0.4c-0.1,0-0.4,0.1-0.8,0.2c-0.4,0.1-0.7,0.2-0.8,0.3
			c-0.2-0.3-0.4-0.6-0.4-0.7c0-0.2-0.1-0.4-0.1-0.7c0-0.3,0-0.5,0.1-0.7c0-0.2,0.2-0.4,0.4-0.6h-0.6c-0.3,0-0.5,0-0.6,0.1
			c-0.1,0.1-0.2,0.1-0.4,0.1c-0.3,0-0.5,0-0.5-0.1c0-0.1-0.3-0.1-0.7-0.1c-0.7,0-1.2,0.2-1.5,0.6c-0.3,0.4-0.6,1-0.7,1.6l0.1,0.3
			c0,0.1,0.1,0.2,0.1,0.2c0,0,0,0.1-0.1,0.1l-0.2,0.2l-0.1,0.1c-0.2,0-0.3-0.1-0.3-0.2c0-0.1-0.1-0.2-0.2-0.4
			c-0.1-0.2-0.2-0.3-0.4-0.4c-0.2-0.1-0.5-0.2-0.9-0.2c-0.1,0-0.3,0.1-0.7,0.4c-0.4,0.3-0.5,0.5-0.5,0.8V30l0.3,0.3v0.2
			c0,0,0,0.1,0.1,0.1h-0.4c0,0-0.1-0.1-0.2-0.2c-0.1-0.1-0.2-0.2-0.2-0.2l-0.1-0.1c-0.4,0-0.6,0.2-0.8,0.5c-0.2,0.3-0.3,0.7-0.3,1
			c0,0.2,0.2,0.4,0.5,0.5c0.4,0.1,0.6,0.1,0.9,0c-0.2,0.4-0.3,0.8-0.4,1.1c-0.1,0.3-0.1,0.7-0.1,1.1c0,0.2,0,0.3,0.1,0.4
			c0.1,0.1,0.1,0.3,0.1,0.5c0,0.2,0,0.4-0.1,0.4c-0.1,0-0.1,0.1-0.1,0.3v0.3c0,0,0.1,0.1,0.3,0.2c0.1,0.1,0.2,0.2,0.2,0.2l-0.1,0.3
			c0,0.1-0.1,0.2-0.1,0.2v0.1c0,0.3,0.1,0.7,0.4,1.3c0.3,0.6,0.4,1,0.4,1.4c0,0.1,0,0.3,0,0.5c0,0.2-0.1,0.5-0.1,0.7
			c-0.1,0.2-0.2,0.4-0.3,0.6c-0.1,0.2-0.3,0.2-0.4,0.2v0.7c0,0.7,0.1,1.5,0.4,2.5c0.3,1,0.4,1.8,0.4,2.4c0,0.5-0.1,0.9-0.3,1.1
			s-0.4,0.4-0.6,0.5c-0.2,0.1-0.4,0.1-0.6,0.2c-0.2,0-0.3,0.1-0.3,0.3c0,0.2,0.1,0.4,0.2,0.6c0.1,0.2,0.2,0.3,0.2,0.4
			c0,0.5-0.1,0.8-0.4,1c-0.3,0.2-0.6,0.4-0.9,0.5c-0.4,0.1-0.7,0.3-1.1,0.4c-0.4,0.1-0.7,0.3-1,0.6c0,0-0.1,0.1-0.2,0.2
			c-0.1,0.1-0.1,0.2-0.1,0.2h-0.1h-0.1l-0.5-0.5c0,0-0.1,0-0.1-0.1c0,0-0.1,0-0.1-0.1v0.1c-0.1,0-0.2,0.1-0.4,0.3
			c-0.2,0.2-0.3,0.3-0.3,0.4c0,0-0.1,0-0.1-0.1c0-0.1,0-0.2,0-0.2c0-0.4,0.1-0.7,0.4-0.8C238.7,52.4,238.9,52.2,238.9,51.8z
			 M233,23.1c-0.1,0-0.1,0.1-0.1,0.2c0,0.2,0,0.2,0.1,0.2c0.2,0,0.3-0.1,0.3-0.2C233.2,23.2,233.1,23.1,233,23.1z M234,21.9
			c-0.1,0-0.1,0-0.1,0.1c0,0.1,0,0.2,0.1,0.2c0.1,0,0.1,0,0.1-0.1S234.1,21.9,234,21.9z M237.7,23.5c-0.3,0-0.5,0.1-0.5,0.4
			c0,0.2-0.1,0.5-0.1,0.6h0.4l0.3-0.9L237.7,23.5z M237.8,40.8l0.3-0.5h-0.3V40.8z M239.3,49.8c-0.4-0.1-0.6,0.1-0.6,0.5
			c0,0.4-0.1,0.6-0.1,0.7h0.5c0-0.1,0-0.2,0.1-0.3c0-0.1,0.1-0.2,0.1-0.3s0-0.2,0.1-0.3V49.8L239.3,49.8z M238.8,38.2h0.3v-0.3h-0.3
			V38.2z M240,49.2c0,0.3,0.1,0.5,0.3,0.5v-0.5H240z M241,41c-0.1,0-0.1,0.1-0.1,0.3c0,0.2,0,0.3,0.1,0.3c0.1,0,0.1-0.1,0.1-0.3
			C241.2,41.1,241.1,41,241,41z M243.4,41.7c-0.1,0.1-0.2,0.2-0.3,0.4c0,0.2-0.1,0.3-0.1,0.4h0.3V41.7z M243.6,48.3
			c-0.1,0-0.1,0-0.1,0.1c0,0.1,0,0.1,0.1,0.1c0.1,0,0.1-0.1,0.1-0.1C243.8,48.3,243.7,48.3,243.6,48.3z M244.2,41v-0.2H244L244.2,41
			z M244.6,26.4c-0.1,0-0.2,0.1-0.2,0.3c0,0.2,0.1,0.3,0.2,0.3c0.1,0,0.1-0.1,0.1-0.3C244.7,26.5,244.6,26.4,244.6,26.4z
			 M250.5,26.1v-0.4l-0.3,0.2L250.5,26.1z M251.6,25.5c0,0.1,0.1,0.2,0.2,0.2c0.1,0,0.2,0.1,0.3,0.1v-0.3H251.6z M255.8,25.7
			c-0.1,0-0.1,0.1-0.1,0.2c0,0.1,0,0.2,0.1,0.2c0.1,0,0.2-0.1,0.2-0.2C256,25.8,256,25.7,255.8,25.7z M256.3,27.4v-0.2h-0.2
			L256.3,27.4z M256.9,26.7h0.4l-0.4-0.3V26.7z"/>
		<path class="st1" d="M294.3,49.6c-0.4,0-0.8,0-1.3-0.1c-0.5-0.1-1-0.2-1.6-0.4c-0.5-0.2-1-0.4-1.5-0.7c-0.4-0.3-0.8-0.6-0.9-0.9
			v-0.3c-0.1-0.7-0.3-1.2-0.6-1.6c-0.3-0.4-0.6-0.7-0.9-0.9c-0.3-0.2-0.6-0.5-0.9-0.7c-0.3-0.2-0.5-0.5-0.6-0.8c0-0.1-0.1-0.2,0-0.4
			c0-0.2,0-0.3,0-0.5c0-0.2,0-0.3-0.1-0.3c-0.1-0.1-0.3-0.1-0.5,0c0,0-0.1,0.2-0.2,0.4c-0.1,0.2-0.1,0.4-0.2,0.5
			c-0.1,0.3-0.3,0.5-0.5,0.8c-0.3,0.3-0.6,0.6-0.9,0.8c-0.3,0.3-0.6,0.5-0.9,0.8c-0.2,0.3-0.4,0.6-0.4,0.9v0.3
			c0.1,0,0.3-0.1,0.5-0.2c0.2-0.1,0.4-0.1,0.5-0.1c0,0,0.1,0,0.2,0.1c0.1,0.1,0.1,0.2,0.2,0.2v0.1c0,0,0,0.1,0.1,0.1
			c0,0.2,0,0.3-0.1,0.4c-0.1,0-0.2,0-0.3,0c-0.1,0-0.2,0-0.3,0.1c-0.1,0.1-0.1,0.2-0.1,0.5c0,0-0.1,0.1-0.3,0.4
			c-0.2,0.3-0.3,0.4-0.3,0.4c0-0.1-0.2-0.1-0.5-0.1c-0.3,0-0.5,0-0.5,0c-0.2-0.4-0.4-0.5-0.5-0.5c-0.1,0-0.3,0.1-0.7,0.1
			c-0.2,0.3-0.4,0.5-0.8,0.6c-0.4,0.1-0.7,0.2-1.1,0.4c-0.4,0.1-0.7,0.3-1,0.5c-0.3,0.2-0.4,0.4-0.4,0.7h-3.7c0,0.2-0.1,0.3-0.3,0.3
			s-0.3,0-0.5,0c-1.1,0-2.1-0.2-3.1-0.7s-1.4-1.2-1.4-2.4c0-0.4,0-0.8,0-1.1c0-0.3,0.1-0.7,0.4-1.1c-0.1-0.1-0.3-0.2-0.5-0.2
			c-0.2-0.1-0.4-0.1-0.5-0.1c-0.1,0-0.3,0-0.5,0.1c-0.2,0.1-0.4,0.1-0.5,0.2c0.1,0.1,0.2,0.2,0.2,0.4s0.1,0.3,0.1,0.4
			c0,0,0,0.1,0,0.2c0,0.1,0,0.2,0,0.2c-0.5,0-0.9-0.2-1.2-0.5c-0.2-0.3-0.4-0.7-0.5-1.1c-0.1-0.4-0.2-0.9-0.2-1.4
			c0-0.5,0-0.9-0.1-1.2c0,0,0-0.2-0.1-0.3c-0.1-0.2-0.2-0.4-0.3-0.6c-0.1-0.2-0.3-0.4-0.4-0.6c-0.1-0.2-0.2-0.3-0.2-0.3
			c0-0.1-0.1-0.4-0.2-0.7c-0.1-0.3-0.1-0.7-0.2-1c-0.1-0.4-0.1-0.7-0.2-1c-0.1-0.3-0.1-0.5-0.1-0.7c0.1,0,0.2-0.1,0.4-0.3
			c0.2-0.1,0.3-0.2,0.3-0.3v-0.1c0-0.3-0.1-0.6-0.2-0.8c-0.1-0.2-0.2-0.4-0.2-0.7c0-0.2,0.1-0.5,0.2-0.8c0.1-0.3,0.3-0.4,0.6-0.4
			h0.2c0.1,0,0.2,0.1,0.2,0.3c0.1,0.1,0.1,0.2,0.1,0.3l0.6-0.3c-0.1-0.3-0.3-0.4-0.6-0.5c-0.3-0.1-0.5-0.2-0.8-0.2
			c-0.2-0.1-0.5-0.2-0.7-0.3c-0.2-0.1-0.3-0.3-0.3-0.6c0-0.2,0.1-0.3,0.2-0.4s0.3-0.1,0.5-0.1c0.2,0,0.3-0.1,0.5-0.1
			s0.2-0.2,0.2-0.5h2.1v-0.6l-1.7-0.7v-0.4c0-0.8,0.1-1.4,0.4-1.8c0.3-0.4,0.6-0.6,1-0.7c0.4-0.1,0.7-0.2,1.1-0.3
			c0.4,0,0.6-0.2,0.7-0.5c0,0-0.1,0-0.3-0.1c-0.2-0.1-0.3-0.1-0.3-0.2l-0.1-0.1c0-0.4,0.1-0.7,0.4-0.8c0.2-0.2,0.5-0.3,0.9-0.3
			c0.3-0.1,0.7-0.1,1-0.2c0.3-0.1,0.6-0.2,0.8-0.3c0,0,0.1-0.2,0.1-0.5c0-0.1,0-0.3-0.1-0.4c0.1-0.1,0.3-0.3,0.6-0.5
			c0.3-0.2,0.5-0.4,0.5-0.5v-0.3v-0.3l-0.7-0.9v-0.2v-0.1c0-0.1,0.1-0.2,0.3-0.3c0.2-0.1,0.3-0.2,0.4-0.3l0.1-0.1l0.1,0.1
			c0.1,0,0.2,0.1,0.3,0.2c0.1,0.1,0.1,0.2,0.1,0.2h2.6c0,0.1,0,0.2,0.1,0.3c0.1,0.1,0.2,0.2,0.3,0.2c0.6,0,1.1-0.1,1.4-0.3
			c0.3-0.3,0.6-0.6,0.9-0.9c0.3-0.3,0.6-0.6,1-0.9c0.4-0.3,0.9-0.4,1.6-0.3c0.1,0,0.4,0.2,0.9,0.5c0.5,0.3,1,0.7,1.6,1.1
			c0.6,0.4,1.1,0.8,1.7,1.2c0.5,0.4,0.9,0.7,1.1,0.8c0.2,0.1,0.4,0.3,0.6,0.6c0.2,0.3,0.3,0.6,0.5,1c0.1,0.4,0.2,0.7,0.3,1.1
			s0.1,0.6,0,0.8c0.3,0,0.5,0.2,0.6,0.4c0.2,0.2,0.3,0.4,0.4,0.6c0.1,0.2,0.3,0.4,0.4,0.6c0.1,0.2,0.3,0.2,0.6,0.2
			c0,0.1,0,0.3,0.1,0.6s0.2,0.6,0.3,0.9c0.1,0.3,0.2,0.6,0.3,0.9s0.2,0.5,0.2,0.6V31v0.2l0.1,0.1c0,0,0.1,0.1,0.2,0.1v0.2
			c0,0,0,0.1,0.1,0.2c-0.4,0-0.8-0.1-1.2-0.3c-0.4-0.2-0.7-0.3-1.1-0.3c0,0,0.1,0.3,0.2,0.8c0.1,0.5,0.3,0.7,0.4,0.7h2.6
			c0.1,0,0.1,0.1,0.1,0.3c0,0.2-0.1,0.4-0.2,0.6c-0.1,0.2-0.2,0.4-0.3,0.6c-0.1,0.2-0.1,0.3-0.1,0.4l0.7,2.2
			c0.1,0.4,0.3,0.5,0.6,0.5c0.3,0,0.5,0.1,0.5,0.5c0,0.1-0.1,0.3-0.3,0.5c-0.2,0.3-0.3,0.5-0.2,0.6c0,0.2,0.2,0.4,0.3,0.5
			c0.2,0.1,0.4,0.3,0.5,0.4c0.2,0.1,0.3,0.2,0.5,0.4c0.2,0.2,0.2,0.3,0.2,0.5l-0.2,1.4c0,0.1,0.1,0.2,0.3,0.3
			c0.2,0.1,0.4,0.3,0.6,0.4c0.2,0.1,0.5,0.2,0.7,0.4c0.2,0.1,0.4,0.2,0.4,0.3c0,0,0,0.1,0,0.1c0,0,0,0.1,0,0.2
			c0.1,0.3,0.2,0.6,0.3,1.1c0.1,0.4,0.2,0.7,0.3,0.8c0,0.1,0.3,0.2,0.7,0.4c0.4,0.2,0.9,0.4,1.5,0.6c0.6,0.2,1.1,0.5,1.6,0.7
			s0.9,0.5,1.1,0.7c-0.4,0.1-0.6,0.2-0.7,0.4s-0.1,0.4,0,0.6c0,0.2,0.1,0.5,0.1,0.7c0,0.2,0,0.5-0.2,0.7c-0.2,0.2-0.5,0.4-1.1,0.5
			c-0.6,0.1-1.4,0.2-2.5,0.2c-0.3,0-0.5-0.1-0.6-0.2s-0.2-0.3-0.3-0.4c-0.1-0.2-0.2-0.3-0.3-0.5C294.7,49.9,294.5,49.7,294.3,49.6z
			 M269,40.2c0.2,0.2,0.4,0.6,0.6,1.2s0.4,0.9,0.7,1c0.4,0.1,0.8,0.2,1.1,0.3c0.3,0.1,0.5,0.1,0.7,0.2c0.2,0,0.4,0,0.7,0.1
			c0.2,0,0.5,0,0.9,0c0.4,0,0.8,0,0.9-0.1c0.2-0.1,0.3-0.2,0.5-0.3c0.1-0.1,0.3-0.2,0.4-0.4c0.2-0.1,0.4-0.3,0.8-0.5
			c0.1,0,0.4-0.1,0.8-0.2c0.5-0.1,0.7-0.1,0.8-0.2c0.5-0.2,1-0.7,1.4-1.5c0.4-0.8,0.7-1.4,0.9-1.9c0.1-0.2,0.3-0.4,0.6-0.4
			s0.6-0.1,0.7-0.2v-0.1v-0.1c0,0-0.2-0.1-0.4-0.3c-0.2-0.1-0.3-0.2-0.3-0.3c0-0.1,0.1-0.3,0.3-0.5c0.2-0.2,0.4-0.4,0.4-0.4
			c0.4-1.1,0.7-2.5,0.9-4c0.2-1.5,0.4-2.8,0.4-3.9c0-0.6-0.1-1-0.4-1.4c-0.3-0.3-0.6-0.6-1.1-0.7c-0.4-0.2-0.9-0.3-1.4-0.3
			c-0.5,0-1-0.1-1.6-0.1c-0.1,0-0.5,0.1-1,0.4c-0.5,0.3-1,0.6-1.6,0.9c-0.6,0.3-1.1,0.6-1.5,0.9c-0.4,0.3-0.7,0.5-0.7,0.5
			c0,0.1,0,0.3-0.1,0.6c-0.1,0.3-0.2,0.5-0.2,0.6c-0.1,0-0.2,0.1-0.3,0.1c0,0-0.1,0.1-0.2,0.1c0,0-0.1,0-0.1,0.1l-1.3,1.2
			c0,0-0.1,0-0.1,0.1V31c0,0.2,0.1,0.4,0.2,0.4s0.2,0.3,0.2,0.6c0,0.3,0,0.6,0,0.8c0,0.2-0.1,0.4-0.1,0.6c-0.1,0.2-0.1,0.4-0.2,0.7
			c-0.1,0.3-0.2,0.6-0.3,1c-0.2,0.6-0.4,1-0.8,1.3c-0.4,0.3-0.7,0.5-1.1,0.6c-0.4,0.1-0.7,0.2-1,0.3c-0.3,0.1-0.4,0.2-0.4,0.4
			c0,0.4,0.1,0.7,0.3,0.8c0.2,0.1,0.5,0.2,0.8,0.3c0.3,0,0.6,0.1,0.9,0.1c0.3,0,0.5,0.2,0.6,0.5c-0.1,0.2-0.3,0.4-0.6,0.5
			C269.4,40,269.2,40.1,269,40.2z M272.9,44.1c0.1-0.1,0-0.1-0.1-0.1c-0.2,0-0.2,0-0.2,0.1c0,0.1,0.1,0.1,0.2,0.1
			C272.9,44.3,272.9,44.2,272.9,44.1z M273.6,43.5c-0.2,0-0.3,0.1-0.3,0.3s0.1,0.3,0.3,0.3s0.3-0.1,0.3-0.3S273.8,43.5,273.6,43.5z
			 M273.9,26.2h0.3v-0.3h-0.3V26.2z M276.6,43.5c0.1-0.1,0.2-0.2,0.5-0.4c0.2-0.2,0.3-0.3,0.3-0.6h-0.8V43.5z M279.8,19.9
			c0-0.1,0-0.1-0.1-0.1c-0.1,0-0.2,0-0.2,0.1c0.1,0.1,0.2,0.1,0.2,0.1S279.8,20,279.8,19.9z M279.5,42.6h0.3v-0.3h-0.3V42.6z
			 M279.8,43.5c-0.2,0-0.3,0.1-0.3,0.3s0.1,0.3,0.3,0.3c0.2,0,0.3-0.1,0.3-0.3S280,43.5,279.8,43.5z M280.5,38.8
			c0,0.2,0.1,0.4,0.3,0.4c0.2,0,0.4,0.1,0.6,0.1h0.5l-0.3-1.2c-0.2,0-0.4,0.1-0.7,0.2C280.6,38.5,280.5,38.6,280.5,38.8z
			 M280.8,20.1c-0.1,0-0.2,0.1-0.2,0.3c0,0.2,0.1,0.3,0.2,0.3c0.2,0,0.3-0.1,0.3-0.3C281.1,20.2,281,20.1,280.8,20.1z M284.5,41.8
			h0.6v-0.7h-0.6V41.8z"/>
		<path class="st1" d="M306.1,47.5c0-0.1,0-0.3,0.1-0.8c0.1-0.4,0.1-0.7,0.1-0.8c0-0.1-0.1-0.3-0.4-0.5c-0.3-0.2-0.4-0.4-0.4-0.5
			c0-0.1,0.1-0.2,0.4-0.4l0.4-0.3v-0.7c0-1.1-0.3-2.1-0.8-3.1c-0.5-1-0.8-2.1-1-3.2c-0.2-1.5-0.4-3-0.5-4.5c-0.1-1.4-0.2-3-0.2-4.5
			v-4.4c0-0.5,0.1-1,0.3-1.5c0.2-0.5,0.4-0.9,0.7-1.2c0.3,0.2,0.6,0.6,0.9,1.1c0.3,0.5,0.6,0.8,1,0.7c0,0,0.2-0.1,0.5-0.3
			c0.3-0.2,0.5-0.3,0.6-0.4h0.5c0.5,0,0.9,0.1,1.2,0.3c0.3,0.2,0.6,0.5,1,0.8c0,0.2,0.1,0.6,0.1,1.2c0,0.6,0.1,1.2,0.1,1.8
			c0,0.6,0.1,1.3,0.3,1.9c0.1,0.6,0.3,1.1,0.6,1.4c0,0,0.1,0.1,0.1,0.1h0.3c0.1,0,0.2,0,0.4-0.1c0.2,0,0.3-0.2,0.3-0.5
			c0-0.4-0.2-0.9-0.6-1.4s-0.6-0.9-0.6-1.4c0-0.1,0.1-0.3,0.3-0.6c0.2-0.2,0.4-0.5,0.6-0.8c0.2-0.3,0.4-0.5,0.7-0.7
			c0.2-0.2,0.4-0.3,0.5-0.3l0.1,0.1h0.1c0,0,0.1,0,0.2,0.1c0.1,0.1,0.1,0.1,0.2,0.1h0.1c0.3,0,0.4-0.1,0.5-0.3
			c0.1-0.2,0.1-0.4,0.2-0.6c0-0.2,0-0.5,0-0.7c0-0.2,0-0.4,0.1-0.6c0.1-0.1,0.3-0.3,0.7-0.5c0.4-0.3,0.6-0.5,0.8-0.6h0.2
			c0.3,0,0.4,0.2,0.4,0.5c0,0.3,0.3,0.5,0.8,0.5c0.6,0,1.1-0.2,1.5-0.7c0.4-0.4,0.7-0.9,1-1.4c0.3-0.5,0.5-1,0.8-1.4
			c0.2-0.4,0.4-0.7,0.7-0.7c0.3,0,0.6,0.1,1,0.3c0.3,0.2,0.7,0.4,1,0.6c0.4,0.2,0.7,0.4,1,0.6c0.3,0.2,0.6,0.3,0.9,0.4
			c0.1,0,0.5,0.1,1,0c0.5,0,0.8,0,0.9,0c0,0,0.2,0.1,0.5,0.4c0.3,0.3,0.6,0.6,0.9,0.9c0.3,0.3,0.6,0.6,0.9,0.9
			c0.3,0.3,0.5,0.4,0.5,0.5l0.2,4.4l-0.2,0.4c0.5,0.4,0.8,0.8,1.1,1.1c0.2,0.3,0.3,0.7,0.3,1.3c0,0.4-0.1,0.7-0.2,0.9
			c-0.1,0.2-0.2,0.5-0.2,1.1c0,0.5,0.1,1,0.2,1.5c0.1,0.5,0.2,0.9,0.2,1.4v0.3c0,0-0.1,0.1-0.2,0.3c-0.1,0-0.2,0.1-0.2,0.1
			c0,0.1,0,0.2,0.1,0.4c0.1,0.2,0.2,0.3,0.3,0.4c0.4-0.1,0.8-0.2,1-0.3c0.2-0.1,0.3-0.4,0.3-0.8c0-0.3-0.1-0.5-0.2-0.6
			c-0.2-0.1-0.2-0.3-0.2-0.5c0-0.1,0.2-0.3,0.5-0.7c0.3-0.4,0.7-0.7,1.1-1.1c0.4-0.4,0.8-0.8,1.2-1.2c0.4-0.4,0.6-0.6,0.7-0.8
			c0.2-0.3,0.5-0.7,1-1.3c0.5-0.6,1.1-1.2,1.7-1.8c0.6-0.6,1.2-1.1,1.8-1.5c0.6-0.4,1.1-0.7,1.5-0.7h0.4c0,0,0.1,0.1,0.3,0.3
			c0.2,0.1,0.3,0.2,0.4,0.2c0.3,0,0.6-0.1,0.9-0.3c0.3-0.2,0.6-0.4,0.9-0.7c0.3-0.3,0.5-0.6,0.7-1c0.2-0.4,0.3-0.7,0.3-1
			c0.1,0.1,0.3,0.2,0.7,0.4c0.4,0.2,0.7,0.3,0.9,0.3c0,0.1,0,0.2,0.1,0.3l0.1,0.1c0.1,0,0.2-0.1,0.3-0.2c0.1-0.1,0.2-0.2,0.3-0.3
			v-0.1l-0.1-0.1h-0.3c0-1.1,0.2-1.9,0.5-2.3c0.3-0.4,1-0.7,2.2-1c0.4,0.1,0.7,0.4,1,0.7c0.3,0.4,0.7,0.7,1,1.1
			c0.3,0.4,0.6,0.7,0.9,1c0.3,0.3,0.6,0.4,0.8,0.4c0.1,0,0.2-0.1,0.4-0.2c0.2-0.1,0.2-0.2,0.2-0.3h0.3c0.3,0,0.5,0.2,0.7,0.5
			c0.2,0.4,0.3,0.8,0.5,1.3c0.1,0.5,0.2,1,0.3,1.4c0.1,0.5,0.1,0.8,0.1,1c0,1.1-0.2,2.3-0.5,3.4c-0.3,1.1-0.5,2.3-0.5,3.4
			c0,0.2,0.2,0.3,0.5,0.5l0.5,0.3c-0.1,0.1-0.2,0.3-0.4,0.5c-0.2,0.2-0.3,0.4-0.3,0.5l-0.1,0.1c0,0.1,0,0.1,0.1,0.1
			c0,0,0,0.1,0.1,0.1c0,0.1,0.1,0.2,0.3,0.4c0.2,0.2,0.3,0.3,0.4,0.3c0,0.1-0.1,0.2-0.2,0.4c-0.1,0.2-0.2,0.3-0.2,0.4v1.9
			c0,0.5,0,0.9,0,1.3c0,0.4,0,0.7,0.1,1c0,0.3,0.1,0.7,0.2,1.1c0.1,0.4,0.2,0.8,0.4,1.4c0,0.1,0.1,0.3,0.3,0.6
			c0.2,0.3,0.3,0.5,0.3,0.5c0,0.1-0.1,0.2-0.2,0.5c-0.1,0.2-0.3,0.3-0.5,0.3c0,0.1,0,0.3-0.1,0.6c0,0.3-0.1,0.6-0.1,0.8
			c0,0.5,0.1,1,0.3,1.3c0.2,0.3,0.5,0.6,0.7,0.9c0.2,0.3,0.5,0.5,0.7,0.7c0.2,0.2,0.3,0.5,0.3,0.9h-0.5c-0.1-0.1-0.3-0.2-0.7-0.4
			c-0.4-0.2-0.6-0.3-0.8-0.3c-0.1,0-0.3,0.1-0.7,0.3c-0.4,0.2-0.6,0.3-0.6,0.4h-0.4c-0.8,0-1.5-0.5-2.1-1.5c-0.6-1-1.1-2.2-1.5-3.7
			c-0.4-1.5-0.8-3.1-1.1-4.8c-0.3-1.7-0.6-3.3-0.8-4.8c-0.2-1.5-0.5-2.7-0.7-3.7c-0.2-1-0.5-1.5-0.7-1.5h-0.2
			c-0.1,0.2-0.5,0.5-1,0.9c-0.5,0.4-0.9,0.8-1.1,1c-0.1,0-0.3,0.3-0.7,0.7c-0.4,0.4-0.6,0.7-0.6,0.8h-0.3c-0.3,0-0.5-0.1-0.6-0.2
			c-0.1-0.1-0.4-0.2-0.8-0.2c0,0.5,0,1,0.1,1.4c0.1,0.4,0.1,0.8,0.1,1.1c0,0.4-0.1,0.7-0.2,1.1c-0.1,0.4-0.4,0.8-0.8,1.2h-0.1h-0.3
			c0-0.1-0.1-0.3-0.2-0.6c-0.1-0.3-0.2-0.5-0.2-0.6v-0.4c0-0.2-0.1-0.3-0.3-0.3c-0.1,0-0.2,0-0.4,0.1c-0.2,0.1-0.2,0.1-0.2,0.2v1.7
			l0.6,0.5c0,0.1,0,0.2-0.1,0.3c-0.1,0.1-0.1,0.1-0.2,0.1c-0.2,0-0.4-0.1-0.5-0.2c-0.2,0-0.3-0.1-0.5-0.2c-0.2,0-0.5,0.1-0.8,0.3
			c-0.3,0.2-0.4,0.4-0.4,0.6c0,0,0,0.1,0.1,0.1c0,0,0,0.1,0.1,0.1c0.1,0,0.3,0.1,0.5,0.1c0.3,0.1,0.5,0.2,0.6,0.3l0.1,0.1l0.1,0.1
			c0,0.9-0.3,1.5-0.9,1.6c-0.6,0.2-1.2,0.3-2,0.3c0-0.4-0.1-0.7-0.2-1s-0.4-0.5-0.7-0.5c-0.5,0-0.9,0.3-1.1,0.8
			c-0.3,0.6-0.4,1-0.4,1.4c0,0.4,0.2,0.8,0.5,1.1c0.4,0.3,0.5,0.7,0.5,1.3c0,1.1-0.2,1.8-0.7,2.1c-0.5,0.4-1.1,0.6-1.7,0.8
			s-1.3,0.3-2,0.6c-0.6,0.2-1.1,0.7-1.4,1.5h-0.2h-0.2c0,0-0.2-0.2-0.4-0.4c-0.2-0.2-0.3-0.3-0.4-0.4h-0.2c0,0-0.1,0.1-0.2,0.2
			c-0.2,0.1-0.2,0.2-0.2,0.3h-0.1h-0.2l-0.2-0.4l-0.1-0.3c0,0,0-0.2,0.1-0.5c0-0.1,0.1-0.3,0.2-0.4c0,0,0-0.1,0.1-0.2
			c0-0.1,0.1-0.2,0.1-0.3c0-0.6,0-1.4,0-2.2c0-0.9-0.1-1.7-0.2-2.6c-0.1-0.9-0.2-1.7-0.3-2.6c-0.1-0.8-0.3-1.5-0.6-2
			c-0.2-0.4-0.4-0.8-0.6-1.1c-0.2-0.3-0.3-0.6-0.5-0.9c-0.1-0.3-0.2-0.6-0.3-1c-0.1-0.4-0.1-0.8-0.1-1.5v-1.8c0,0,0.1-0.2,0.2-0.4
			c0.1-0.2,0.2-0.3,0.2-0.4c0-0.3-0.1-0.6-0.3-1.1c-0.2-0.5-0.3-0.7-0.3-0.7h-1c0.2-0.2,0.3-0.4,0.3-0.7c0-0.2,0-0.5,0-0.7v-0.7
			c-0.1,0-0.2,0.1-0.4,0.2c-0.2,0.1-0.3,0.2-0.4,0.2c-0.2,0-0.3-0.1-0.4-0.3c-0.1-0.2-0.1-0.4-0.2-0.7c-0.1-0.3-0.2-0.5-0.3-0.8
			c-0.1-0.2-0.3-0.4-0.5-0.4c-0.3-0.1-0.6,0.1-1,0.5c-0.4,0.4-0.8,0.9-1.1,1.5c-0.4,0.6-0.7,1.1-1,1.7c-0.3,0.6-0.6,0.9-0.7,1.1
			c-0.1,0.1-0.3,0.3-0.5,0.6c-0.3,0.3-0.4,0.4-0.4,0.5c-0.1,0-0.3,0.1-0.6,0.2c-0.3,0.1-0.5,0.2-0.6,0.3v0.1v0.2
			c0.1,0,0.2,0.1,0.4,0.2c0.2,0.1,0.3,0.2,0.3,0.2l-1.3,1.3c0.2,0,0.4,0,0.6,0c0.2,0.1,0.3,0.2,0.3,0.5c0,0.4-0.1,0.6-0.3,0.7
			c-0.2,0.1-0.3,0.3-0.3,0.7c0,0.4,0.1,0.5,0.3,0.5c0.2,0,0.3,0.1,0.3,0.4v0.1c-0.1,0.2-0.4,0.5-0.9,0.8c-0.5,0.3-0.7,0.7-0.7,1.2
			c0,0.3,0.1,0.5,0.2,0.7s0.2,0.4,0.2,0.7c0,1.3-0.3,2.2-1,2.8c-0.7,0.6-1.6,0.8-2.7,0.8c0,0.1,0,0.4,0,0.8c0,0.4,0,0.8,0,1.2
			c0,0.4,0,0.8,0,1.1c0,0.4,0,0.6,0,0.7c0,0.1,0,0.2,0,0.4c0,0.2-0.1,0.4-0.1,0.6c-0.1,0.2-0.2,0.4-0.3,0.6s-0.3,0.2-0.4,0.2h-0.1
			c-0.1,0-0.2,0-0.4-0.1s-0.3-0.1-0.4-0.1h-0.1c-0.4,0-0.7,0.1-1.1,0.4c-0.4,0.3-0.6,0.4-0.9,0.5h-0.2c-0.8,0-1.4-0.2-1.7-0.7
			c-0.3-0.5-0.5-1.1-0.5-2V47.5z M306.8,27c0,1,0,1.9,0,2.7c0,0.8,0.1,1.3,0.2,1.3c0.1,0,0.2-0.2,0.2-0.7c0-0.5-0.1-1-0.1-1.5
			c-0.1-0.5-0.1-1-0.2-1.4S306.8,26.9,306.8,27z M307.4,48.6c-0.1-0.1-0.1,0-0.1,0.3c0,0.3,0,0.4,0.1,0.3c0.1-0.1,0.2-0.2,0.2-0.4
			C307.6,48.7,307.5,48.6,307.4,48.6z M308.1,46.7c0,0.3,0.1,0.6,0.3,0.9s0.5,0.5,0.9,0.5c0.2,0,0.4-0.2,0.4-0.6
			c0-0.4,0.1-0.6,0.1-0.7c0,0,0-0.2,0-0.4c0-0.2,0-0.4,0-0.5c-0.1,0.1-0.3,0.2-0.6,0.2c-0.3,0.1-0.4,0.1-0.5,0.2
			c-0.1,0-0.2,0.1-0.3,0.2C308.2,46.6,308.1,46.7,308.1,46.7z M313,36.5h0.4V36H313V36.5z M313.9,27c0,0.4,0.1,1,0.3,1.6
			c0.2,0.6,0.4,1,0.7,1.3c0,0,0.3-0.2,0.7-0.5c0.4-0.3,0.6-0.5,0.6-0.5c-0.1,0-0.2-0.1-0.3-0.1c-0.2,0-0.3,0-0.3-0.1
			c0-0.4-0.2-0.7-0.5-1.1C314.6,27.2,314.3,27,313.9,27z M315.8,23.9c0,0.3,0,0.5,0.1,0.7c0,0.2,0.2,0.4,0.4,0.6
			c0,0,0.1-0.1,0.2-0.2c0.1-0.1,0.2-0.2,0.2-0.2v-0.1v-0.3c0-0.1-0.1-0.3-0.2-0.7c-0.1-0.4-0.2-0.7-0.2-0.8
			c-0.3,0.1-0.4,0.2-0.4,0.4C315.8,23.5,315.8,23.7,315.8,23.9z M318.7,23.8c-0.1,0-0.2,0.1-0.2,0.2c0,0.1,0.1,0.3,0.2,0.4
			c0.1,0.1,0.2,0.3,0.3,0.4c0.1,0.1,0.2,0.2,0.4,0.2s0.1-0.2-0.1-0.6C319,24,318.8,23.8,318.7,23.8z M318.9,23.3h0.4v-0.5h-0.4V23.3
			z M330.7,37.2c0,0-0.1,0.2-0.3,0.6c-0.1,0.2-0.2,0.3-0.2,0.5c0.6,0.1,1,0.2,1.3,0.3c0.3,0.1,0.8,0.2,1.3,0.3l-1.5-2.1
			c-0.1,0-0.3,0-0.4,0.1C330.8,37,330.7,37.1,330.7,37.2z M330.5,33.5c-0.1,0-0.1,0-0.1,0.2c0,0.2,0,0.3,0.1,0.3
			C330.6,33.9,330.6,33.8,330.5,33.5z M332.9,35.3c0.2,0,0.3,0.1,0.3,0.3c0,0.2-0.1,0.3-0.3,0.3c-0.2,0-0.3-0.1-0.3-0.3
			C332.6,35.4,332.7,35.3,332.9,35.3z M338.8,28.8c-0.1,0-0.2,0.1-0.2,0.4c0,0.2,0.1,0.4,0.2,0.4c0.2,0,0.3-0.1,0.3-0.4
			C339.1,29,339,28.8,338.8,28.8z M339.4,32.5C339.4,32.5,339.4,32.5,339.4,32.5c-0.1,0.3,0,0.3,0,0.3c0.1,0,0.2-0.1,0.2-0.2
			C339.6,32.6,339.6,32.5,339.4,32.5z M340.3,27.3c-0.1,0-0.1,0.1-0.1,0.3c0,0.2,0.1,0.4,0.2,0.6c0.1,0.2,0.2,0.5,0.4,0.6
			c0.2,0.2,0.3,0.3,0.4,0.3c0.4-0.2,0.5-0.5,0.6-0.7c0-0.3,0-0.5-0.2-0.7c-0.1-0.2-0.3-0.3-0.6-0.4
			C340.8,27.1,340.5,27.2,340.3,27.3z M341,34c0-0.2,0-0.3-0.2-0.3c-0.2,0-0.3,0.1-0.2,0.3c0,0.1,0.1,0.1,0.3,0.1S341,34.1,341,34z
			 M345.5,30c-0.2,0-0.3,0.1-0.3,0.3c0,0.2,0.1,0.3,0.3,0.3c0.2,0,0.3-0.1,0.3-0.3C345.7,30.1,345.6,30,345.5,30z M348.6,29.8
			c-0.1,0-0.3,0-0.5,0.1c-0.2,0-0.5,0.1-0.7,0.1c-0.2,0-0.4,0.1-0.5,0.1c-0.1,0-0.2,0.1-0.1,0.1c0,0,0.2,0,0.4-0.1
			c0.2,0,0.4-0.1,0.6-0.1c0.2,0,0.4-0.1,0.6-0.1C348.6,29.8,348.6,29.8,348.6,29.8z M354.3,29.1c0.5,0,0.9,0,1.2-0.1
			c0.3-0.1,0.4-0.3,0.5-0.5c0-0.2-0.1-0.4-0.3-0.6c-0.2-0.2-0.7-0.3-1.2-0.4c-0.1,0-0.1,0.1-0.1,0.3c0,0.2,0,0.4,0,0.6s0,0.4,0,0.5
			C354.4,29,354.4,29.1,354.3,29.1z M355.1,37.2c0,0,0.1,0.2,0.2,0.4s0.2,0.3,0.3,0.3v-1.4c-0.1,0.1-0.2,0.2-0.3,0.4
			C355.1,37,355.1,37.2,355.1,37.2z M356.9,49.2v-0.3h-0.3L356.9,49.2z"/>
	</g>
</g>
<g>
</g>
<g>
</g>
<g>
</g>
<g>
</g>
<g>
</g>
<g>
</g>
</svg>
