<?xml version="1.0" encoding="utf-8"?>
<!-- Generator: Adobe Illustrator 19.2.0, SVG Export Plug-In . SVG Version: 6.00 Build 0)  -->
<svg version="1.1" id="Layer_1" xmlns="http://www.w3.org/2000/svg" xmlns:xlink="http://www.w3.org/1999/xlink" x="0px" y="0px"
	 viewBox="0 0 250 75" style="enable-background:new 0 0 250 75;" xml:space="preserve">
<style type="text/css">
	.st0{fill:none;}
	.st1{fill:#DAD9D9;}
</style>
<g>
	<g>
		<rect x="5.5" y="8.5" class="st0" width="250" height="75"/>
		<path class="st1" d="M26.5,61.9c-0.3,0-0.5,0-0.7,0.1c-0.2,0.1-0.5,0.1-0.8,0.1c-0.3,0-0.5-0.1-0.6-0.4c-0.1-0.3-0.2-0.6-0.3-1
			S24,59.9,24,59.4c0-0.4,0-0.8,0-1.2c0-0.8,0-1.5,0.1-2.1c0-0.6,0.1-1.3,0.2-2.3c0.4-0.4,0.5-0.6,0.5-0.7c0-0.1-0.2-0.2-0.4-0.4
			c-0.2-0.2-0.3-0.3-0.4-0.4c0,0,0-0.1-0.1-0.1c0.1,0,0.3,0,0.6,0c0.3,0,0.5-0.1,0.6-0.3c-0.5-0.4-0.8-0.8-0.9-1.4
			C24,49.9,24,49.3,24,48.8c0-1,0.1-1.9,0.2-2.7c0.2-0.8,0.5-1.6,1.2-2.4c0,0-0.1-0.1-0.1-0.2c0-0.1-0.1-0.2-0.2-0.2v0.1H25
			c0,0-0.1,0-0.1,0c0,0,0,0-0.1,0c-0.2,0-0.4,0.1-0.6,0.3c-0.1-0.2-0.2-0.7-0.3-1.4c-0.1-0.7-0.2-1.3-0.2-1.8c0-0.5,0.1-0.8,0.3-1
			c0.2-0.2,0.4-0.3,0.7-0.4c0.2-0.1,0.5-0.1,0.7-0.2c0.2,0,0.3-0.2,0.3-0.3c0-0.2-0.1-0.3-0.4-0.3c-0.3,0-0.4-0.2-0.4-0.5
			c0-0.2,0-0.3,0.1-0.3c0,0,0.1-0.1,0.2-0.1c0.1,0,0.1-0.1,0.2-0.2s0.1-0.2,0.1-0.4c0-0.7,0-1.1,0.1-1.2c0.1-0.1,0.1-0.2,0.1-0.5
			c-0.5-0.4-0.9-0.7-1.1-1c-0.3-0.3-0.5-0.6-0.6-1c-0.1-0.4-0.2-0.7-0.2-1.2c0-0.4,0-0.9,0-1.5c0-0.4,0-0.7,0.1-0.9
			c0-0.3,0.1-0.6,0.1-0.9c0-0.4-0.1-0.7-0.3-0.9c-0.2-0.2-0.4-0.3-0.7-0.4s-0.5-0.1-0.8-0.1c-0.2,0-0.4,0-0.4,0.1
			c-0.2,0-0.6,0.1-1.2,0.2c-0.6,0.1-1.3,0.1-2.1,0.2c-0.8,0.1-1.4,0.2-2.1,0.2c-0.6,0.1-1.1,0.1-1.2,0.1c-0.2,0-0.6-0.2-1-0.5
			c-0.4-0.3-0.7-0.6-0.8-0.8L13,28c-0.4,0.1-1,0.1-1.7,0.2c-0.7,0-1.9,0-3.6,0l1.1-0.5c-0.4,0-0.9-0.1-1.3-0.3
			c-0.4-0.2-0.6-0.5-0.6-1c0-0.2,0.1-0.3,0.3-0.3c0.1,0,0.2,0,0.3,0c0.1,0,0.2,0,0.3,0c0.2,0,0.4-0.1,0.6-0.2
			c0.2-0.2,0.2-0.5,0.2-1.1c0-0.4,0-0.7-0.1-1s-0.1-0.6-0.2-1.1L7.7,23v-1c0,0-0.1-0.2-0.4-0.3c-0.1-0.1-0.3-0.2-0.4-0.2l0.5-0.3
			c0,0,0-0.1,0-0.2c0-0.1,0-0.2,0-0.3c0-0.4-0.1-0.7-0.2-0.9c-0.1-0.3-0.2-0.5-0.2-0.7c0-0.1,0.1-0.2,0.2-0.4
			c0.1-0.2,0.2-0.3,0.3-0.3l2.4-0.2c0,0.4,0.1,0.7,0.3,0.8c0.2,0.1,0.5,0.2,0.9,0.2c0-0.2,0-0.3,0-0.4c0-0.1,0-0.2,0-0.3
			c0-0.2,0.2-0.4,0.7-0.6c0.1,0.1,0.2,0.2,0.3,0.4c0.1,0.2,0.2,0.3,0.4,0.3c0.2,0,0.4-0.1,0.4-0.3c0.1-0.2,0.1-0.3,0.1-0.5h1.3
			l-0.1,0.5c-0.1,0.1-0.2,0.3-0.2,0.4c-0.1,0.2-0.1,0.3-0.2,0.4c0.4,0,0.8-0.1,0.9-0.2c0.2-0.2,0.4-0.4,0.7-0.6
			c0.2,0,0.3,0.3,0.3,0.7c0,0.2-0.1,0.3-0.2,0.5c-0.1,0.1-0.2,0.3-0.2,0.5c0,0.1,0,0.3,0.1,0.5c0.1,0.2,0.1,0.4,0.1,0.4
			c0.3,0,0.4-0.1,0.5-0.2c0.1-0.1,0.1-0.3,0.1-0.5c0-0.1,0-0.3,0-0.4c0-0.1-0.1-0.2-0.3-0.3c0.4,0,0.6-0.1,0.7-0.2
			c0.1-0.1,0.1-0.2,0.1-0.4c0,0,0-0.1,0-0.1c0,0,0-0.1,0-0.1c0-0.3,0.2-0.4,0.5-0.4c0.1,0,0.2,0.1,0.4,0.4c0.2,0.3,0.4,0.4,0.6,0.5
			c0.1,0,0.2,0,0.4-0.1c0.2-0.1,0.3-0.1,0.3-0.1c0.1,0,0.1,0.1,0.2,0.3c0,0.2,0,0.4,0,0.7c0,0.2,0,0.5,0.1,0.7
			c0,0.2,0.1,0.3,0.2,0.3c0.5-0.4,0.9-0.9,1.3-1.3c0.4-0.3,0.7-0.6,1-0.9c0.3-0.3,0.5-0.4,0.6-0.4c0.3,0,0.4,0.1,0.5,0.4
			c0.1,0.2,0.1,0.5,0.1,0.9c0,0.3-0.1,0.6-0.1,0.9c-0.1,0.3-0.1,0.5-0.1,0.5c0.4-0.3,0.7-0.6,0.9-0.8c0.2-0.2,0.5-0.5,0.9-0.8
			c0.3-0.2,0.5-0.4,0.6-0.7c0.1-0.3,0.2-0.6,0.2-0.8c0.2,0.1,0.3,0.2,0.4,0.4c0.1,0.2,0.1,0.4,0.2,0.7c0,0.2,0.1,0.5,0.2,0.6
			c0.1,0.2,0.2,0.3,0.4,0.3c0.1,0,0.3,0,0.5-0.1c0.3,0,0.4-0.1,0.5-0.1c0-0.1-0.1-0.2-0.1-0.3c0-0.1-0.1-0.2-0.1-0.2l-0.1,0.1
			c0,0,0.1-0.2,0.2-0.6c0.2-0.3,0.3-0.6,0.5-0.8c0,0,0.1,0.1,0.2,0.1c0.1,0,0.2,0.1,0.2,0.2c0,0.3,0,0.6-0.1,0.7
			c0,0.2-0.1,0.4-0.1,0.7c0.3,0,0.5-0.1,0.6-0.3c0.1-0.2,0.3-0.3,0.6-0.3l0.1,0.1h0.1C29.1,19.6,29,19.9,29,20c0,0.1,0,0.2,0,0.3
			c0,0.1,0,0.2,0,0.5c0.4,0,0.7-0.1,0.9-0.3c0.2-0.2,0.4-0.5,0.6-0.8c0.1-0.3,0.2-0.6,0.3-0.9c0.1-0.3,0.1-0.6,0.1-0.9
			c0-0.9-0.1-1.5-0.3-1.8c-0.2-0.3-0.8-0.5-1.7-0.5c0-0.2,0-0.3,0.1-0.3c0.1,0,0.2,0,0.4-0.1c0.2,0,0.5-0.1,0.8-0.1
			c0.3-0.1,0.7-0.2,1.2-0.4c0,0,0,0,0.2,0c0.2,0,0.3,0.1,0.3,0.2l-0.3,0.3v2.9c0,0.2,0.1,0.3,0.3,0.3c0.6,0,0.9-0.2,1-0.6
			c0.1-0.4,0.1-0.8,0.1-1.1c0-0.4-0.1-0.7-0.3-0.8c-0.2-0.1-0.3-0.3-0.3-0.7c0.4,0,0.9,0.1,1.4,0.4c0.5,0.3,0.8,0.5,1.1,0.7
			c0,0.1,0,0.2,0,0.3c0,0.1,0,0.2,0,0.3c0,0.3,0,0.7,0.1,1c0,0.4,0.1,0.7,0.2,1.1c0.1,0.4,0.2,0.7,0.3,0.9c0.1,0.2,0.3,0.4,0.5,0.4
			c0.2,0,0.5-0.1,0.8-0.2c0.3-0.1,0.4-0.3,0.4-0.6v-2.2c-0.1,0-0.2,0-0.3,0c-0.1,0-0.2,0-0.3,0c-0.4,0-0.5-0.1-0.5-0.4
			c0.5-0.3,0.8-0.5,1-0.8c0.2-0.2,0.3-0.5,0.3-0.7c0-0.2,0.1-0.4,0.1-0.5c0-0.1,0.1-0.2,0.3-0.2c0.3,0,0.5,0,0.8,0.1
			c0.2,0.1,0.4,0.3,0.4,0.7H38l0.3,1.1c0,0,0.1-0.2,0.4-0.4c0.2-0.2,0.5-0.5,0.8-0.8c0.3-0.3,0.6-0.5,0.8-0.7s0.4-0.3,0.5-0.3v2
			c0.3,0,0.7-0.2,1.2-0.6c0.5-0.4,1-0.6,1.4-0.6c0.2,0,0.5,0.1,0.8,0.3c0.3,0.2,0.4,0.4,0.4,0.6c0,0.3-0.2,0.6-0.6,0.8
			c-0.4,0.2-0.7,0.4-1,0.4c-0.1,0-0.2,0-0.3-0.1c-0.1-0.1-0.2-0.1-0.2-0.2c0,0,0,0.1,0,0.2c0,0.1,0,0.2,0,0.3c0,0.4,0.1,0.5,0.3,0.5
			c0.1,0,0.2,0,0.3-0.1c0.1-0.1,0.2-0.1,0.2-0.2C43,17.9,43,18.1,43,18.3c0,0.4,0.3,0.7,0.8,0.7c0.5,0,0.7-0.2,0.7-0.5
			c0-0.2-0.1-0.3-0.3-0.3c-0.2,0-0.3-0.1-0.3-0.3c0-0.1,0.1-0.3,0.3-0.4c0.2-0.1,0.4-0.3,0.7-0.4c0.2-0.1,0.5-0.3,0.7-0.4
			c0.2-0.2,0.3-0.3,0.3-0.5c0-0.1-0.1-0.3-0.2-0.4c-0.1-0.1-0.2-0.2-0.2-0.4c0-0.1,0.1-0.2,0.4-0.3s0.5-0.1,0.7-0.1
			c0,0.6-0.1,1.1-0.3,1.6c-0.2,0.5-0.6,0.9-1.3,1.1c0.2,0.1,0.4,0.2,0.6,0.4c0.2,0.2,0.4,0.3,0.6,0.3c0.1,0,0.2-0.1,0.4-0.3
			c0.2-0.2,0.3-0.3,0.4-0.3c0.4,0,0.6,0.2,0.7,0.7c0.1,0.5,0.2,0.9,0.2,1.3c0,0.3,0.1,0.5,0.3,0.6c0.2,0.1,0.5,0.2,0.8,0.3
			c0.3,0.1,0.5,0.2,0.8,0.4c0.2,0.2,0.3,0.5,0.3,0.9c0,0.4,0,0.7-0.1,0.8C49.9,23,49.6,23,49,23c-0.3,0-0.5,0-0.6-0.1
			c-0.1-0.1-0.3-0.1-0.4-0.1c-0.4,0.1-0.8,0.3-1.1,0.5c-0.4,0.2-0.8,0.4-1.3,0.4V23c0,0-0.3,0-0.6,0.1c-0.4,0.1-0.8,0.1-1.3,0.2
			c-0.5,0.1-0.9,0.2-1.3,0.3c-0.4,0.1-0.7,0.2-0.8,0.2c0,0-0.1,0-0.3,0.1c-0.1,0.1-0.2,0.1-0.3,0.1c-0.3,0-0.6-0.1-0.8-0.3
			c-0.2-0.2-0.5-0.3-0.8-0.3c-0.4,0-0.6,0.2-0.7,0.6c-0.1,0.4-0.3,0.6-0.6,0.6c-0.1,0-0.2-0.1-0.3-0.3c-0.1-0.2-0.2-0.4-0.4-0.5
			c-0.4,0.3-0.7,0.7-0.8,1.2h-2.4c-0.1-0.1-0.2-0.2-0.4-0.3c-0.2-0.1-0.3-0.2-0.3-0.2c-0.3,0-0.6,0.3-0.9,0.8
			c-0.4,0.5-0.5,0.9-0.5,1.2c0,0.4,0.1,0.8,0.2,1.1c0.1,0.4,0.2,0.8,0.2,1.3c0,0.6-0.1,1.1-0.2,1.5c-0.1,0.4-0.2,0.9-0.2,1.4
			c0,0.3,0,0.5,0.1,0.6c-0.1,0-0.2,0.1-0.4,0.2c-0.2,0.1-0.4,0.2-0.6,0.4c-0.2,0.1-0.5,0.3-0.8,0.5c0,0.1,0,0.2,0.1,0.4
			c0.1,0.2,0.1,0.3,0.1,0.3v0.1c0.1,0,0.2-0.1,0.3-0.1c0.1,0,0.2-0.1,0.2-0.2v0.1v0.1c0,0,0,0.1,0.1,0.1c0,0.2-0.1,0.4-0.3,0.7
			c-0.2,0.2-0.4,0.4-0.6,0.6c0.1,0,0.3,0.1,0.4,0.2c0.3,0.2,0.4,0.3,0.4,0.3c0,0.2-0.1,0.4-0.2,0.6c-0.1,0.2-0.2,0.4-0.2,0.6
			c0,0.2-0.1,0.4-0.1,0.6c0,0,0.1,0.1,0.2,0.2c0.1,0.1,0.1,0.1,0.2,0.1c0.2,0,0.3-0.1,0.4-0.3c0.1-0.2,0.2-0.4,0.2-0.6
			c0-0.2,0.1-0.5,0.1-0.8c0.2,0,0.3,0.2,0.3,0.4c0,0.2,0,0.4,0.1,0.7c0,0.2,0.1,0.5,0.1,0.8c0,0.3,0.2,0.5,0.3,0.6l-0.3,2.3
			c0,0-0.1,0.1-0.1,0.1c-0.2,0-0.4-0.1-0.6-0.4c-0.2-0.3-0.4-0.4-0.6-0.4c0,0-0.1,0-0.1,0c0,0,0,0-0.1,0h-0.1c0,0.6,0.2,1.2,0.5,1.9
			c0.3,0.6,0.8,1,1.6,1.2c0.1,0,0.2-0.1,0.4-0.2c0.2-0.1,0.3-0.2,0.4-0.2c-0.1,0.1-0.3,0.4-0.5,0.7c-0.2,0.3-0.5,0.6-0.7,1
			c-0.2,0.3-0.5,0.6-0.7,0.9c-0.2,0.2-0.4,0.4-0.5,0.4V48c-0.1,0-0.2,0.1-0.3,0.2c-0.1,0.1-0.2,0.2-0.2,0.3c0,0.4,0.2,0.7,0.5,1.2
			c0.4,0.4,0.7,0.6,1.1,0.6c0.1,0,0.2,0,0.4-0.1C32.7,50,32.8,50,33,50l-1.9,1.9c-0.1,0-0.2-0.1-0.3-0.1c-0.2,0-0.4,0.1-0.5,0.2
			c-0.1,0.2-0.2,0.4-0.2,0.6c0,0.2-0.1,0.5-0.1,0.7c0,0.2-0.1,0.4-0.2,0.5c0,0.2,0,0.5,0.1,0.9c0,0.4,0.1,0.8,0.1,1.3
			c0,0.4,0,0.9,0.1,1.2c0,0.4,0,0.7,0,0.8c0,0.2,0,0.4,0.1,0.4c0.1,0.1,0.1,0.1,0.2,0.2c0.1,0,0.1,0.1,0.2,0.2
			c0.1,0.1,0.1,0.2,0.1,0.4c0,0.1-0.1,0.4-0.3,0.7c-0.2,0.3-0.4,0.6-0.6,1c-0.2,0.3-0.5,0.7-0.7,1c-0.2,0.3-0.4,0.5-0.6,0.6
			c0.2,0,0.4,0.1,0.6,0.4c0,0.1-0.1,0.2-0.2,0.3c-0.1,0.1-0.2,0.2-0.3,0.2c-0.2,0-0.4-0.1-0.5-0.2c-0.1-0.2-0.3-0.3-0.4-0.5
			c-0.2-0.2-0.3-0.3-0.5-0.5C27,62,26.7,61.9,26.5,61.9z M7.9,18.9c0,0.4,0.2,0.5,0.5,0.5c0.3,0,0.5-0.2,0.5-0.5H7.9z M8.6,22
			l2.1,0.2l-0.3-2.5L8.6,22z M9.3,24.6l0.3-0.3l-0.7-1.2L9.3,24.6z M10.4,25.8c-0.2,0-0.4,0.2-0.6,0.6c-0.2,0.4-0.3,0.6-0.4,0.8
			c0.6,0.2,1.1,0.2,1.4,0C11,26.9,10.9,26.5,10.4,25.8z M10.1,22.5c-0.1,0-0.2,0.1-0.2,0.3c0,0.1,0.1,0.3,0.2,0.7
			c0.2,0.4,0.3,0.6,0.4,0.6c0.1,0,0.2-0.2,0.3-0.5C11,23.3,11,23.1,11,23c0-0.1-0.1-0.2-0.4-0.3C10.4,22.6,10.2,22.5,10.1,22.5z
			 M11.8,20.8c0,0,0.2,0,0.3-0.1c0.2-0.1,0.4-0.2,0.6-0.3c0.2-0.1,0.4-0.2,0.6-0.3c0.2-0.1,0.3-0.2,0.3-0.2c0,0-0.1-0.1-0.2-0.2
			c-0.2-0.1-0.3-0.1-0.5-0.2c-0.2,0-0.5-0.1-0.8-0.2L12,19.5L11.8,20.8z M12.2,21.5c-0.1,0-0.2,0.1-0.2,0.3c0,0.2,0.1,0.3,0.2,0.3
			c0.1,0,0.2-0.1,0.2-0.3C12.4,21.6,12.4,21.5,12.2,21.5z M12.5,21.9c-0.1,0-0.2,0.1-0.2,0.3c0,0,0.1,0.2,0.2,0.5
			c0.1,0.3,0.2,0.4,0.3,0.4c0.1,0,0.1-0.1,0-0.4c-0.1-0.3-0.1-0.5-0.1-0.5C12.7,21.9,12.6,21.9,12.5,21.9z M13.5,26.2h0.3V26h-0.3
			V26.2z M14.1,22.5c0.2,0,0.3,0.1,0.3,0.2c0,0.1,0,0.2,0,0.2c0-0.1,0-0.2,0-0.5c0-0.2-0.1-0.4-0.3-0.4l-0.3,0.3L14.1,22.5z
			 M14.3,24.9l0.3-0.3h-0.3V24.9z M16.7,22.2c-0.1,0-0.3,0.2-0.5,0.6c-0.3,0.4-0.4,0.6-0.4,0.7c0.6,0,0.9-0.1,1-0.2
			c0.1-0.1,0.2-0.4,0.2-0.8c0,0,0-0.1-0.1-0.2C16.8,22.2,16.8,22.2,16.7,22.2z M17.3,20.8c-0.1,0-0.2,0.1-0.2,0.3
			c0,0.1,0.1,0.2,0.2,0.2c0.1,0,0.2-0.1,0.2-0.2C17.5,20.9,17.4,20.8,17.3,20.8z M17.5,22.9c0,0.1,0,0.2,0.1,0.3
			c0.1,0.1,0.2,0.1,0.2,0.2c0,0,0-0.1,0.1-0.1c0,0,0-0.1-0.1-0.3c-0.1-0.1-0.2-0.2-0.3-0.2V22.9z M20.2,22.3c-0.1,0-0.2,0.1-0.2,0.3
			c0,0.2,0.1,0.3,0.2,0.3c0.1,0,0.2-0.1,0.2-0.3C20.4,22.4,20.4,22.3,20.2,22.3z M20.8,19.7H21L20.8,20V19.7z M26,47.4
			c-0.4,0-0.8,0.1-1.1,0.3c-0.3,0.2-0.5,0.5-0.5,1c0.4,0,0.8-0.1,1.1-0.3C25.8,48.2,26,47.9,26,47.4z M24.8,27.8c0,0,0-0.1-0.1-0.1
			c-0.1,0-0.1,0-0.1,0.1c0,0.1,0,0.1,0.1,0.1C24.7,27.9,24.8,27.8,24.8,27.8z M24.8,49.8c-0.1,0-0.1,0-0.1,0.1c0,0.1,0,0.1,0.1,0.1
			c0,0,0.1,0,0.1-0.1C24.8,49.8,24.8,49.8,24.8,49.8z M25,46.1c-0.1,0-0.2,0.1-0.2,0.3c0,0.2,0.1,0.3,0.2,0.3c0.1,0,0.2-0.1,0.2-0.3
			C25.2,46.2,25.1,46.1,25,46.1z M25.8,33.9c-0.1,0-0.1,0-0.1,0.1c0,0.1,0,0.2,0.1,0.2c0,0,0.1-0.1,0.1-0.2
			C25.9,34,25.9,33.9,25.8,33.9z M26.1,35.5c-0.1,0-0.2,0.1-0.2,0.3c0,0.2,0.1,0.3,0.2,0.3c0.1,0,0.2-0.1,0.2-0.3
			C26.3,35.6,26.2,35.5,26.1,35.5z M26.1,21.3h0.3v-0.2h-0.3V21.3z M26.3,44.2c0.2,0,0.3-0.1,0.4-0.2c0.1-0.2,0.1-0.3,0.1-0.4h-0.5
			V44.2z M30.3,21.3c-0.1,0-0.3,0.2-0.5,0.6c-0.3,0.4-0.4,0.6-0.4,0.7c0.6,0,0.9-0.1,1-0.2c0.1-0.1,0.2-0.4,0.2-0.8
			c0,0,0-0.1-0.1-0.2C30.5,21.3,30.4,21.3,30.3,21.3z M30.1,23c-0.1,0-0.2,0.1-0.2,0.3c0,0.2,0.1,0.3,0.2,0.3s0.2-0.1,0.2-0.3
			C30.3,23.1,30.2,23,30.1,23z M30.1,47.4h0.3v-0.2h-0.3V47.4z M30.3,44.5c-0.1,0-0.1,0-0.1,0.1c0,0.1,0,0.1,0.1,0.1
			c0,0,0.1,0,0.1-0.1C30.4,44.6,30.4,44.5,30.3,44.5z M31.1,44.1c-0.1,0-0.2,0.1-0.2,0.3c0,0.1,0.1,0.2,0.2,0.2
			c0.1,0,0.2-0.1,0.2-0.2C31.3,44.2,31.2,44.1,31.1,44.1z M31.4,28h0.3c0-0.2-0.1-0.4-0.3-0.5V28z M31.6,26.2h0.3L31.6,26V26.2z
			 M32.2,22.1c-0.1,0-0.2,0.2-0.3,0.5c-0.1,0.4-0.1,0.6-0.1,0.9c0.7,0,1-0.3,1-0.9c0-0.2,0-0.3-0.1-0.4
			C32.6,22.1,32.4,22.1,32.2,22.1z M32.1,18.5c0,0.5,0.2,0.7,0.6,0.7c0.3,0,0.4-0.1,0.5-0.3c-0.1-0.2-0.3-0.3-0.6-0.4
			C32.4,18.6,32.2,18.5,32.1,18.5z M33.8,22.8c-0.1,0-0.2,0.1-0.2,0.3c0,0.2,0.1,0.3,0.2,0.3c0.1,0,0.2-0.1,0.2-0.3
			C34,22.9,33.9,22.8,33.8,22.8z M33.8,20.2c0,0,0,0.1,0.1,0.2c0.1,0.1,0.1,0.1,0.2,0.1c0.2-0.2,0.4-0.3,0.5-0.4
			c0.1-0.1,0.1-0.2,0.1-0.4c0-0.3-0.1-0.5-0.3-0.8c-0.1,0.2-0.2,0.4-0.3,0.7C33.8,19.9,33.8,20.1,33.8,20.2z M34.6,22.2
			c-0.3-0.1-0.5-0.1-0.6,0c-0.1,0.1-0.2,0.2-0.2,0.4c0,0.1-0.1,0.2-0.1,0.3c0,0.1,0,0,0-0.2c0-0.3,0.1-0.5,0.3-0.5
			c0.1,0,0.2,0,0.3,0.1c0.1,0,0.2,0.1,0.2,0.1C34.6,22.4,34.6,22.3,34.6,22.2z M34.6,20.8c-0.2,0.1-0.3,0.2-0.3,0.3
			c0,0.1,0,0.3,0,0.4h0.7C34.9,21.3,34.8,21,34.6,20.8z M39.9,19.5c0,0.4,0,0.8,0.1,1.3c0,0.5,0.1,0.9,0.2,1.3
			c0.3,0,0.6-0.2,0.8-0.5c0.2-0.3,0.3-0.5,0.3-0.8h-1v-1.3H39.9z M40.2,22.5c-0.1,0-0.1,0-0.1,0.1c0,0.1,0,0.1,0.1,0.1
			c0,0,0.1,0,0.1-0.1C40.3,22.6,40.2,22.5,40.2,22.5z M40.7,17.7c0-0.1,0-0.1-0.1-0.1c-0.1,0-0.1,0-0.1,0.1c0,0.1,0,0.1,0.1,0.1
			C40.7,17.8,40.7,17.8,40.7,17.7z M41.3,19.7c-0.1,0-0.2,0.1-0.2,0.3c0,0.1,0.1,0.2,0.2,0.2c0.1,0,0.2-0.1,0.2-0.2
			C41.5,19.8,41.4,19.7,41.3,19.7z M41.8,18.7c0,0,0-0.1-0.1-0.1c-0.1,0-0.1,0-0.1,0.1c0,0.1,0,0.1,0.1,0.1
			C41.7,18.8,41.8,18.8,41.8,18.7z M43.4,15.6c-0.1,0-0.2,0.1-0.2,0.3c0,0.1,0.1,0.2,0.2,0.2c0.1,0,0.2-0.1,0.2-0.2
			C43.6,15.7,43.5,15.6,43.4,15.6z M44.7,19.5c-0.2,0.1-0.3,0.2-0.3,0.3c0,0.1,0,0.3,0,0.4H45L44.7,19.5z M46.6,19.5
			c0,0.2,0,0.4,0.1,0.5c0.1,0.2,0.2,0.3,0.3,0.3c0.1,0,0.2-0.1,0.3-0.2c0.1-0.1,0.1-0.2,0.1-0.3c0-0.2-0.1-0.3-0.2-0.3
			c-0.1,0-0.2,0-0.3,0c0,0-0.1,0-0.1,0C46.7,19.5,46.6,19.5,46.6,19.5z M48.2,21.1c-0.4,0-0.6,0.2-0.7,0.5c-0.1,0.4-0.1,0.7-0.1,1
			h0.5c0,0,0.1-0.2,0.2-0.7C48.1,21.4,48.2,21.1,48.2,21.1z M48.4,21.3c-0.1,0-0.2,0.1-0.2,0.3c0,0.2,0.1,0.3,0.2,0.3
			c0.1,0,0.2-0.1,0.2-0.3C48.6,21.4,48.6,21.3,48.4,21.3z"/>
		<path class="st1" d="M58.9,58.6c0,0,0.1-0.1,0.2-0.3c0.1-0.2,0.1-0.3,0.1-0.4v-0.2v-0.1c0-0.1,0-0.2-0.1-0.3S58.9,57,58.9,57
			c-0.5,0.1-0.9,0.3-1.3,0.8c-0.4,0.4-0.5,0.9-0.5,1.4v0.2c0,0.1,0.2,0.3,0.4,0.5c0.2,0.3,0.3,0.4,0.3,0.5c0,0.2-0.2,0.3-0.5,0.4
			c-0.4,0-0.6,0-0.7,0c-0.1,0-0.2,0-0.4,0c-0.2,0-0.3,0-0.4,0c-0.2,0-0.3-0.1-0.4-0.3c-0.1-0.2-0.1-0.3-0.2-0.5
			c0-0.2-0.1-0.4-0.2-0.5c-0.1-0.2-0.2-0.3-0.4-0.4c-0.7-0.3-1.2-0.7-1.6-1.1c-0.4-0.4-0.7-0.8-0.9-1.3c-0.2-0.5-0.4-1-0.5-1.5
			c-0.1-0.6-0.2-1.2-0.4-1.9c0-0.1,0-0.2-0.1-0.2c-0.1-0.1-0.2-0.1-0.2-0.1c0,0-0.1,0-0.2,0.1c-0.1,0.1-0.1,0.1-0.1,0.2
			c0,0.1-0.1,0.4-0.1,0.9c0,0.4,0,0.7,0.1,0.8l-0.7,0.4c0.2-0.4,0.1-0.8-0.2-1.4c-0.3-0.6-0.5-1.1-0.5-1.5c0-0.4,0.1-0.8,0.4-1
			c0.2-0.2,0.4-0.6,0.4-1.1c0-0.4,0-0.7-0.1-1c0-0.3-0.1-0.7-0.3-1.2c-0.3,0.4-0.5,0.8-0.6,1.4c-0.2,0.6-0.3,1-0.4,1.4
			c-0.3-0.1-0.4-0.2-0.4-0.5c0-0.2,0-0.4,0-0.5c0-0.4,0-1.1,0.1-2.2c0.1-1,0.2-2.1,0.3-3.2c0.1-1.1,0.3-2.1,0.5-3.1
			c0.2-0.9,0.4-1.5,0.5-1.8c0.3-0.4,0.6-0.7,0.7-0.9c0.2-0.2,0.3-0.4,0.5-0.5c0.2-0.2,0.3-0.3,0.5-0.6c0.2-0.2,0.4-0.6,0.7-1.1
			c0-0.1,0.1-0.2,0.1-0.3c0-0.1,0.1-0.1,0.1-0.1l1.7,0.6l0.7,2.8h0.9c0,0.1,0,0.4,0,0.8c0,0.5,0.1,0.7,0.1,0.8
			c0,0.1,0.1,0.2,0.1,0.3c0,0.1,0,0.2,0.1,0.3c0,0,0.1,0.1,0.1,0.1c0,0.1,0,0.4-0.1,0.8c-0.1,0.4-0.2,0.7-0.2,0.8
			c0,0.1-0.2,0.3-0.4,0.5c-0.2,0.3-0.3,0.4-0.4,0.5c0,0,0,0.2,0,0.4c0,0.2,0,0.4,0,0.7c0,0.2,0,0.4,0,0.7c0,0.2,0,0.4,0,0.4
			c0,0-0.1,0.1-0.3,0.3c-0.2,0.1-0.3,0.2-0.3,0.3v1.1c0,0.4,0,0.7,0.1,1.1c0.1,0.4,0.4,0.6,0.9,0.6c1.1,0,2.1-0.3,3-0.8
			c0.8-0.6,1.6-1.2,2.2-2.1c0.6-0.8,1.1-1.8,1.6-2.8c0.4-1,0.9-1.9,1.3-2.8c0.4-0.8,0.8-1.5,1.2-2.1c0.4-0.6,0.8-0.8,1.4-0.8
			c0.5,0,0.9,0.2,1.3,0.6c0.4,0.4,0.7,0.9,1,1.4c0.3,0.6,0.5,1.1,0.6,1.7c0.1,0.6,0.2,1.1,0.3,1.5c0.2-0.2,0.3-0.3,0.5-0.2
			c0.1,0.1,0.2,0.2,0.3,0.4c0.1,0.2,0.2,0.4,0.2,0.8l0.7-0.7c0.1,0,0.2,0,0.2,0.1c0.1,0.1,0.1,0.2,0.1,0.2c0,0-0.1,0.2-0.2,0.4
			c-0.1,0.2-0.2,0.3-0.2,0.4v0.5c0,0.4,0.1,0.7,0.4,0.9s0.6,0.3,0.9,0.4c0.4,0.1,0.7,0.1,1.1,0s0.7-0.1,0.9-0.1
			c0.1,0.5,0.4,0.9,0.8,1.1c0.4,0.3,0.8,0.5,1.3,0.7c0.5,0.2,0.9,0.3,1.4,0.4c0.5,0.1,0.9,0.3,1.3,0.4c0,0,0.2,0.2,0.3,0.3
			c0.2,0.2,0.3,0.3,0.4,0.3c0,0,0.1,0,0.3-0.1c0.2-0.1,0.3-0.2,0.3-0.2h0.2h0.2c0,0,0.2,0,0.4,0.1c0.2,0.1,0.4,0.1,0.6,0.2
			c0.2,0.1,0.4,0.1,0.7,0.2c0.2,0.1,0.4,0.1,0.4,0.2h0.2H83c0.3-0.1,0.7-0.3,1.2-0.4c0.5-0.1,0.9-0.2,1.4-0.4
			c0.4-0.2,0.8-0.4,1.1-0.6c0.3-0.2,0.5-0.6,0.5-1c0-0.6-0.1-1.3-0.4-2.1c-0.2-0.8-0.6-1.6-1-2.4c-0.4-0.8-0.8-1.5-1.3-2.2
			c-0.5-0.7-1-1.2-1.5-1.5c-0.3-0.1-0.6-0.3-1.1-0.6c-0.5-0.3-0.9-0.5-1.4-0.8c-0.5-0.3-0.9-0.6-1.2-1c-0.3-0.4-0.5-0.7-0.5-1.1
			c0,0,0-0.1,0-0.3c0-0.2,0-0.3,0-0.3l0.7,0.6c0.1-0.7,0.2-1.4,0.3-2.2c0.1-0.8,0.2-1.5,0.3-2.3c0.5-0.2,0.9-0.4,1.1-0.6
			c0.2-0.2,0.4-0.5,0.4-1c0,0,0.1-0.1,0.2-0.1c0.1,0,0.3,0,0.4,0c0.1,0,0.2,0,0.3,0.1c0.1,0,0,0-0.1,0c0-0.1,0.1-0.1,0.3,0.1
			C82.9,31,83,31,83.1,31c0.5-0.1,0.7-0.1,0.7,0.1c0,0.2-0.1,0.4-0.1,0.7c0,0.1,0.1,0.2,0.2,0.3c0.1,0.1,0.3,0.2,0.4,0.4
			c0.1,0.1,0.2,0.2,0.3,0.3c0.1,0.1,0.1,0.2-0.1,0.2l-0.3,1.8c0,0,0,0.3,0,0.8c0,0.5,0.1,0.9,0.4,1h0.2H85c0-0.6,0-1-0.1-1.4
			c0-0.4-0.1-0.8-0.1-1.4c0,0,0-0.1,0.1-0.2c0-0.1,0.1-0.2,0.1-0.3c0-0.1,0.1-0.3,0.2-0.5c0.1,0,0.2,0.1,0.4,0.2
			c0.2,0.1,0.3,0.2,0.3,0.2c0,0,0.1,0.1,0.3,0.2c0.1,0.2,0.2,0.2,0.3,0.1c0.1,0.3,0.2,0.7,0.4,1c0.2,0.4,0.3,0.7,0.6,1.1
			c0.2,0.3,0.5,0.6,0.7,0.8c0.2,0.2,0.5,0.3,0.7,0.3v-0.9h0.4c0.1,0,0.3,0.2,0.5,0.5c0.2,0.4,0.4,0.6,0.5,0.9c0,0.1,0.1,0.4,0.2,0.8
			c0.1,0.4,0.2,0.8,0.3,1.2c0.1,0.4,0.2,0.8,0.3,1.2c0.1,0.4,0.1,0.7,0.1,0.8c0.2,0.4,0.3,0.5,0.4,0.5c0.1,0,0.2-0.1,0.3-0.2
			c0.1-0.1,0.2,0,0.3,0.1c0.1,0.1,0.2,0.6,0.4,1.3c0,0.1,0.1,0.2,0.2,0.3c0.1,0.1,0.2,0.1,0.3,0.1l-1.4,3.8c0,0.1,0,0.1,0.2,0.1
			c0.2,0,0.4,0,0.7,0.1c0.3,0,0.5,0.1,0.7,0.2c0.2,0.1,0.4,0.2,0.4,0.3c0.2,0.5,0.3,1,0.3,1.5c0,0.5,0.1,1,0.1,1.5
			c0,0.7-0.2,1.3-0.7,1.8c-0.4,0.5-0.9,0.9-1.5,1.3c-0.1-0.1-0.3-0.2-0.4-0.4c-0.1-0.2-0.2-0.4-0.3-0.6l-0.3,0.3c0,0,0,0.2-0.1,0.3
			c-0.1,0.2-0.1,0.4-0.2,0.6c-0.1,0.2-0.1,0.4-0.2,0.5c-0.1,0.2-0.1,0.2-0.2,0.2c-0.1,0.1-0.3,0.1-0.7,0.1c-0.4,0-0.6-0.1-0.7-0.1
			c-0.1,0.1-0.1,0.2-0.2,0.4c0,0.2-0.1,0.4-0.1,0.6c0,0.2-0.1,0.4-0.2,0.6c-0.1,0.2-0.2,0.3-0.5,0.3c0-0.2,0-0.3-0.1-0.5
			c0-0.2-0.2-0.3-0.3-0.3c-0.1,0-0.2,0.1-0.4,0.3c-0.2,0.2-0.3,0.3-0.3,0.4c0,0,0,0.2,0.1,0.5c0.1,0.3,0.2,0.4,0.2,0.5v0.1
			c0,0.4-0.1,0.9-0.2,1.6c-0.2,0.7-0.4,1.1-0.8,1.3c0,0,0-0.1-0.1-0.2c-0.1-0.1-0.2-0.1-0.2-0.2v-0.1c0-0.4,0.1-0.7,0.2-1
			c0.1-0.3,0.2-0.7,0.2-1c-0.4,0-0.5,0.1-0.5,0.4c0,0.3-0.1,0.5-0.5,0.8c-0.4-0.2-0.6-0.5-0.7-0.8c-0.1-0.3-0.3-0.6-0.6-0.9l0.3-0.3
			c-0.1-0.2-0.3-0.3-0.7-0.1c-0.4,0.2-0.7,0.2-0.8,0.2c0-0.1,0.1-0.3,0.2-0.4l0.3-0.4c0-0.1,0.1-0.2,0.3-0.4
			c0.2-0.2,0.3-0.3,0.4-0.3c0,0,0.1,0,0.3,0.1c0.2,0,0.2,0.1,0.2,0.2V56c0-0.4-0.3-0.6-0.8-0.7c-0.5-0.1-0.9-0.2-1.1-0.2
			c0-0.1,0-0.2-0.1-0.3l-0.1-0.3c0-0.1-0.1-0.2-0.3-0.3c0.1,0,0.2-0.1,0.4-0.2c0.2-0.1,0.3-0.1,0.4-0.2l-0.1-0.1c0,0-0.1,0-0.1-0.1
			c-0.7,0-1.1,0.2-1.4,0.7c-0.3,0.5-0.6,1.1-0.9,1.8c-0.2-0.2-0.4-0.3-0.5-0.1c-0.1,0.1-0.2,0.3-0.3,0.6c-0.1,0.2-0.2,0.5-0.3,0.7
			c-0.1,0.2-0.3,0.3-0.6,0.3c-0.1,0-0.2-0.1-0.4-0.3C78,57.1,77.9,57,77.9,57h-0.1c0,0-0.1,0-0.1-0.1c0,0-0.1,0-0.1,0c0,0,0,0-0.1,0
			h-0.1c-0.2,0.1-0.4,0.3-0.4,0.5c-0.1,0.3-0.1,0.6-0.2,0.9c0,0.3,0,0.7,0,1.2c-0.1-0.5-0.3-0.9-0.6-1.1c-0.2-0.2-0.5-0.3-0.8-0.4
			S75,58,74.8,58c-0.2,0-0.4-0.2-0.4-0.4c0.1-0.3,0.1-0.6,0.1-0.8c0-0.2,0-0.4-0.1-0.6s-0.2-0.3-0.4-0.3c0,0.4-0.2,0.7-0.6,0.9
			c-0.5,0.1-0.8,0.2-1,0.2c0.1-0.6,0.1-1.1,0-1.5c-0.1-0.4-0.4-0.7-1-0.7c-0.4,0-0.6,0.1-0.8,0.3c-0.2,0.2-0.3,0.5-0.4,0.8
			c-0.2-0.2-0.3-0.4-0.4-0.7c-0.1-0.3-0.2-0.6-0.3-0.9c-0.1-0.3-0.2-0.6-0.4-0.8c-0.2-0.2-0.4-0.3-0.6-0.3c-0.3,0-0.5,0-0.6,0.1
			c-0.1,0.1-0.3,0.3-0.4,0.5l-1.1-1.3h-0.5c0,0.7,0,1.1-0.1,1.4c-0.1,0.2-0.2,0.4-0.3,0.5c-0.1,0.1-0.2,0.2-0.3,0.2
			c-0.1,0.1-0.1,0.3-0.1,0.6c0,0,0.1,0.2,0.2,0.4c0.1,0.2,0.2,0.3,0.2,0.4V56c0,0.4-0.1,0.7-0.4,1c-0.2,0.3-0.5,0.5-0.8,0.8
			c-0.3,0.2-0.6,0.4-0.9,0.6c-0.3,0.2-0.5,0.3-0.6,0.3c0,0-0.1,0.2-0.3,0.5c-0.2,0.3-0.3,0.4-0.4,0.5c0,0.1-0.1,0.2-0.1,0.4
			c0,0.2-0.1,0.3-0.1,0.3c0,0-0.1,0.1-0.1,0.1h-0.1l-0.2-0.1c0,0-0.1-0.2-0.1-0.5c0-0.3-0.1-0.5-0.1-0.5l-0.1-0.1
			c-0.2,0-0.4,0.1-0.5,0.3c-0.1,0.2-0.2,0.4-0.2,0.6c0,0.2-0.1,0.4,0,0.6c0,0.2,0,0.4,0,0.4c-0.4,0-0.6-0.1-0.7-0.4
			c-0.1-0.3-0.1-0.6-0.1-0.9c0-0.3,0-0.6-0.1-0.9C59.4,58.6,59.2,58.5,58.9,58.6z M49.9,42c-0.1,0-0.1,0-0.1,0.1
			c0,0.1,0,0.2,0.1,0.2c0.1,0,0.2,0,0.2-0.1C50.1,42.1,50.1,42,49.9,42z M54.3,57.1c0,0.2,0,0.4,0,0.7c0,0.3,0.1,0.4,0.4,0.5
			c0,0,0.1,0,0.2-0.1C55,58,55,58,55,57.9l0.1-0.2c0-0.2-0.1-0.4-0.3-0.5C54.7,57.2,54.5,57.1,54.3,57.1z M57.5,52.6
			c-0.1,0-0.3,0.2-0.6,0.6c-0.2,0.3-0.5,0.7-0.8,1.1s-0.5,0.8-0.7,1.2c-0.2,0.4-0.3,0.6-0.3,0.8h0.5l1.7-2.7V52.6z M56.8,57.5
			c-0.3,0-0.5,0.1-0.6,0.4c-0.1,0.2-0.2,0.5-0.2,0.7h0.7V57.5z M59.8,54.8c0,0.4,0,1,0,1.7s0.1,1.3,0.4,1.8v-2.3
			c0,0,0.1-0.2,0.2-0.4c0.1-0.2,0.2-0.3,0.2-0.4c0-0.2-0.1-0.3-0.3-0.4C60,54.8,59.8,54.8,59.8,54.8z M62.5,51.2l0.3-0.3l-0.3-0.4
			l-0.3,0.4L62.5,51.2z M62.9,49.4c0-0.1,0-0.2-0.2-0.2c-0.2,0-0.2,0.1-0.2,0.2c0,0.1,0.1,0.2,0.2,0.2
			C62.8,49.6,62.9,49.6,62.9,49.4z M64.6,56.6h0.3l-0.3-0.4V56.6z M67,48.7c0,0.1,0,0.2,0.1,0.4c0.1,0.2,0.2,0.3,0.2,0.3
			c0,0,0,0.1,0.1,0.1h0.1c0,0,0.1,0,0.1-0.1c0.1-0.3,0.4-0.7,0.8-1.2c0.4-0.5,0.6-0.9,0.6-1.2c0-0.2,0-0.3-0.1-0.5
			c-0.1-0.2-0.2-0.2-0.4-0.2c0,0-0.1,0-0.1,0c0,0,0,0-0.1,0h-0.1c-0.3,0.2-0.6,0.5-0.9,1c-0.3,0.4-0.4,0.8-0.4,1.2V48.7z M71.7,50.8
			h0.8c0-0.5-0.2-0.7-0.6-0.7c0,0,0,0.1-0.1,0.1h-0.1V50.8z M75.1,57.3l0.3,0.3c0.3-0.1,0.4-0.3,0.5-0.5c0-0.2,0.1-0.5,0.1-0.6
			c-0.2,0-0.4,0-0.6,0.1c-0.2,0.1-0.3,0.3-0.3,0.5V57.3z M75.4,53.1l0.3-0.3h-0.3V53.1z M76.5,50.2c0,0,0.1,0.2,0.2,0.5
			c0.1,0.3,0.2,0.4,0.2,0.5c0-0.1,0.1-0.2,0.2-0.4s0.1-0.3,0.1-0.3v-0.2v-0.1c0,0,0-0.1-0.1-0.2c-0.1-0.1-0.1-0.2-0.2-0.2
			c0,0-0.1,0.1-0.2,0.2C76.5,50,76.5,50.1,76.5,50.2z M76.5,52.2c0.1,0.2,0.2,0.5,0.4,0.7c0.2,0.3,0.4,0.5,0.6,0.6
			c0.3,0,0.4-0.2,0.4-0.4c0-0.2,0-0.4,0-0.5s0-0.3,0-0.6c0-0.3-0.2-0.5-0.4-0.5c-0.1,0-0.3,0.1-0.5,0.2C76.7,51.9,76.6,52,76.5,52.2
			z M76.5,53.8h0.4l-0.4-0.3V53.8z M79.6,54.5c-0.2,0-0.3,0.1-0.3,0.3c0,0.2,0.1,0.3,0.3,0.3c0.1,0,0.2-0.1,0.2-0.3
			C79.8,54.7,79.7,54.5,79.6,54.5z M80.6,37.6c0,0.1,0,0.2,0.1,0.2c0.1,0.1,0.2,0.1,0.2,0.1c0.3,0,0.6-0.2,1-0.5
			c0.3-0.3,0.5-0.6,0.5-0.9c0-0.6-0.4-0.9-1.1-0.9L80.6,37.6z M86.1,55.4c-0.4,0-0.6,0.1-0.7,0.4c-0.1,0.3-0.2,0.5-0.2,0.8h0.2
			c0.4,0,0.6-0.1,0.6-0.4C86.1,55.9,86.1,55.6,86.1,55.4z M86.3,50.8c-0.4,0.2-0.6,0.6-0.7,1.2c-0.1,0.6-0.1,1.1-0.1,1.4h0.8V50.8z
			 M88.4,40h0.3v-0.3h-0.3V40z M91,51.8c0.1,0,0.3,0.1,0.5,0.2c0.3,0.1,0.4,0.1,0.5,0.1c0.2,0,0.3-0.1,0.3-0.3c0-0.2,0-0.3,0-0.4
			c0-0.2,0-0.3-0.1-0.5c-0.1-0.2-0.2-0.2-0.4-0.2c0,0-0.1,0-0.1,0s0,0-0.1,0h-0.1L91,51.5v0.1V51.8z M92.4,49.4h0.5v-0.7h-0.5V49.4z
			"/>
		<path class="st1" d="M111.6,61.6c-0.1-0.4-0.3-0.7-0.5-1c-0.3-0.3-0.6-0.4-0.9-0.4c-0.3,0-0.6,0.2-0.8,0.4
			c-0.2,0.2-0.5,0.4-0.8,0.4c-0.4,0.1-0.8,0-1-0.1c-0.2-0.2-0.4-0.4-0.5-0.7c-0.1-0.3-0.2-0.6-0.2-1c0-0.4-0.1-0.8-0.1-1.1
			c-0.3,0.1-0.6,0.2-1,0.2c-0.3,0-0.5,0.3-0.4,0.8c-0.2-0.4-0.7-0.9-1.3-1.3c-0.6-0.4-1.2-0.6-1.8-0.6c0-0.2-0.1-0.7-0.2-1.4
			c-0.1-0.7-0.2-1.2-0.3-1.4c0-0.2,0-0.4-0.1-0.8c0-0.3-0.1-0.6-0.1-0.9c0-0.3-0.1-0.7-0.1-1.2c0-0.4,0-1,0-2c0-1,0-2,0-3.1
			c0-1.1,0-2.1,0-3.1c0-1,0-1.7,0-2.1c0.1-0.6,0.1-1.2,0.1-2s0.1-1.3,0.2-1.8c0-0.1,0-0.2,0.2-0.4c0.2-0.2,0.3-0.3,0.3-0.4
			c0-0.5,0.1-0.9,0-1.3c0-0.4,0-0.7,0-1.1c0-0.3,0.1-0.7,0.3-1c0.2-0.4,0.4-0.7,0.8-1.1V32c0,0,0-0.1,0-0.1c0,0,0,0,0-0.1l0.3,0.1
			c0.1,0,0.2,0.1,0.3,0.2c0.1,0.2,0.2,0.2,0.3,0.2c0.1,0,0.3,0.1,0.6,0c0.3,0,0.5-0.1,0.5-0.1l1,1.9c0.1,0,0.2,0.1,0.3,0.1
			c0.1,0,0.2,0.1,0.2,0.1c0,0,0.1,0,0.1,0.1l0.1,0.1c0,0,0,0.1,0.1,0.1l-0.1,0.1c0,0,0,0.1,0,0.3c0,0.2,0,0.3,0,0.4
			c0.3-0.1,0.6-0.2,1-0.2c0.4,0,0.7,0.1,1.1,0.2c0.3,0.1,0.6,0.3,0.9,0.5c0.3,0.2,0.4,0.6,0.5,1c0,0.3-0.1,0.5-0.4,0.7
			c-0.3,0.2-0.6,0.4-1,0.7c-0.4,0.2-0.7,0.4-1.1,0.7c-0.3,0.2-0.5,0.4-0.6,0.6c-0.1,0.3-0.1,0.5,0.1,0.7s0.5,0.3,0.8,0.5
			c0.3,0.2,0.6,0.3,0.9,0.5c0.3,0.2,0.4,0.4,0.4,0.7c0,0.3-0.1,0.5-0.3,0.6c-0.2,0.1-0.4,0.2-0.6,0.2c-0.2,0-0.5,0.1-0.7,0.2
			s-0.5,0.2-0.6,0.5c-0.1,0.2-0.1,0.5,0.1,0.7c0.2,0.2,0.3,0.5,0.5,0.7c0.2,0.2,0.3,0.4,0.5,0.6c0.1,0.2,0.2,0.4,0.1,0.5
			c-0.1,0.3-0.2,0.4-0.4,0.5c-0.2,0.1-0.4,0.1-0.5,0.2c-0.2,0-0.3,0.1-0.5,0.3s-0.2,0.4-0.1,0.7c0,0.2,0.1,0.4,0.2,0.6
			c0.2,0.2,0.3,0.3,0.6,0.3c0.3,0,0.4-0.1,0.3-0.3c-0.1-0.2,0-0.4,0.1-0.8h0.1l0.1-0.1c0,0,0.1,0,0.1,0.1c0,0.1,0.1,0.2,0.1,0.2
			c0,0.5,0,0.9-0.1,1c-0.1,0.2-0.2,0.3-0.4,0.4c-0.2,0.1-0.3,0.3-0.4,0.4c-0.1,0.2-0.1,0.5,0,1.1c0.4,0,0.7,0,0.8,0
			c0.1,0,0.3,0,0.5-0.3v0.1c0.1,0.6,0,1.1-0.1,1.6c-0.2,0.5-0.2,1-0.1,1.5c0,0.4,0.1,0.7,0.3,0.9c0.1,0.2,0.5,0.3,1,0.5
			c0.4-0.2,0.8-0.4,1.3-0.4c0.5-0.1,1-0.2,1.4-0.3c0.5-0.1,0.9-0.3,1.3-0.5c0.4-0.2,0.6-0.5,0.8-1c0.1,0,0.2,0.1,0.4,0.2
			c0.2,0.1,0.3,0.1,0.4,0.1h0.1c0.4,0,0.6-0.1,0.8-0.2c0.2-0.1,0.3-0.2,0.6-0.2l0.3,0.1c0,0,0.1,0,0.1,0c0,0,0.1,0,0.2,0
			c0.1,0,0.2,0.1,0.3,0.1c0,0,0.1,0,0-0.1c0-0.1,0.3-0.1,0.9-0.2c-0.1,0-0.3,0.1-0.4,0.1h-0.4l0.1-0.1c0.1,0,0.2,0,0.3,0.1
			c0.1,0.1,0.2,0.1,0.2,0.1c0-0.1,0.1-0.3,0.2-0.6c0.1-0.3,0.2-0.5,0.2-0.6c0.1,0,0.2-0.1,0.4-0.2s0.3-0.2,0.4-0.2
			c0-0.1,0.1-0.3,0.2-0.5c0.1-0.2,0.1-0.4,0.1-0.4h0.1c0.4,0,0.7,0.2,0.7,0.5c0,0,0,0.1,0,0.1c0,0,0,0.1,0,0.1V51
			c0,0-0.1,0.2-0.3,0.4c-0.2,0.2-0.2,0.4-0.2,0.5c0,0.1,0,0.2,0,0.4c0,0.2,0,0.4,0.1,0.7c0,0.3,0.1,0.5,0.1,0.7
			c0,0.2,0.1,0.4,0.1,0.5c-0.1,0.3-0.2,0.4-0.4,0.5c-0.2,0.1-0.4,0.1-0.6,0.2c-0.2,0-0.4,0.1-0.5,0.2c-0.1,0.1-0.2,0.3-0.1,0.5
			c0,0.3,0.2,0.4,0.5,0.4c0,0,0.1,0,0.1-0.1c0.2-0.1,0.5-0.3,1-0.5c0.4-0.3,0.7-0.4,0.8-0.5l0.2,0.3c-0.1,0.1-0.3,0.4-0.5,0.8
			c-0.3,0.4-0.6,0.9-0.9,1.3c-0.3,0.5-0.6,0.9-0.9,1.3c-0.3,0.4-0.5,0.6-0.6,0.6c-0.1,0-0.3,0.1-0.4,0.1c-0.3,0-0.4-0.1-0.4-0.2
			c0,0,0-0.2,0.1-0.3c0-0.2,0.1-0.3,0.1-0.4v-0.1c0,0,0-0.1,0-0.1c0,0,0-0.1,0-0.2c0-0.2-0.1-0.4-0.2-0.7c-0.2-0.2-0.3-0.4-0.5-0.5
			l-0.8,1l0.7,0.5c0,0.2-0.2,0.4-0.5,0.5c-0.3,0.1-0.5,0.3-0.7,0.5c-0.2,0.4-0.4,0.8-0.4,1.1c-0.1,0.3-0.1,0.5-0.2,0.7
			c-0.1,0.2-0.2,0.3-0.4,0.4c-0.2,0.1-0.6,0.2-1.2,0.2c-0.4,0.1-0.8,0.1-1.1,0.1C112.6,61.8,112.2,61.7,111.6,61.6z M105.7,27.5
			c0,0-0.2,0.1-0.4,0.2c-0.2,0.1-0.3,0.2-0.4,0.2h-0.1h-0.1c-0.1,0-0.2,0-0.2,0c-0.1,0-0.1-0.1-0.1-0.1c-0.5-0.8-0.9-1.7-1.3-2.7
			c-0.4-1-0.6-1.9-0.7-2.8c0-0.1,0.1-0.3,0.3-0.8c0.2-0.4,0.4-0.9,0.6-1.3c0.2-0.4,0.5-0.9,0.8-1.2c0.3-0.4,0.5-0.6,0.6-0.6
			c0,0,0.2,0,0.6,0.1c0.4,0.1,0.7,0.1,1.2,0.2c0.4,0.1,0.8,0.2,1.3,0.2c0.4,0.1,0.7,0.1,0.8,0.1c0.1,0.1,0.2,0.2,0.3,0.3
			c0.1,0.1,0.2,0.2,0.3,0.3c0.1,0.1,0.2,0.2,0.3,0.3c0.1-0.2,0.2-0.3,0.4-0.4c0.2,0,0.3-0.1,0.6-0.2c0.2,0,0.3,0.1,0.4,0.2
			c0.1,0.1,0.2,0.2,0.2,0.4c0.1,0.2,0.1,0.3,0.2,0.4c0.1,0.1,0.2,0.2,0.4,0.2c0,0,0.1-0.1,0.3-0.2c0.1-0.1,0.2-0.2,0.3-0.2
			c0,0,0.1,0,0.1-0.1c0,0,0.1,0,0.1,0c0,0,0.1,0,0.1,0c0.1,0.6,0,1.1-0.1,1.4l0.5-0.1c0,0.1,0,0.3-0.1,0.7c0,0.4-0.1,0.6-0.1,0.8
			c0,0.1,0.2,0.4,0.3,0.7c0.2,0.3,0.3,0.5,0.4,0.6c0,0.1-0.1,0.3-0.2,0.6c-0.1,0.3-0.2,0.6-0.3,1s-0.3,0.6-0.5,0.9
			c-0.2,0.3-0.4,0.4-0.6,0.4c0,0-0.1,0-0.3,0c-0.2,0-0.3,0-0.4,0c-0.1,0-0.3,0-0.5-0.1c-0.1,0-0.2-0.1-0.3-0.1
			c-0.3,0.1-0.6,0.3-0.8,0.4c-0.2,0.2-0.4,0.3-0.6,0.5c-0.2,0.2-0.4,0.3-0.7,0.4c-0.2,0.1-0.6,0.2-1,0.2c-0.4,0.1-0.7,0-0.8-0.3
			C106.3,27.6,106.1,27.4,105.7,27.5z M104.9,20.5c-0.1,0-0.1,0.2-0.1,0.3c0,0.2,0.1,0.2,0.2,0.2c0.1,0,0.2-0.1,0.2-0.3
			C105.1,20.6,105,20.5,104.9,20.5z M108,34.1c0.1,0,0.2,0.1,0.2,0.3c0,0.2,0,0.3-0.2,0.3c-0.2,0-0.3-0.1-0.3-0.3
			C107.7,34.2,107.8,34.1,108,34.1z M111.3,22c0.1-0.1,0.1-0.1-0.1-0.1c-0.1,0-0.2,0-0.1,0.1c0,0.1,0,0.2,0.1,0.2
			C111.2,22.2,111.3,22.1,111.3,22z M111.3,59.1c-0.1,0-0.1,0.1-0.1,0.2c0,0.1,0,0.2,0.1,0.1C111.4,59.4,111.4,59.2,111.3,59.1z
			 M111.7,55.5v-0.4l-0.3,0.1L111.7,55.5z M113.6,60.7c0-0.1-0.1-0.1-0.2-0.1c-0.1,0-0.2,0-0.2,0.1
			C113.5,60.9,113.6,60.9,113.6,60.7z M115.1,57.1c-0.4,0-0.7,0.2-1,0.3s-0.4,0.4-0.5,0.6c0,0.2,0,0.5,0.2,0.7
			c0.2,0.2,0.5,0.4,1,0.5c0,0,0.1-0.1,0.2-0.4c0.1-0.2,0.1-0.5,0.1-0.8c0-0.3,0-0.5,0-0.8C115.2,57.1,115.2,57,115.1,57.1z
			 M121.1,49.4c0.1,0,0.1,0,0.2,0c0,0.1,0,0.1,0,0.2c-0.1,0.1-0.2,0.1-0.2,0C121,49.4,121,49.4,121.1,49.4z"/>
		<path class="st1" d="M135.7,60c-0.1,0-0.3,0.2-0.5,0.3c-0.3,0.2-0.4,0.3-0.5,0.3c-0.4,0.1-0.9-0.1-1.4-0.4s-1-0.6-1.4-0.6
			c-0.2,0-0.4,0-0.5,0.1s-0.2,0.2-0.2,0.3s-0.2,0.2-0.3,0.3c-0.1,0.1-0.4,0.1-0.7,0.1v-1.1c0,0-0.1,0.1-0.2,0.1
			c-0.2,0.1-0.3,0.1-0.3,0.1c-0.1,0-0.3-0.2-0.5-0.5c-0.2-0.3-0.4-0.6-0.5-0.9c-0.2-0.3-0.3-0.6-0.5-0.9c-0.1-0.3-0.2-0.5-0.2-0.6
			c0-0.1,0-0.3,0-0.4c0-0.1,0.1-0.2,0.4-0.3c-0.4,0-0.7-0.1-1.1-0.2c-0.4-0.1-0.6-0.2-0.9-0.4c-0.2-1.3-0.4-2.5-0.6-3.5
			c-0.2-1.1-0.2-2.3-0.2-3.5c0-0.8,0-1.6,0-2.4c0-0.8,0.1-1.6,0.3-2.4c0-0.1,0.1-0.3,0.3-0.7c0.2-0.4,0.3-0.6,0.3-0.7V42
			c0-0.5-0.1-0.9-0.2-1.3c-0.1-0.4-0.2-0.8-0.2-1.3c0-0.2,0-0.6,0-1c0-0.4,0-0.9,0.1-1.3c0-0.4,0.1-0.9,0.2-1.3s0.2-0.7,0.3-0.9
			V16.4c0.4-0.4,0.5-0.7,0.5-0.9c0-0.3-0.1-0.6-0.3-0.7c-0.2-0.2-0.3-0.4-0.3-0.7c0-0.2,0.2-0.4,0.7-0.6c0.5-0.2,0.8-0.3,1-0.3
			c0.3,0,0.5,0.1,0.5,0.3c0,0.2,0.1,0.3,0.4,0.3c0.4,0,0.5-0.2,0.6-0.6c0-0.4,0-0.7,0-0.9c0.4,0,0.8,0.1,1.2,0.3
			c0.4,0.2,0.7,0.5,0.7,1c0,0.3-0.1,0.5-0.2,0.6c-0.1,0.2-0.3,0.3-0.5,0.6c0,0.1,0,0.2,0.1,0.3c0.1,0.1,0.2,0.1,0.3,0.1
			c0,0,0.1,0,0.3-0.1c0.1-0.1,0.2-0.2,0.2-0.3v0.5c0.3,0,0.6,0,0.8,0c0.2,0,0.3-0.1,0.3-0.5v-0.3c0-0.1-0.1-0.3-0.1-0.5
			c0-0.2-0.1-0.4-0.1-0.7c0-0.2-0.1-0.5-0.1-0.7l-0.7-0.3c0.2-0.2,0.3-0.3,0.5-0.3h0.1c0.6,0,1,0.3,1.1,0.8c0.1,0.5,0.1,1,0.1,1.5
			c0.4,0,0.7-0.1,0.9-0.2c0.2-0.2,0.3-0.3,0.4-0.5c0.1-0.2,0.2-0.3,0.3-0.5c0.1-0.2,0.3-0.2,0.5-0.2c0,0,0.2,0.2,0.3,0.5
			c0.2,0.3,0.4,0.7,0.5,1c0.2,0.4,0.3,0.8,0.5,1.1c0.1,0.4,0.2,0.6,0.2,0.8c0,0.5-0.1,1-0.3,1.7c-0.2,0.6-0.4,1.2-0.5,1.8
			c0,0.2-0.1,0.3-0.2,0.3c-0.1,0-0.1,0-0.2,0c-0.1,0-0.1,0-0.2-0.1c-0.1,0-0.2,0-0.3,0.1c-0.1,0.1-0.3,0.3-0.5,0.6
			c-0.2,0.3-0.3,0.6-0.5,1c-0.1,0.4-0.2,0.7-0.3,1c-0.1,0.3-0.1,0.6,0,0.7c0,0,0.1,0.2,0.2,0.5c0.2,0.3,0.3,0.4,0.4,0.5v0.2v0.1
			c-0.1,0.1-0.2,0.3-0.3,0.6c-0.1,0.3-0.1,0.5-0.1,0.6c0,0.1,0.1,0.3,0.2,0.5c0,0.1,0.1,0.3,0.2,0.5c-0.1,0.1-0.2,0.3-0.3,0.7
			c-0.1,0.4-0.2,0.6-0.3,0.7c0.1,0.2,0.2,0.3,0.4,0.4c0.2,0.1,0.4,0.2,0.5,0.3c0.2,0.1,0.3,0.3,0.5,0.5c0.1,0.2,0.2,0.6,0.2,1
			c0,0.3-0.1,0.6-0.2,0.8c-0.1,0.2-0.2,0.5-0.2,0.8c0,0.2,0,0.4,0,0.5c0,0.1,0.1,0.3,0.2,0.5c0.1,0,0.4,0,0.7,0.1
			c0.3,0,0.7,0.1,1,0.1c0.3,0,0.7,0.1,1,0.1c0.3,0,0.5,0.1,0.7,0.1h0.3c0.2,0,0.4,0,0.5-0.1c0.1-0.1,0.2-0.3,0.2-0.6h0.7
			c0.4,0,0.7,0.1,0.8,0.2c0.1,0.2,0.2,0.2,0.5,0.2h0.1c0,0,0.1,0,0.1-0.1c0,0,0.1-0.2,0.3-0.4c0.2-0.2,0.3-0.3,0.4-0.3h0.1
			c0.3,0,0.5,0.1,0.7,0.2c0.1,0.2,0.3,0.3,0.4,0.5c0.1,0.2,0.3,0.3,0.4,0.5c0.2,0.2,0.4,0.2,0.7,0.2c0.3,0,0.5-0.1,0.6-0.2
			c0.1-0.2,0.2-0.3,0.2-0.5c0-0.2,0.1-0.3,0.3-0.5c0.1-0.2,0.4-0.2,0.9-0.2c0,0.7-0.1,1.1-0.2,1.3c-0.1,0.2-0.2,0.4-0.4,0.5
			c-0.1,0.1-0.3,0.2-0.4,0.3c-0.1,0.1-0.2,0.3-0.2,0.6v0.6c0,0,0.1,0.2,0.2,0.5c0.2,0.3,0.3,0.4,0.4,0.5c0,0.1,0,0.2-0.1,0.5
			c-0.1,0.2-0.1,0.5-0.2,0.7c-0.1,0.2-0.2,0.5-0.4,0.6c-0.2,0.2-0.4,0.2-0.5,0.1c-0.1,0-0.2-0.1-0.4-0.3c-0.2-0.2-0.3-0.3-0.3-0.4
			h-0.2h-0.1c0,0,0,0.1-0.1,0.2c-0.1,0.1-0.1,0.1-0.1,0.2v0.3v0.1c0,0.1,0,0.3,0.1,0.7c0.1,0.4,0.1,0.6,0.1,0.6v0.4v0.3
			c-0.1,0-0.3-0.1-0.5-0.2c-0.2-0.1-0.4-0.1-0.4-0.1h-0.2c-0.3,0-0.5,0.1-0.6,0.3c-0.1,0.2-0.2,0.4-0.3,0.7
			c-0.1,0.2-0.2,0.5-0.4,0.7c-0.2,0.2-0.4,0.3-0.7,0.3c-0.5,0-0.9-0.1-1.4-0.3c-0.4-0.2-0.9-0.3-1.5-0.3c-0.2,0-0.3,0-0.4,0
			c-0.1,0-0.2,0.1-0.4,0.2c0-0.1,0.1-0.3,0.1-0.5c0-0.2,0.1-0.4,0.2-0.5l0.3-0.5c-0.1-0.3-0.2-0.5-0.4-0.7c-0.2-0.2-0.4-0.4-0.6-0.6
			c-0.2-0.2-0.4-0.4-0.5-0.6s-0.2-0.5-0.2-0.9c0-0.2,0.1-0.6,0.2-1c0.1-0.5,0.3-0.7,0.6-0.7l0.3,0.1c0.2,0.1,0.3,0.1,0.4,0.1
			l0.1-0.1l0.1-0.1c0-0.4-0.2-0.7-0.5-1.1c-0.3-0.4-0.6-0.6-1-0.6h-0.5c0.1,0,0.3,0.1,0.5,0.3c0.3,0.2,0.4,0.3,0.5,0.4v0.1
			c0,0.1-0.2,0.4-0.7,0.8c-0.5,0.4-0.8,0.7-1,1c-0.2,0.6-0.4,1-0.6,1.2c-0.2,0.2-0.4,0.4-0.6,0.6c-0.2,0.2-0.4,0.4-0.5,0.6
			c-0.2,0.2-0.2,0.7-0.2,1.2h0.1c-0.4-0.1-0.8-0.2-1-0.2c-0.2,0-0.3-0.1-0.4-0.1c-0.1,0-0.2-0.1-0.3-0.3c-0.1-0.1-0.2-0.4-0.5-0.7
			h-0.1c0,0-0.1,0-0.1-0.1c-0.4,0-0.6,0.2-0.6,0.7c0,0.2,0.1,0.4,0.3,0.6c0.2,0.2,0.4,0.5,0.6,0.7c0.2,0.2,0.5,0.4,0.8,0.5
			c0.3,0.1,0.5,0.1,0.8,0c-0.2,0.6-0.6,1-1.1,1.2s-0.9,0.5-1.2,1c0,0.2,0.1,0.3,0.2,0.3c0.1,0,0.2,0,0.3,0s0.3,0,0.4,0.1
			c0.1,0,0.3,0.1,0.4,0.3c0,0,0,0.2,0.1,0.3c0.1,0.2,0.1,0.3,0.1,0.3c0.1,0.1,0.3,0.1,0.4,0c0.3,0.6,0.4,1.2,0.3,1.7
			c-0.1,0.5-0.1,1.1-0.1,1.9h0.6c0,0.1,0,0.3,0,0.5c0,0.2-0.1,0.4-0.3,0.5V52c-0.3,0.1-0.5,0.2-0.6,0.3c-0.1,0.1-0.1,0.2-0.1,0.4
			c0,0.1,0,0.3,0.1,0.4c0,0.2,0.1,0.3,0.1,0.5c0.3,0,0.6-0.1,0.9-0.2s0.6-0.3,0.8-0.4c0.1,0.6,0.5,1.2,1.1,1.8s1.3,1,1.9,1.1
			c0,0,0.1,0,0.3-0.1c0.2-0.1,0.3-0.1,0.4-0.2c0.1,0,0.4,0,0.7,0c0.4,0,0.7,0.1,1.1,0.1c0.4,0,0.8,0.1,1.2,0.1c0.4,0,0.7,0,0.8,0
			c0.5,0,0.9,0,1.3,0c0.4-0.1,0.5,0.1,0.5,0.6c0.4,0,0.9-0.1,1.2-0.2c0.4-0.1,0.8-0.2,1.3-0.2c0.1,0,0.3,0,0.6,0
			c0.3,0,0.5,0.1,0.5,0.4c0,0,0,0.2-0.1,0.3l-0.1,0.3c0,0.1-0.1,0.4,0,0.9c0,0.4,0,0.7,0,0.8l-0.2,0.2c0,0-0.1,0.1-0.1,0.1
			c0,0-0.1,0-0.1,0.1c-0.1,0-0.4,0.1-0.8,0.3c-0.4,0.2-0.7,0.3-0.7,0.3c-0.4,0.2-0.6,0.4-0.7,0.6c-0.1,0.2-0.2,0.3-0.3,0.4
			c-0.1,0.1-0.2,0.2-0.5,0.3c-0.2,0.1-0.6,0.1-1.3,0.1c-0.1,0-0.3,0-0.5,0c-0.2,0-0.3,0-0.4,0l-0.3-0.3l-0.7,0.6l0.4,0.3
			c-0.1,0-0.2,0.1-0.5,0.2c-0.2,0.1-0.4,0.2-0.5,0.2H140h-0.1c-0.2,0-0.5-0.1-0.8-0.2c-0.3-0.1-0.6-0.2-0.9-0.3
			c-0.3-0.1-0.6-0.2-0.9-0.3c-0.3-0.1-0.4-0.1-0.5-0.1c0,0-0.2-0.2-0.4-0.5c-0.2-0.3-0.4-0.4-0.5-0.5H135.7L135.7,60z M127.3,48.1
			h0.4v-0.7L127.3,48.1z M127.7,17.9c0,0.2,0.3,0.3,0.7,0.3c0.3,0,0.5-0.1,0.7-0.2c0.2-0.1,0.5-0.2,0.9-0.2v-1.1
			c-0.5,0-0.9,0.1-1.2,0.4C128.4,17.5,128.1,17.8,127.7,17.9z M128.4,47.4c0,0.2,0,0.4,0,0.5s0.1,0.3,0.2,0.5c0.4,0.1,0.6,0,0.7-0.3
			c0.1-0.3,0.1-0.5,0.1-0.6s0-0.4-0.1-0.8c0-0.4-0.2-0.6-0.5-0.6c-0.3,0-0.5,0.2-0.5,0.5C128.4,47,128.4,47.3,128.4,47.4z
			 M130.2,14.3c-0.4,0-0.8,0.1-1.1,0.4c-0.4,0.3-0.5,0.6-0.5,1.1c0.6,0,1-0.1,1.3-0.3C130,15.3,130.2,14.9,130.2,14.3z M130,19.5
			c-0.2,0.1-0.4,0.2-0.4,0.3c0,0.1-0.1,0.2-0.1,0.4l0.1,0.3l0.5-0.6L130,19.5z M129.5,31.7c0,0.3,0.1,0.6,0.3,0.9
			c0.2,0.3,0.5,0.4,0.9,0.4c0-0.3-0.1-0.6-0.3-0.9C130.2,31.9,129.9,31.7,129.5,31.7z M130,46.2l0.2-0.3l-0.2-0.3l-0.3,0.3L130,46.2
			z M130,26c-0.1,0-0.1,0-0.1,0.1c0,0.1,0,0.2,0.1,0.2C130.2,26.1,130.2,26,130,26z M130.6,49.6c-0.5,0-0.7,0.3-0.7,0.8
			C130.3,50.4,130.6,50.2,130.6,49.6z M130,30.4l0.2-0.3H130V30.4z M130.2,43.7c0.1-0.2,0.1-0.3,0-0.3s-0.2,0.1-0.2,0.3
			c0,0.1,0.1,0.1,0.1,0.1S130.2,43.8,130.2,43.7z M130,47.2h0.2v-0.3H130V47.2z M130.2,56.1h0.4v-2.5l-0.4,0.3V56.1z M130.6,13.5
			c-0.2,0-0.3,0.1-0.3,0.3c0,0.2,0.1,0.3,0.3,0.3c0.1,0,0.2-0.1,0.2-0.3C130.8,13.6,130.7,13.5,130.6,13.5z M130.7,18.4l0.1,0.1
			c0.4,0.3,0.7,0.6,0.9,1c0.1,0.4,0.4,0.7,0.9,0.9l0.6-0.6l0.7,0.6l0.9-0.9c0-0.3-0.3-0.4-0.7-0.3c-0.4,0.1-0.7,0.1-0.7,0.1
			c0-0.3,0.1-0.5,0.2-0.7c0.1-0.2,0.3-0.4,0.4-0.5c0.2-0.2,0.3-0.4,0.4-0.6c0.1-0.2,0.2-0.5,0.2-0.8c-0.4,0-0.8,0.1-1.2,0.3
			c-0.4,0.2-0.8,0.3-1.2,0.3c-0.3,0-0.4-0.1-0.5-0.3c-0.2,0.1-0.4,0.3-0.7,0.6c-0.3,0.3-0.4,0.5-0.4,0.7L130.7,18.4z M130.8,21.2
			C130.8,21.1,130.8,21.1,130.8,21.2c-0.1,0.3,0,0.3,0,0.3c0.1-0.1,0.2-0.2,0.2-0.2C131,21.2,131,21.2,130.8,21.2z M131.2,23.1
			l0.4-0.3h-0.8L131.2,23.1z M130.8,51.3h1.1c0-0.1,0-0.2-0.1-0.3s-0.1-0.1-0.2-0.2L130.8,51.3z M134,21.5c-0.3,0.1-0.6,0.2-0.9,0.5
			c-0.4,0.2-0.7,0.5-1,0.8c-0.3,0.3-0.5,0.6-0.8,0.9c-0.2,0.3-0.3,0.7-0.3,1c0,0,0.2-0.2,0.6-0.5c0.3-0.3,0.7-0.6,1.1-1
			c0.4-0.4,0.7-0.7,1-1c0.3-0.3,0.5-0.5,0.5-0.6L134,21.5z M131.2,26.3h0.4l-0.4-0.3V26.3z M131.6,47.8c0,0.3,0.1,0.5,0.3,0.7
			c0.2,0.1,0.4,0.2,0.6,0.2c0-0.1,0-0.4-0.1-0.8c0-0.4-0.2-0.6-0.5-0.6h-0.1c-0.1,0-0.2,0.1-0.2,0.3
			C131.6,47.6,131.6,47.7,131.6,47.8z M131.9,25.6h0.2v-0.3L131.9,25.6z M132.1,31.4c0.2,0,0.5,0.2,0.8,0.4c0.3,0.2,0.6,0.3,0.7,0.3
			l0.3-0.3c0.1-0.1,0.2-0.2,0.3-0.3c0.1-0.1,0.2-0.2,0.3-0.4c0.2-0.3,0.5-0.6,0.9-1c0.1-0.3,0-0.6-0.2-0.9c-0.2-0.3-0.4-0.4-0.7-0.4
			c-0.2,0-0.4,0-0.7,0c-0.3,0-0.6,0.1-0.9,0.1c-0.3,0.1-0.5,0.2-0.7,0.3c-0.2,0.1-0.3,0.3-0.3,0.5c0,0.2,0,0.4,0.1,0.4
			c0.1,0.1,0.2,0.1,0.3,0.2c0.1,0,0.2,0.1,0.3,0.1c0.1,0,0.1,0.2,0.1,0.3v0.2l-0.3,0.1C132.3,31.4,132.2,31.4,132.1,31.4z
			 M132.1,35.3c0.1,0,0.2,0.1,0.2,0.2s0.1,0.1,0.2,0.1l0.1,0.1l0.1-0.1c0.1,0,0.2,0,0.2-0.1c0-0.1,0.1-0.1,0.2-0.2V35V35
			c-0.1-0.2-0.3-0.3-0.4-0.3l-0.1-0.1c0,0-0.1,0-0.1,0.1c-0.2,0-0.3,0.1-0.5,0.3V35V35.3z M132.6,36.6c0,0,0,0.1,0.1,0.2
			c0.1,0.1,0.1,0.1,0.1,0.2h0.2h0.2c-0.2-0.2-0.4-0.3-0.4-0.3l-0.1-0.1C132.6,36.5,132.6,36.5,132.6,36.6z M133.1,58.7
			c-0.2,0-0.3,0.1-0.3,0.3c0,0.2,0.1,0.3,0.3,0.3c0.2,0,0.3-0.1,0.3-0.3C133.5,58.8,133.4,58.7,133.1,58.7z M133.1,38.5
			c-0.1,0-0.1,0-0.1,0.2c0,0.2,0,0.2,0.1,0.1c0.1,0,0.1-0.1,0.1-0.2S133.2,38.5,133.1,38.5z M133.1,50.8c-0.1-0.1-0.1-0.1-0.1,0.1
			c0,0.1,0,0.2,0.1,0.2c0.1,0,0.1-0.1,0.1-0.2C133.3,50.8,133.2,50.8,133.1,50.8z M133.5,26.3c-0.2,0-0.3,0.1-0.3,0.3
			c0,0.2,0.1,0.3,0.3,0.3c0.1,0,0.2-0.1,0.2-0.3C133.7,26.4,133.7,26.3,133.5,26.3z M134,25.4c0.1-0.1,0-0.1-0.3-0.1
			c-0.3,0-0.3,0-0.2,0.1c0,0.1,0.1,0.1,0.2,0.1C133.9,25.5,134,25.5,134,25.4z M133.8,37.8v-0.6l-0.3,0.3L133.8,37.8z M133.8,20.9
			c-0.1,0-0.2,0.1-0.2,0.3c0,0.2,0.1,0.3,0.2,0.3c0.1,0,0.1-0.1,0.1-0.3C133.9,21,133.9,20.9,133.8,20.9z M134,33.4
			c0,0.1,0.1,0.4,0.2,0.7c0.2,0.4,0.4,0.5,0.6,0.5c0.3,0,0.5-0.1,0.5-0.4c0-0.2,0.1-0.5,0.1-0.6c0-0.3,0-0.6-0.1-0.7
			c-0.1-0.2-0.3-0.3-0.7-0.3C134.2,32.7,134,32.9,134,33.4z M134,55.1h0.5v-0.3L134,55.1z M134.3,35.7c0,0.1,0,0.2,0.1,0.2
			c0.1,0.2,0.2,0.5,0.3,0.8c0.1,0.3,0.2,0.5,0.3,0.5h0.5c0-0.4-0.1-0.7-0.2-1.1c-0.2-0.4-0.5-0.6-1-0.6V35.7z M135.3,57.5
			c-0.1,0-0.2,0.1-0.2,0.3s0.1,0.3,0.2,0.3c0.2,0,0.3-0.1,0.3-0.3S135.6,57.5,135.3,57.5z M136.6,16.1c-0.2,0.1-0.4,0.2-0.8,0.4
			c-0.3,0.2-0.5,0.5-0.5,0.8v0.3c0.3-0.2,0.5-0.5,0.8-0.7C136.3,16.6,136.5,16.4,136.6,16.1z M137.7,56.5c-0.2,0-0.3,0.1-0.3,0.3
			c0,0.2,0.1,0.3,0.3,0.3c0.2,0,0.3-0.1,0.3-0.3C137.9,56.6,137.8,56.5,137.7,56.5z M139.2,35.9c0,0.5,0.2,0.7,0.7,0.7v-0.4
			c0,0-0.1-0.2-0.2-0.5c-0.1-0.3-0.2-0.4-0.2-0.5C139.4,35.4,139.2,35.6,139.2,35.9z M139.6,38.8h0.4c0-0.3-0.1-0.5-0.4-0.6V38.8z
			 M141.2,35.3c-0.2,0-0.3,0.1-0.3,0.3c0,0.2,0.1,0.3,0.3,0.3c0.2,0,0.3-0.1,0.3-0.3C141.4,35.4,141.3,35.3,141.2,35.3z M142.2,59.2
			c-0.4,0-0.7,0.2-0.7,0.7l0.1,0.1c0.2,0,0.4-0.1,0.4-0.3S142.2,59.4,142.2,59.2z M142.2,56.1c-0.2,0-0.3,0.1-0.3,0.4
			c0,0.2,0.1,0.4,0.3,0.4c0.1,0,0.2-0.1,0.2-0.4C142.4,56.2,142.3,56.1,142.2,56.1z M142.4,36.9h0.2h0.1c0,0,0.1-0.1,0.1-0.1
			c0,0,0.1-0.1,0.1-0.1l0.1-0.1c0-0.1,0-0.3-0.1-0.5c-0.1-0.2-0.2-0.4-0.3-0.5L142.4,36.9z M143.5,38.2l0.3-0.3l-0.3-0.3V38.2z
			 M144.7,35.6l0.1,0.1h0.1c0,0,0.1,0,0.1-0.1l0.1-0.1c0,0,0.1-0.1,0.1-0.1c0,0,0-0.1,0.1-0.1c0-0.1,0.1-0.2,0.2-0.3h-1L144.7,35.6z
			"/>
		<path class="st1" d="M160.7,60c-0.1,0-0.3,0.2-0.5,0.3c-0.3,0.2-0.4,0.3-0.5,0.3c-0.4,0.1-0.9-0.1-1.4-0.4s-1-0.6-1.4-0.6
			c-0.2,0-0.4,0-0.5,0.1c-0.1,0.1-0.2,0.2-0.2,0.3s-0.2,0.2-0.3,0.3c-0.1,0.1-0.4,0.1-0.7,0.1v-1.1c0,0-0.1,0.1-0.2,0.1
			c-0.2,0.1-0.3,0.1-0.3,0.1c-0.1,0-0.3-0.2-0.5-0.5s-0.4-0.6-0.5-0.9c-0.2-0.3-0.3-0.6-0.5-0.9s-0.2-0.5-0.2-0.6c0-0.1,0-0.3,0-0.4
			c0-0.1,0.1-0.2,0.4-0.3c-0.4,0-0.7-0.1-1.1-0.2c-0.4-0.1-0.6-0.2-0.9-0.4c-0.2-1.3-0.4-2.5-0.6-3.5c-0.2-1.1-0.2-2.3-0.2-3.5
			c0-0.8,0-1.6,0-2.4c0-0.8,0.1-1.6,0.3-2.4c0-0.1,0.1-0.3,0.3-0.7c0.2-0.4,0.3-0.6,0.3-0.7V42c0-0.5-0.1-0.9-0.2-1.3
			c-0.1-0.4-0.2-0.8-0.2-1.3c0-0.2,0-0.6,0-1c0-0.4,0-0.9,0.1-1.3c0-0.4,0.1-0.9,0.2-1.3c0.1-0.4,0.2-0.7,0.3-0.9V16.4
			c0.4-0.4,0.5-0.7,0.5-0.9c0-0.3-0.1-0.6-0.3-0.7c-0.2-0.2-0.3-0.4-0.3-0.7c0-0.2,0.2-0.4,0.7-0.6c0.5-0.2,0.8-0.3,1-0.3
			c0.3,0,0.5,0.1,0.5,0.3c0,0.2,0.1,0.3,0.4,0.3c0.4,0,0.5-0.2,0.6-0.6c0-0.4,0-0.7,0-0.9c0.4,0,0.8,0.1,1.2,0.3
			c0.4,0.2,0.7,0.5,0.7,1c0,0.3-0.1,0.5-0.2,0.6c-0.1,0.2-0.3,0.3-0.5,0.6c0,0.1,0,0.2,0.1,0.3c0.1,0.1,0.2,0.1,0.3,0.1
			c0,0,0.1,0,0.3-0.1c0.1-0.1,0.2-0.2,0.2-0.3v0.5c0.3,0,0.6,0,0.8,0c0.2,0,0.3-0.1,0.3-0.5v-0.3c0-0.1-0.1-0.3-0.1-0.5
			c0-0.2-0.1-0.4-0.1-0.7c0-0.2-0.1-0.5-0.1-0.7l-0.7-0.3c0.2-0.2,0.3-0.3,0.5-0.3h0.1c0.6,0,1,0.3,1.1,0.8c0.1,0.5,0.1,1,0.1,1.5
			c0.4,0,0.7-0.1,0.9-0.2c0.2-0.2,0.3-0.3,0.4-0.5c0.1-0.2,0.2-0.3,0.3-0.5c0.1-0.2,0.3-0.2,0.5-0.2c0,0,0.2,0.2,0.3,0.5
			c0.2,0.3,0.4,0.7,0.5,1c0.2,0.4,0.3,0.8,0.5,1.1c0.1,0.4,0.2,0.6,0.2,0.8c0,0.5-0.1,1-0.3,1.7c-0.2,0.6-0.4,1.2-0.5,1.8
			c0,0.2-0.1,0.3-0.2,0.3c-0.1,0-0.1,0-0.2,0c-0.1,0-0.1,0-0.2-0.1c-0.1,0-0.2,0-0.3,0.1c-0.1,0.1-0.3,0.3-0.5,0.6
			c-0.2,0.3-0.3,0.6-0.5,1c-0.1,0.4-0.2,0.7-0.3,1c-0.1,0.3-0.1,0.6,0,0.7c0,0,0.1,0.2,0.2,0.5c0.2,0.3,0.3,0.4,0.4,0.5v0.2v0.1
			c-0.1,0.1-0.2,0.3-0.3,0.6c-0.1,0.3-0.1,0.5-0.1,0.6c0,0.1,0.1,0.3,0.2,0.5c0,0.1,0.1,0.3,0.2,0.5c-0.1,0.1-0.2,0.3-0.3,0.7
			c-0.1,0.4-0.2,0.6-0.3,0.7c0.1,0.2,0.2,0.3,0.4,0.4c0.2,0.1,0.4,0.2,0.5,0.3c0.2,0.1,0.3,0.3,0.5,0.5c0.1,0.2,0.2,0.6,0.2,1
			c0,0.3-0.1,0.6-0.2,0.8c-0.1,0.2-0.2,0.5-0.2,0.8c0,0.2,0,0.4,0,0.5c0,0.1,0.1,0.3,0.2,0.5c0.1,0,0.4,0,0.7,0.1
			c0.3,0,0.7,0.1,1,0.1c0.3,0,0.7,0.1,1,0.1c0.3,0,0.5,0.1,0.7,0.1h0.3c0.2,0,0.4,0,0.5-0.1c0.1-0.1,0.2-0.3,0.2-0.6h0.7
			c0.4,0,0.7,0.1,0.8,0.2c0.1,0.2,0.2,0.2,0.5,0.2h0.1c0,0,0.1,0,0.1-0.1c0,0,0.1-0.2,0.3-0.4c0.2-0.2,0.3-0.3,0.4-0.3h0.1
			c0.3,0,0.5,0.1,0.7,0.2c0.1,0.2,0.3,0.3,0.4,0.5c0.1,0.2,0.3,0.3,0.4,0.5c0.2,0.2,0.4,0.2,0.7,0.2c0.3,0,0.5-0.1,0.6-0.2
			c0.1-0.2,0.2-0.3,0.2-0.5c0-0.2,0.1-0.3,0.3-0.5c0.1-0.2,0.4-0.2,0.9-0.2c0,0.7-0.1,1.1-0.2,1.3c-0.1,0.2-0.2,0.4-0.4,0.5
			c-0.1,0.1-0.3,0.2-0.4,0.3c-0.1,0.1-0.2,0.3-0.2,0.6v0.6c0,0,0.1,0.2,0.2,0.5c0.2,0.3,0.3,0.4,0.4,0.5c0,0.1,0,0.2-0.1,0.5
			c-0.1,0.2-0.1,0.5-0.2,0.7c-0.1,0.2-0.2,0.5-0.4,0.6c-0.2,0.2-0.4,0.2-0.5,0.1c-0.1,0-0.2-0.1-0.4-0.3c-0.2-0.2-0.3-0.3-0.3-0.4
			h-0.2h-0.1c0,0,0,0.1-0.1,0.2c-0.1,0.1-0.1,0.1-0.1,0.2v0.3v0.1c0,0.1,0,0.3,0.1,0.7c0.1,0.4,0.1,0.6,0.1,0.6v0.4v0.3
			c-0.1,0-0.3-0.1-0.5-0.2c-0.2-0.1-0.4-0.1-0.4-0.1h-0.2c-0.3,0-0.5,0.1-0.6,0.3c-0.1,0.2-0.2,0.4-0.3,0.7
			c-0.1,0.2-0.2,0.5-0.4,0.7c-0.2,0.2-0.4,0.3-0.7,0.3c-0.5,0-0.9-0.1-1.4-0.3c-0.4-0.2-0.9-0.3-1.5-0.3c-0.2,0-0.3,0-0.4,0
			c-0.1,0-0.2,0.1-0.4,0.2c0-0.1,0.1-0.3,0.1-0.5c0-0.2,0.1-0.4,0.2-0.5l0.3-0.5c-0.1-0.3-0.2-0.5-0.4-0.7c-0.2-0.2-0.4-0.4-0.6-0.6
			c-0.2-0.2-0.4-0.4-0.5-0.6s-0.2-0.5-0.2-0.9c0-0.2,0.1-0.6,0.2-1c0.1-0.5,0.3-0.7,0.6-0.7l0.3,0.1c0.2,0.1,0.3,0.1,0.4,0.1
			l0.1-0.1l0.1-0.1c0-0.4-0.2-0.7-0.5-1.1c-0.3-0.4-0.6-0.6-1-0.6h-0.5c0.1,0,0.3,0.1,0.5,0.3c0.3,0.2,0.4,0.3,0.5,0.4v0.1
			c0,0.1-0.2,0.4-0.7,0.8c-0.5,0.4-0.8,0.7-1,1c-0.2,0.6-0.4,1-0.6,1.2c-0.2,0.2-0.4,0.4-0.6,0.6c-0.2,0.2-0.4,0.4-0.5,0.6
			c-0.2,0.2-0.2,0.7-0.2,1.2h0.1c-0.4-0.1-0.8-0.2-1-0.2c-0.2,0-0.3-0.1-0.4-0.1c-0.1,0-0.2-0.1-0.3-0.3c-0.1-0.1-0.2-0.4-0.5-0.7
			h-0.1c0,0-0.1,0-0.1-0.1c-0.4,0-0.6,0.2-0.6,0.7c0,0.2,0.1,0.4,0.3,0.6c0.2,0.2,0.4,0.5,0.6,0.7c0.2,0.2,0.5,0.4,0.8,0.5
			c0.3,0.1,0.5,0.1,0.8,0c-0.2,0.6-0.6,1-1.1,1.2s-0.9,0.5-1.2,1c0,0.2,0.1,0.3,0.2,0.3c0.1,0,0.2,0,0.3,0s0.3,0,0.4,0.1
			c0.1,0,0.3,0.1,0.4,0.3c0,0,0,0.2,0.1,0.3c0.1,0.2,0.1,0.3,0.1,0.3c0.1,0.1,0.3,0.1,0.4,0c0.3,0.6,0.4,1.2,0.3,1.7
			c-0.1,0.5-0.1,1.1-0.1,1.9h0.6c0,0.1,0,0.3,0,0.5c0,0.2-0.1,0.4-0.3,0.5V52c-0.3,0.1-0.5,0.2-0.6,0.3c-0.1,0.1-0.1,0.2-0.1,0.4
			c0,0.1,0,0.3,0.1,0.4c0,0.2,0.1,0.3,0.1,0.5c0.3,0,0.6-0.1,0.9-0.2s0.6-0.3,0.8-0.4c0.1,0.6,0.5,1.2,1.1,1.8s1.3,1,1.9,1.1
			c0,0,0.1,0,0.3-0.1c0.2-0.1,0.3-0.1,0.4-0.2c0.1,0,0.4,0,0.7,0c0.4,0,0.7,0.1,1.1,0.1c0.4,0,0.8,0.1,1.2,0.1c0.4,0,0.7,0,0.8,0
			c0.5,0,0.9,0,1.3,0c0.4-0.1,0.5,0.1,0.5,0.6c0.4,0,0.9-0.1,1.2-0.2c0.4-0.1,0.8-0.2,1.3-0.2c0.1,0,0.3,0,0.6,0
			c0.3,0,0.5,0.1,0.5,0.4c0,0,0,0.2-0.1,0.3l-0.1,0.3c0,0.1-0.1,0.4,0,0.9c0,0.4,0,0.7,0,0.8l-0.2,0.2c0,0-0.1,0.1-0.1,0.1
			c0,0-0.1,0-0.1,0.1c-0.1,0-0.4,0.1-0.8,0.3c-0.4,0.2-0.7,0.3-0.7,0.3c-0.4,0.2-0.6,0.4-0.7,0.6c-0.1,0.2-0.2,0.3-0.3,0.4
			c-0.1,0.1-0.2,0.2-0.5,0.3c-0.2,0.1-0.6,0.1-1.3,0.1c-0.1,0-0.3,0-0.5,0c-0.2,0-0.3,0-0.4,0l-0.3-0.3l-0.7,0.6l0.4,0.3
			c-0.1,0-0.2,0.1-0.5,0.2c-0.2,0.1-0.4,0.2-0.5,0.2H165h-0.1c-0.2,0-0.5-0.1-0.8-0.2c-0.3-0.1-0.6-0.2-0.9-0.3
			c-0.3-0.1-0.6-0.2-0.9-0.3c-0.3-0.1-0.4-0.1-0.5-0.1c0,0-0.2-0.2-0.4-0.5c-0.2-0.3-0.4-0.4-0.5-0.5H160.7L160.7,60z M152.2,48.1
			h0.4v-0.7L152.2,48.1z M152.6,17.9c0,0.2,0.3,0.3,0.7,0.3c0.3,0,0.5-0.1,0.7-0.2c0.2-0.1,0.5-0.2,0.9-0.2v-1.1
			c-0.5,0-0.9,0.1-1.2,0.4C153.3,17.5,153,17.8,152.6,17.9z M153.3,47.4c0,0.2,0,0.4,0,0.5c0,0.1,0.1,0.3,0.2,0.5
			c0.4,0.1,0.6,0,0.7-0.3c0.1-0.3,0.1-0.5,0.1-0.6s0-0.4-0.1-0.8c0-0.4-0.2-0.6-0.5-0.6c-0.3,0-0.5,0.2-0.5,0.5
			C153.3,47,153.3,47.3,153.3,47.4z M155.1,14.3c-0.4,0-0.8,0.1-1.1,0.4c-0.4,0.3-0.5,0.6-0.5,1.1c0.6,0,1-0.1,1.3-0.3
			C155,15.3,155.1,14.9,155.1,14.3z M154.9,19.5c-0.2,0.1-0.4,0.2-0.4,0.3c0,0.1-0.1,0.2-0.1,0.4l0.1,0.3l0.5-0.6L154.9,19.5z
			 M154.4,31.7c0,0.3,0.1,0.6,0.3,0.9c0.2,0.3,0.5,0.4,0.9,0.4c0-0.3-0.1-0.6-0.3-0.9C155.1,31.9,154.8,31.7,154.4,31.7z
			 M154.9,46.2l0.2-0.3l-0.2-0.3l-0.3,0.3L154.9,46.2z M154.9,26c-0.1,0-0.1,0-0.1,0.1c0,0.1,0,0.2,0.1,0.2
			C155.1,26.1,155.1,26,154.9,26z M155.5,49.6c-0.5,0-0.7,0.3-0.7,0.8C155.2,50.4,155.5,50.2,155.5,49.6z M154.9,30.4l0.2-0.3h-0.2
			V30.4z M155.1,43.7c0.1-0.2,0.1-0.3,0-0.3c-0.1,0-0.2,0.1-0.2,0.3c0,0.1,0.1,0.1,0.1,0.1C155.1,43.8,155.1,43.8,155.1,43.7z
			 M154.9,47.2h0.2v-0.3h-0.2V47.2z M155.1,56.1h0.4v-2.5l-0.4,0.3V56.1z M155.5,13.5c-0.2,0-0.3,0.1-0.3,0.3c0,0.2,0.1,0.3,0.3,0.3
			c0.1,0,0.2-0.1,0.2-0.3C155.7,13.6,155.6,13.5,155.5,13.5z M155.6,18.4l0.1,0.1c0.4,0.3,0.7,0.6,0.9,1c0.1,0.4,0.4,0.7,0.9,0.9
			l0.6-0.6l0.7,0.6l0.9-0.9c0-0.3-0.3-0.4-0.7-0.3c-0.4,0.1-0.7,0.1-0.7,0.1c0-0.3,0.1-0.5,0.2-0.7c0.1-0.2,0.3-0.4,0.4-0.5
			c0.2-0.2,0.3-0.4,0.4-0.6c0.1-0.2,0.2-0.5,0.2-0.8c-0.4,0-0.8,0.1-1.2,0.3c-0.4,0.2-0.8,0.3-1.2,0.3c-0.3,0-0.4-0.1-0.5-0.3
			c-0.2,0.1-0.4,0.3-0.7,0.6c-0.3,0.3-0.4,0.5-0.4,0.7L155.6,18.4z M155.8,21.2C155.7,21.1,155.7,21.1,155.8,21.2
			c-0.1,0.3,0,0.3,0,0.3c0.1-0.1,0.2-0.2,0.2-0.2C156,21.2,155.9,21.2,155.8,21.2z M156.2,23.1l0.4-0.3h-0.8L156.2,23.1z
			 M155.8,51.3h1.1c0-0.1,0-0.2-0.1-0.3s-0.1-0.1-0.2-0.2L155.8,51.3z M158.9,21.5c-0.3,0.1-0.6,0.2-0.9,0.5c-0.4,0.2-0.7,0.5-1,0.8
			c-0.3,0.3-0.5,0.6-0.8,0.9c-0.2,0.3-0.3,0.7-0.3,1c0,0,0.2-0.2,0.6-0.5c0.3-0.3,0.7-0.6,1.1-1c0.4-0.4,0.7-0.7,1-1
			c0.3-0.3,0.5-0.5,0.5-0.6L158.9,21.5z M156.2,26.3h0.4l-0.4-0.3V26.3z M156.6,47.8c0,0.3,0.1,0.5,0.3,0.7c0.2,0.1,0.4,0.2,0.6,0.2
			c0-0.1,0-0.4-0.1-0.8c0-0.4-0.2-0.6-0.5-0.6h-0.1c-0.1,0-0.2,0.1-0.2,0.3C156.6,47.6,156.6,47.7,156.6,47.8z M156.8,25.6h0.2v-0.3
			L156.8,25.6z M157,31.4c0.2,0,0.5,0.2,0.8,0.4c0.3,0.2,0.6,0.3,0.7,0.3l0.3-0.3c0.1-0.1,0.2-0.2,0.3-0.3c0.1-0.1,0.2-0.2,0.3-0.4
			c0.2-0.3,0.5-0.6,0.9-1c0.1-0.3,0-0.6-0.2-0.9c-0.2-0.3-0.4-0.4-0.7-0.4c-0.2,0-0.4,0-0.7,0c-0.3,0-0.6,0.1-0.9,0.1
			c-0.3,0.1-0.5,0.2-0.7,0.3c-0.2,0.1-0.3,0.3-0.3,0.5c0,0.2,0,0.4,0.1,0.4c0.1,0.1,0.2,0.1,0.3,0.2c0.1,0,0.2,0.1,0.3,0.1
			c0.1,0,0.1,0.2,0.1,0.3v0.2l-0.3,0.1C157.2,31.4,157.1,31.4,157,31.4z M157,35.3c0.1,0,0.2,0.1,0.2,0.2s0.1,0.1,0.2,0.1l0.1,0.1
			l0.1-0.1c0.1,0,0.2,0,0.2-0.1c0-0.1,0.1-0.1,0.2-0.2V35V35c-0.1-0.2-0.3-0.3-0.4-0.3l-0.1-0.1c0,0-0.1,0-0.1,0.1
			c-0.2,0-0.3,0.1-0.5,0.3V35V35.3z M157.5,36.6c0,0,0,0.1,0.1,0.2c0.1,0.1,0.1,0.1,0.1,0.2h0.2h0.2c-0.2-0.2-0.4-0.3-0.4-0.3
			l-0.1-0.1C157.6,36.5,157.5,36.5,157.5,36.6z M158.1,58.7c-0.2,0-0.3,0.1-0.3,0.3c0,0.2,0.1,0.3,0.3,0.3c0.2,0,0.3-0.1,0.3-0.3
			C158.4,58.8,158.3,58.7,158.1,58.7z M158.1,38.5c-0.1,0-0.1,0-0.1,0.2c0,0.2,0,0.2,0.1,0.1c0.1,0,0.1-0.1,0.1-0.2
			S158.2,38.5,158.1,38.5z M158.1,50.8c-0.1-0.1-0.1-0.1-0.1,0.1c0,0.1,0,0.2,0.1,0.2c0.1,0,0.1-0.1,0.1-0.2
			C158.2,50.8,158.2,50.8,158.1,50.8z M158.5,26.3c-0.2,0-0.3,0.1-0.3,0.3c0,0.2,0.1,0.3,0.3,0.3c0.1,0,0.2-0.1,0.2-0.3
			C158.7,26.4,158.6,26.3,158.5,26.3z M158.9,25.4c0.1-0.1,0-0.1-0.3-0.1c-0.3,0-0.3,0-0.2,0.1c0,0.1,0.1,0.1,0.2,0.1
			C158.8,25.5,158.9,25.5,158.9,25.4z M158.7,37.8v-0.6l-0.3,0.3L158.7,37.8z M158.7,20.9c-0.1,0-0.2,0.1-0.2,0.3
			c0,0.2,0.1,0.3,0.2,0.3c0.1,0,0.1-0.1,0.1-0.3C158.9,21,158.8,20.9,158.7,20.9z M158.9,33.4c0,0.1,0.1,0.4,0.2,0.7
			c0.2,0.4,0.4,0.5,0.6,0.5c0.3,0,0.5-0.1,0.5-0.4c0-0.2,0.1-0.5,0.1-0.6c0-0.3,0-0.6-0.1-0.7c-0.1-0.2-0.3-0.3-0.7-0.3
			C159.2,32.7,158.9,32.9,158.9,33.4z M158.9,55.1h0.5v-0.3L158.9,55.1z M159.3,35.7c0,0.1,0,0.2,0.1,0.2c0.1,0.2,0.2,0.5,0.3,0.8
			c0.1,0.3,0.2,0.5,0.3,0.5h0.5c0-0.4-0.1-0.7-0.2-1.1c-0.2-0.4-0.5-0.6-1-0.6V35.7z M160.3,57.5c-0.1,0-0.2,0.1-0.2,0.3
			s0.1,0.3,0.2,0.3c0.2,0,0.3-0.1,0.3-0.3S160.5,57.5,160.3,57.5z M161.5,16.1c-0.2,0.1-0.4,0.2-0.8,0.4c-0.3,0.2-0.5,0.5-0.5,0.8
			v0.3c0.3-0.2,0.5-0.5,0.8-0.7C161.3,16.6,161.4,16.4,161.5,16.1z M162.6,56.5c-0.2,0-0.3,0.1-0.3,0.3c0,0.2,0.1,0.3,0.3,0.3
			c0.2,0,0.3-0.1,0.3-0.3C162.9,56.6,162.8,56.5,162.6,56.5z M164.2,35.9c0,0.5,0.2,0.7,0.7,0.7v-0.4c0,0-0.1-0.2-0.2-0.5
			c-0.1-0.3-0.2-0.4-0.2-0.5C164.3,35.4,164.2,35.6,164.2,35.9z M164.5,38.8h0.4c0-0.3-0.1-0.5-0.4-0.6V38.8z M166.1,35.3
			c-0.2,0-0.3,0.1-0.3,0.3c0,0.2,0.1,0.3,0.3,0.3c0.2,0,0.3-0.1,0.3-0.3C166.4,35.4,166.3,35.3,166.1,35.3z M167.1,59.2
			c-0.4,0-0.7,0.2-0.7,0.7l0.1,0.1c0.2,0,0.4-0.1,0.4-0.3S167.1,59.4,167.1,59.2z M167.1,56.1c-0.2,0-0.3,0.1-0.3,0.4
			c0,0.2,0.1,0.4,0.3,0.4c0.1,0,0.2-0.1,0.2-0.4C167.3,56.2,167.2,56.1,167.1,56.1z M167.4,36.9h0.2h0.1c0,0,0.1-0.1,0.1-0.1
			c0,0,0.1-0.1,0.1-0.1l0.1-0.1c0-0.1,0-0.3-0.1-0.5c-0.1-0.2-0.2-0.4-0.3-0.5L167.4,36.9z M168.4,38.2l0.3-0.3l-0.3-0.3V38.2z
			 M169.6,35.6l0.1,0.1h0.1c0,0,0.1,0,0.1-0.1l0.1-0.1c0,0,0.1-0.1,0.1-0.1c0,0,0-0.1,0.1-0.1c0-0.1,0.1-0.2,0.2-0.3h-1L169.6,35.6z
			"/>
		<path class="st1" d="M194.7,61.2c-0.1,0.1-0.2,0.2-0.2,0.4c-0.1,0.2-0.1,0.3-0.1,0.4c0-0.2-0.1-0.3-0.2-0.3c-0.1,0-0.3,0-0.7,0
			c-0.4,0-0.6,0-0.7,0c0,0-0.3-0.1-0.7-0.2c-0.4-0.1-0.7-0.2-0.9-0.3c0,0-0.1,0-0.2-0.1l-0.3-0.1h-0.1h-0.1l-0.1,0.1
			c0,0-0.1,0.1-0.1,0.1l-0.1,0.1l-0.1-0.1c0-0.1,0-0.3-0.1-0.5c-0.1-0.2-0.2-0.4-0.3-0.5c-0.1-0.1-0.3-0.2-0.6-0.3
			c-0.3-0.1-0.5-0.1-0.6-0.1v-0.6l-1.1,0.7c0,0-0.1,0-0.2-0.2c-0.1-0.2-0.2-0.3-0.3-0.4c-0.1-0.1-0.1-0.3,0-0.5s0-0.4-0.2-0.5
			c-0.2,0.1-0.3,0.2-0.3,0.3s0,0.3,0,0.4c0,0.1,0,0.3-0.1,0.4s-0.3,0.2-0.7,0.2c-0.8,0-1.3-0.1-1.5-0.3c-0.2-0.2-0.3-0.5-0.3-0.8
			s0-0.6,0-0.9c0-0.3-0.1-0.5-0.4-0.6c-0.1,0-0.3-0.1-0.7-0.1c-0.4,0-0.7-0.1-0.9-0.1l0.3-0.6c-0.4,0-0.8-0.2-1.1-0.4
			c-0.3-0.2-0.6-0.5-0.8-0.8c-0.2-0.3-0.4-0.7-0.6-1.1c-0.2-0.4-0.4-0.7-0.6-1c0,0-0.2-0.2-0.3-0.5c-0.2-0.3-0.3-0.5-0.4-0.6
			c-0.6-0.7-0.9-1.3-1.1-1.8c-0.1-0.5-0.3-1.1-0.5-1.8l-0.1-0.1l-0.1-0.1c0-0.2-0.1-0.5-0.2-1.1c-0.1-0.5-0.1-0.9-0.1-1v-0.5
			c0-0.3,0-0.6,0.1-0.9c0.1-0.3,0.1-0.6,0.1-0.9v-0.3c0,0,0-0.1-0.1-0.3c-0.1-0.1-0.1-0.2-0.1-0.3v-1.2c0-0.2,0-0.5,0.1-1
			c0-0.5,0.1-0.9,0.2-1.5c0.1-0.5,0.2-1,0.4-1.3c0.2-0.4,0.4-0.6,0.7-0.6c0,0.2,0,0.4-0.1,0.6c-0.1,0.2-0.1,0.3-0.1,0.5
			c0.2,0,0.4,0,0.8,0.1c0.4,0,0.6,0,0.7-0.3c0-0.1,0.1-0.3,0.2-0.5c0.1-0.3,0.1-0.4,0.1-0.5h0.2v0.6c0.1,0,0.2,0,0.4,0.1
			c0.2,0.1,0.3,0.1,0.3,0l0.1-0.1l0.1-0.1c0.1,0,0.3,0,0.6-0.1c0.3-0.1,0.5-0.1,0.5-0.2v-0.3c0-0.5-0.1-0.9-0.3-1.4
			c-0.2-0.4-0.3-0.9-0.3-1.4c0.3,0,0.5,0,0.7,0.1c0.2,0.1,0.5,0.1,0.7,0.1c0.3,0,0.4-0.1,0.5-0.3c-0.1-0.2-0.2-0.3-0.4-0.3
			c-0.2,0-0.4,0-0.6-0.1l-0.1-0.1c0-0.2,0.1-0.4,0.3-0.7c0.2-0.3,0.3-0.5,0.3-0.7c0,0,0.2,0,0.4,0c0.2,0,0.3,0,0.4,0
			c0.1,0,0.4,0,0.8,0.1c0.5,0,0.7,0.2,0.7,0.5c0,0,0,0.1-0.1,0.3c-0.1,0.1-0.1,0.2-0.1,0.3v0.2c0.4,0,0.8,0,1.3-0.1
			c0.5-0.1,0.8-0.3,1.1-0.6c0.1-0.1,0.2-0.3,0.2-0.8c0.1-0.4,0.2-0.6,0.4-0.6c0,0.4,0.2,0.7,0.7,0.7c0.1,0,0.3,0,0.5,0
			c0.2,0,0.3-0.1,0.4-0.2c0-0.1,0-0.3,0-0.4l-0.1-0.3h-0.9c0.1,0,0.2-0.1,0.2-0.2c0-0.1,0.1-0.2,0.1-0.2c0-0.1,0-0.2-0.1-0.4
			c0-0.2-0.1-0.3-0.2-0.3c0,0,0.1,0,0.1-0.1l0.1,0.1c0,0,0.2,0.1,0.4,0.2c0.2,0.1,0.3,0.2,0.4,0.3c0.1,0,0.3,0.1,0.7,0.2
			c0.4,0.1,0.6,0.2,0.7,0.4c0.1,0.4,0.2,0.7,0.2,1.1c0,0.4,0.2,0.7,0.5,1c0,0,0.1,0,0.1,0c0,0,0.1,0,0.1,0v-0.5l0.1,0.1h0.1
			c0,0,0.1,0.1,0.3,0.3c0.2,0.2,0.3,0.2,0.3,0.2h0.1h0.1c0.1,0,0.4,0,0.7-0.1c0.3-0.1,0.5-0.1,0.6-0.2v-0.1c0-0.2-0.1-0.4-0.4-0.4
			c-0.3-0.1-0.5-0.1-0.6-0.2l-0.1-0.1c0,0,0-0.1,0.1-0.1c0-0.1,0.1-0.2,0.2-0.4c0.1-0.2,0.2-0.2,0.2-0.2c0.1,0,0.3,0.1,0.5,0.3
			c0.3,0.2,0.4,0.3,0.5,0.3h0.1c0.5,0,0.8-0.2,0.9-0.5c0.1-0.3,0.3-0.6,0.6-0.8c0.1,0.1,0.2,0.3,0.4,0.5s0.3,0.4,0.4,0.5
			c0,0,0.1,0.1,0.1,0.2c0,0.1,0.1,0.2,0.1,0.3l0.1,0.1l0.1-0.1c0,0,0.1,0,0.2-0.1c0,0,0.1-0.1,0.1-0.1v-2.1l0.5-0.2
			c-0.1,0.5-0.1,1,0,1.5c0.1,0.5,0.3,1,0.5,1.5l0.4-0.2v-2.5c0,0,0.1,0.1,0.1,0.1c0,0,0.1,0,0.1,0c0,0,0.1,0,0.1,0
			c0.1,0,0.2,0.1,0.2,0.2c0.1,0.1,0.2,0.3,0.2,0.8c0.1,0.4,0.1,0.7,0.1,0.8h0.1h0.2c0,0,0.1-0.1,0.3-0.3c0.1-0.1,0.2-0.2,0.3-0.3
			h2.3c-0.1,0.1-0.2,0.3-0.3,0.6c-0.1,0.3-0.2,0.5-0.2,0.6c0,0,0,0.1,0,0.2c0.1,0.1,0.1,0.2,0.2,0.2c0.1,0.1,0.3,0.2,0.6,0.2
			c0.3,0,0.6,0.1,0.7,0.1c0,0.1-0.1,0.2-0.3,0.2c-0.2,0-0.3,0-0.5,0c-0.2,0-0.4,0.1-0.6,0.2c-0.2,0.1-0.3,0.3-0.4,0.7
			c0-0.1,0-0.4-0.1-0.7c-0.1-0.3-0.2-0.5-0.2-0.6c0-0.1,0-0.2-0.1-0.4c0-0.2-0.1-0.3-0.1-0.4c-0.1-0.2-0.2-0.3-0.3-0.2
			s-0.2,0.1-0.4,0.1c0,0.6,0.1,1.1,0.3,1.4c0.2,0.3,0.3,0.8,0.3,1.3h-0.5l-0.1,0.3l0.8,0.8c0,0,0.1,0,0.1,0c0,0,0.1-0.1,0.1-0.1
			v-0.2l-0.1-0.3c0-0.1-0.1-0.2-0.1-0.3c0,0,0-0.1,0.1-0.1l0.1-0.1h0.2c0.3,0,0.5,0.2,0.6,0.5c0.1,0.3,0.1,0.6,0,0.8
			c0.1-0.4,0.3-0.7,0.5-0.8c0.2-0.1,0.6-0.1,1.1-0.1v1.3c0.5,0,0.8,0,1-0.1c0.2,0,0.4,0,0.8,0.3c0,0-0.1,0-0.2,0.1
			c-0.1,0-0.2,0.1-0.3,0.1v0.2c0,0.4,0.2,0.6,0.7,0.7c0.4,0.1,0.8,0.1,1,0.1c0,0,0,0.1-0.1,0.1c0,0.1-0.1,0.2-0.2,0.3
			c-0.1,0.1-0.1,0.2-0.2,0.2c-0.1,0-0.2,0-0.3-0.1c-0.1,0-0.2-0.1-0.3-0.1c-0.1,0-0.2-0.1-0.2-0.1l-0.3-0.1l-0.3-0.1
			c0,0-0.1,0-0.3,0.1c-0.1,0.1-0.2,0.1-0.3,0.2c0.5,0.4,0.9,1,1.3,1.6c-0.3,0.2-0.5,0.3-0.7,0.2s-0.5-0.1-0.8-0.1
			c0,0.1-0.1,0.2-0.1,0.2v0.1c0,0.1,0.1,0.2,0.2,0.4c0.1,0.2,0.2,0.3,0.2,0.3c0,0.1,0.2,0.2,0.4,0.4c0.2,0.2,0.4,0.3,0.4,0.4
			c0,0.1-0.1,0.3-0.2,0.6c-0.1,0.3-0.2,0.4-0.3,0.5c0-0.2-0.2-0.3-0.5-0.3c-0.1,0-0.2,0-0.3,0c-0.1,0-0.2,0.1-0.2,0.3
			c0.2,0,0.3,0.2,0.3,0.3s0,0.3,0,0.5c0,0.3-0.1,0.5-0.2,0.6c-0.1,0.1-0.3,0.2-0.5,0.2c-0.2,0-0.4,0.1-0.7,0.1c-0.3,0-0.5,0-0.7,0.1
			c-0.3,0.1-0.3,0.3-0.2,0.5c0.1,0.3,0,0.4-0.2,0.5c-0.1-0.3-0.3-0.4-0.4-0.5c-0.1,0-0.3-0.1-0.5-0.1c-0.5,0-0.8,0.1-0.9,0.3
			c-0.1,0.2-0.3,0.4-0.6,0.5l-0.5-0.3c-0.1,0-0.2-0.1-0.4-0.3c-0.2-0.1-0.3-0.2-0.4-0.3l-0.2,0.3l0.2,0.3c-0.2,0.3-0.3,0.5-0.3,0.8
			c0,0.2-0.1,0.5-0.1,0.7c0,0.2-0.1,0.4-0.2,0.6c-0.1,0.2-0.3,0.4-0.6,0.5c0.1-0.3,0.1-0.6,0-0.9c-0.1-0.3-0.4-0.4-0.7-0.4
			c-0.2,0-0.4,0.1-0.5,0.2c-0.1,0.2-0.2,0.3-0.3,0.6c0,0,0-0.1,0-0.2c0-0.1,0-0.2,0-0.2c0-0.1,0-0.2,0-0.2c0-0.1,0-0.1,0-0.2
			c0,0,0-0.2,0.1-0.4c0.1-0.2,0.1-0.3,0.1-0.4c0-0.2-0.1-0.3-0.3-0.3c-0.2,0-0.3,0-0.4,0c-0.2,0-0.5,0.1-0.9,0.3
			c-0.4,0.2-0.6,0.4-0.6,0.6c0,0,0,0.1,0.1,0.1c0,0.1,0.2,0.2,0.4,0.3c0.2,0.1,0.4,0.2,0.4,0.3c0,0,0,0.3,0,0.7c0,0.4,0,0.7,0,0.8
			c0,0,0,0.1,0.1,0.2l0.1,0.3v0.1c0,0,0,0.1,0.1,0.1c-0.4,0.2-0.6,0.4-0.9,0.5c-0.2,0.1-0.4,0.2-0.7,0.3c-0.2,0.1-0.4,0.1-0.4,0.1
			c0-0.4,0.1-0.6,0.3-0.8c0.2-0.2,0.3-0.4,0.3-0.8s-0.1-0.5-0.2-0.5c-0.2,0-0.4,0-0.7,0c0,0.1,0,0.2,0.1,0.4c0,0.2,0.1,0.3,0.1,0.4
			c0,0.2-0.2,0.5-0.3,0.9c-0.1,0.2-0.2,0.4-0.2,0.6h-0.1c0-0.1,0-0.4-0.1-0.7c-0.1-0.3-0.3-0.4-0.6-0.3c-0.2,0-0.5,0.1-1,0.2
			c-0.5,0.1-0.9,0.2-1.1,0.3c0,0-0.1,0.1-0.2,0.1l-0.3,0.1H188c0-0.5-0.2-0.9-0.7-1.3c0,0-0.1,0.1-0.3,0.1v1.3
			c-0.3,0-0.5-0.2-0.6-0.5c-0.1-0.4-0.3-0.5-0.6-0.5c0,0.1,0,0.3-0.1,0.6c0,0.3-0.1,0.5-0.1,0.6c0,0.1,0.1,0.3,0.2,0.5
			c0.1,0.3,0.2,0.4,0.3,0.5l0.4,0.1c0.3,0.1,0.5,0.1,0.6,0.1c0.6,0.1,1.2,0.3,1.8,0.4c0.6,0.1,1.1,0.3,1.6,0.4
			c0.5,0.2,1,0.3,1.6,0.4s1.1,0.2,1.6,0.4c0.1,0,0.3,0.1,0.6,0.2c0.3,0.1,0.4,0.2,0.4,0.2c0,0,0.1,0.2,0.1,0.4
			c0,0.2,0.1,0.4,0.1,0.4c0,0,0.2,0,0.5,0.1c0.3,0.1,0.5,0.1,0.6,0.1h0.3c0.3,0,0.5,0,0.7-0.1s0.4-0.1,0.7-0.1
			c0.5,0,0.9,0.1,1.3,0.2c0.4,0.1,0.8,0.2,1.3,0.2c0,0.4,0.1,0.6,0.3,0.6s0.4,0.1,0.6,0.1c0.4,0,0.6-0.1,0.6-0.2
			c0.1-0.1,0.2-0.2,0.4-0.2c0.2,0,0.3,0,0.3,0.1c0,0.1,0.1,0.2,0.1,0.3s0,0.2,0.1,0.3c0,0.1,0.2,0.1,0.3,0.1c0.3,0,0.4-0.1,0.4-0.4
			c-0.1-0.3,0.1-0.4,0.4-0.4c0,0,0.1,0,0.2,0s0.1,0,0.2,0c0.1,0,0.2,0.1,0.3,0.1s0.3,0,0.4,0.1c0.2,0,0.4,0.1,0.5,0.1
			c0.2,0.1,0.3,0.2,0.3,0.5c0,0.2,0.1,0.3,0.4,0.3h0.1l1.3-1.3h2.3l-0.2,0.3c0.1,0.3,0.4,0.5,0.8,0.5c0.4,0,0.7,0.2,1,0.5l-0.6,0.3
			c0,0.3,0,0.6-0.1,0.9c0,0.2-0.1,0.5-0.1,0.8c0,0.3,0,0.5,0,0.7c0,0.2-0.1,0.3-0.1,0.4c0,0-0.2,0-0.4,0V60h0.7v1.3h-0.1
			c-0.1,0-0.1,0-0.1-0.1c0,0-0.1,0-0.1-0.1c0-0.1-0.1-0.1-0.1-0.1c-0.1-0.1-0.3-0.2-0.5-0.3s-0.4-0.2-0.5-0.3l-0.1,0.1
			c0,0.2,0,0.4,0.1,0.4c0,0,0.1,0.1,0.2,0.1s0.1,0,0.2,0c0,0,0.1,0.1,0.1,0.2c0,0.2-0.1,0.4-0.2,0.6c-0.2,0.2-0.3,0.2-0.6,0.2h-0.3
			c0,0-0.3-0.1-0.7-0.1c-0.4,0-0.7-0.1-0.8-0.1h-0.1h-0.1l-0.1,0.1c0,0-0.1,0.1-0.1,0.1c-0.1,0-0.2,0-0.4,0.1
			c-0.2,0-0.3,0.1-0.4,0.1v-0.9c-0.9,0.1-1.7,0.4-2.3,0.8v-1.2c0,0-0.1-0.1-0.1-0.1h-0.1c0,0-0.1,0.2-0.2,0.4
			c-0.1,0.2-0.1,0.3-0.1,0.4h-1.3l-0.3,0.5c0,0-0.1-0.1-0.2-0.3c-0.1,0-0.3,0-0.5-0.1c-0.2,0-0.3-0.1-0.5-0.1
			c-0.1-0.1-0.1-0.2,0.1-0.4c0.1-0.2,0.2-0.3,0.2-0.4c0,0-0.2,0-0.4,0c-0.2,0-0.4,0-0.4,0l-0.1,0.1l-0.1,0.1c-0.1,0-0.3,0-0.5,0
			c-0.3,0-0.4,0-0.5,0v-0.7c0,0-0.1,0.1-0.1,0.2c0,0.1-0.1,0.1-0.1,0.1h-0.1h-0.1c0,0-0.1,0-0.2-0.1c-0.1-0.1-0.1-0.2-0.1-0.2h-0.1
			h-0.2c-0.2,0.1-0.4,0.3-0.5,0.6c-0.1,0.2-0.2,0.5-0.2,0.7s-0.1,0.4-0.2,0.6c-0.1,0.2-0.2,0.2-0.3,0.2c-0.2,0-0.4-0.1-0.4-0.2
			c0-0.1-0.1-0.3-0.1-0.5c0-0.2-0.1-0.3-0.1-0.5s-0.2-0.2-0.5-0.2H194.7z M176.8,38.8c-0.1,0-0.2,0.1-0.2,0.2c0,0.2,0.1,0.2,0.2,0.2
			c0.1,0,0.1-0.1,0.1-0.2C177,38.9,176.9,38.8,176.8,38.8z M179.2,41.1c-0.1,0-0.2,0.1-0.2,0.2c0,0.2,0.1,0.2,0.2,0.2
			c0.1,0,0.1-0.1,0.1-0.2C179.3,41.2,179.2,41.1,179.2,41.1z M179.4,39.8c-0.2,0.1-0.3,0.3-0.3,0.6c0.3,0,0.5-0.1,0.6-0.3
			L179.4,39.8z M179.4,44.3c0-0.1,0-0.1-0.1-0.1c-0.1,0-0.1,0-0.1,0.1s0.1,0.1,0.1,0.1C179.3,44.4,179.4,44.4,179.4,44.3z M180.5,38
			c-0.2,0-0.4,0.2-0.5,0.5c-0.1,0.3-0.1,0.5-0.1,0.6c0.1,0,0.3-0.1,0.6-0.3c0.3-0.2,0.5-0.3,0.5-0.4v-0.1c-0.1-0.1-0.2-0.2-0.3-0.2
			C180.6,38.1,180.5,38,180.5,38z M180.7,39c-0.1,0-0.1,0.1-0.1,0.3c0,0.2,0,0.3,0.1,0.3c0.1-0.1,0.1-0.2,0.1-0.3
			S180.8,39.1,180.7,39z M182.4,46.8c0,0.1,0,0.2-0.1,0.3c-0.1,0.1-0.1,0.2,0,0.3c0,0,0.1,0.1,0.2,0.2c0.1,0.1,0.2,0.2,0.3,0.3
			c0.2,0,0.3-0.2,0.3-0.5c0-0.3,0-0.5,0-0.6c0-0.3-0.1-0.6-0.2-0.8c-0.1-0.2-0.2-0.5-0.2-0.8c0-0.2,0.1-0.4,0.2-0.6
			c0.1-0.2,0.3-0.2,0.5-0.2h0.1c0,0,0.1,0.1,0.2,0.3c0.2,0.2,0.3,0.2,0.3,0.2h0.1h0.1c0,0,0.1-0.1,0.2-0.1l0.3-0.1
			c0.1,0,0.3-0.1,0.6-0.1c0.3,0,0.5-0.1,0.5-0.2c0,0,0.1-0.2,0.1-0.5c0-0.3,0.1-0.5,0.1-0.5c0,0,0.2,0,0.4-0.1
			c0.2-0.1,0.4-0.1,0.6-0.1h0.2h0.1c0,0,0.2,0,0.4,0.1c0.2,0.1,0.4,0.1,0.4,0.1c0.3,0,0.7-0.2,1.1-0.5c0.4-0.3,0.7-0.5,1-0.6
			c0.1,0.4,0.2,0.7,0.3,0.9c0.1,0.2,0.3,0.3,0.7,0.3c0.1,0,0.3,0,0.6,0c0.3,0,0.5-0.1,0.6-0.3l0.5-2.1c0.2-0.1,0.5-0.2,1-0.3
			c0.4-0.1,0.7-0.2,1-0.2h0.1c0.1,0,0.2,0.1,0.4,0.3c0.2,0.1,0.3,0.2,0.4,0.3h0.1h0.1c0,0,0.1,0,0.2-0.1c0.1-0.1,0.1-0.2,0.1-0.2
			c0-0.1,0.1-0.3,0.2-0.7c0.1-0.4,0.1-0.7,0.1-0.8c0.1,0,0.4,0,0.9-0.1s0.8-0.1,0.9-0.2c0.2,0,0.4,0,0.8-0.1c0.2,0,0.4-0.1,0.5-0.1
			v-2.1c0,0.2,0.1,0.3,0.2,0.3c0.2,0.2,0.4,0.4,0.7,0.5c0.1,0.1,0.3,0.2,0.4,0.3l0.3-0.3c-0.4-0.6-0.6-1.1-0.7-1.5
			c-0.1-0.4-0.5-0.9-1.1-1.4c-0.2-0.2-0.6-0.4-1.1-0.8c-0.5-0.3-0.9-0.5-1.2-0.5c-0.5,0-0.9,0.1-1.3,0.4c-0.4,0.2-0.7,0.5-1.1,0.8
			c-0.4,0.3-0.7,0.6-1.2,0.8c-0.4,0.2-0.9,0.4-1.6,0.4h-0.2c-0.1,0-0.3-0.1-0.6-0.2c-0.3-0.2-0.5-0.3-0.5-0.3h-0.1h-0.1
			c0,0,0,0.2-0.1,0.4c-0.1,0.2-0.1,0.3-0.2,0.4l-0.5,0.5c0,0-0.1,0.1-0.2,0.1c0,0-0.1,0.1-0.2,0.1h-0.1c0,0-0.1,0.1-0.3,0.3
			c-0.1,0.2-0.2,0.3-0.3,0.3c-0.1,0-0.3,0-0.5,0c-0.3,0-0.4,0-0.5,0c0,0-0.1,0.1-0.2,0.3c-0.1,0.2-0.1,0.4-0.1,0.4
			c0,0,0,0.1-0.1,0.1s-0.1,0.1-0.2,0.1l-0.2-0.3c-1.3,0.8-2.1,2-2.3,3.4c-0.3-0.2-0.5-0.1-0.7,0.1c-0.2,0.3-0.3,0.5-0.4,0.6
			c0,0.1,0,0.3-0.1,0.5c-0.1,0.3-0.1,0.4-0.1,0.5h-0.5l-0.5-1.3c0,0,0,0.1,0,0.3c0,0.1,0,0.2,0,0.3c0,0.4,0.1,0.6,0.2,0.9
			c0.1,0.2,0.2,0.5,0.2,0.9c0,0,0,0.1,0,0.1c0,0,0,0.1,0,0.1v0.2c0,0.1-0.2,0.2-0.4,0.2c-0.2,0.1-0.4,0.1-0.5,0v1.8H181v0.3
			c0.3,0,0.5,0,0.7-0.1C181.8,46.9,182.1,46.8,182.4,46.8z M181.7,48.4c0-0.1,0-0.1-0.1-0.1s-0.1,0-0.1,0.1s0.1,0.1,0.1,0.1
			C181.7,48.5,181.7,48.5,181.7,48.4z M181.5,35.7c0,0,0,0.1,0.1,0.1c0.1,0,0.1,0.1,0.1,0.1c0.1,0,0.3,0,0.6,0.1
			c0.3,0,0.5,0.1,0.6,0.1c0-0.4-0.1-0.7-0.4-0.7h-0.1c-0.1,0-0.2,0-0.4,0.1C181.7,35.6,181.6,35.7,181.5,35.7z M182.3,36.5
			c-0.1,0-0.2,0.1-0.2,0.2c0,0.2,0.1,0.2,0.2,0.2c0.1,0,0.1-0.1,0.1-0.2C182.4,36.6,182.4,36.5,182.3,36.5z M182.4,32.7
			c0,0.4,0.1,0.6,0.4,0.8c0.3,0.2,0.5,0.3,0.8,0.3c0-0.5-0.1-0.8-0.3-0.9C183.2,32.8,182.9,32.7,182.4,32.7z M183,49.9
			c-0.1,0-0.1,0.1-0.1,0.3s0,0.3,0.1,0.3c0.1,0,0.2-0.1,0.2-0.3S183.1,49.9,183,49.9z M183.5,46.8c-0.1,0-0.2,0.1-0.2,0.3
			c0,0.2,0.1,0.3,0.2,0.3s0.2-0.1,0.2-0.3C183.7,46.9,183.7,46.8,183.5,46.8z M183.5,34.7c0,0.2,0.1,0.3,0.3,0.3
			c0.2,0,0.3-0.2,0.3-0.4c0-0.2,0-0.3,0-0.4c-0.1,0-0.3,0-0.4,0.1C183.6,34.3,183.5,34.4,183.5,34.7L183.5,34.7z M183.5,38.8
			c0,0.1,0.1,0.2,0.3,0.2v-0.1v-0.1c0,0,0-0.1-0.1-0.2c-0.1-0.1-0.1-0.1-0.1-0.2v0.2V38.8z M184.6,57.4c-0.2,0-0.3,0.1-0.3,0.3v0.1
			v0.1c0.2-0.1,0.5-0.2,0.7-0.2s0.4-0.3,0.4-0.6c0,0,0-0.1,0-0.1c0,0,0,0,0-0.1v-0.1c-0.1-0.1-0.3-0.2-0.5-0.3
			c-0.2-0.1-0.4-0.2-0.5-0.3l-0.3,0.3l-0.1,0.1v0.1c0,0,0,0.1,0.1,0.1c0,0,0.1,0.1,0.2,0.3C184.4,57.3,184.5,57.4,184.6,57.4z
			 M184.3,58.5c-0.1,0-0.2,0.1-0.2,0.2c0,0.2,0.1,0.2,0.2,0.2c0.1,0,0.2-0.1,0.2-0.2C184.5,58.5,184.5,58.5,184.3,58.5z M184.3,36.5
			h0.3v-0.8h-0.3V36.5z M184.6,45.8c0-0.1,0-0.1-0.1-0.1s-0.2,0-0.2,0.1c0,0.1,0,0.1,0.1,0.1S184.6,45.9,184.6,45.8z M184.6,58.9
			c-0.1,0-0.1,0.1-0.1,0.2s0,0.2,0.1,0.2C184.8,59.2,184.8,59,184.6,58.9z M184.8,34.9c0-0.1,0-0.1-0.1-0.1c-0.1,0-0.1,0-0.1,0.1
			c0,0.1,0.1,0.1,0.1,0.1C184.8,35,184.8,35,184.8,34.9z M184.6,55.8h0.5v-0.2h-0.5V55.8z M185.3,59.2c0-0.1,0-0.1-0.1-0.1
			c-0.1,0-0.2,0-0.2,0.1C185.1,59.3,185.2,59.3,185.3,59.2C185.3,59.3,185.3,59.3,185.3,59.2z M185.6,58.1c-0.1,0-0.2,0.1-0.2,0.3
			c0,0.2,0.1,0.3,0.2,0.3c0.1,0,0.2-0.1,0.2-0.3C185.8,58.2,185.7,58.1,185.6,58.1z M185.6,52h0.3v-0.3h-0.3V52z M185.9,33.4
			c-0.1,0-0.2,0.1-0.2,0.3c0,0.2,0.1,0.3,0.2,0.3s0.2-0.1,0.2-0.3C186.1,33.5,186,33.4,185.9,33.4z M186.1,33.7
			c-0.1,0-0.2,0.1-0.2,0.3c0,0.2,0.1,0.3,0.2,0.3c0.1,0,0.2-0.1,0.2-0.3C186.3,33.7,186.3,33.7,186.1,33.7z M186.4,37
			c-0.1,0-0.2,0.1-0.2,0.3c0,0.2,0.1,0.3,0.2,0.3s0.2-0.1,0.2-0.3C186.6,37.1,186.5,37,186.4,37z M186.4,57.1h0.5l-0.1-0.1
			c0,0-0.1-0.1-0.1-0.1l-0.1-0.1c0,0-0.1,0-0.1,0.1V57.1z M186.9,33.4c0,0.1,0,0.2,0,0.4c0.1,0.2,0.1,0.3,0.2,0.4h0.1h0.1l0.8-0.3
			v-0.1c0-0.2-0.1-0.5-0.2-0.7c-0.2-0.2-0.3-0.4-0.6-0.5c0,0.1-0.1,0.2-0.3,0.4C187,33.2,186.9,33.3,186.9,33.4z M188.2,57.1
			c-0.2,0-0.4,0-0.6,0.1c-0.2,0.1-0.2,0.2-0.2,0.5h0.8V57.1z M188.7,56.9c0,0.1,0,0.2,0,0.3s0,0.2,0.1,0.3l0.1,0.4h0.3v-1.7
			C188.9,56.3,188.7,56.5,188.7,56.9z M188.9,33.4c-0.1,0-0.1,0.1-0.1,0.3c0,0.2,0,0.3,0.1,0.3c0.2,0,0.3-0.1,0.3-0.3
			C189.2,33.5,189.1,33.4,188.9,33.4z M188.9,36.2c-0.1,0-0.1,0.1-0.1,0.2c0,0.2,0,0.2,0.1,0.2c0.2,0,0.3-0.1,0.3-0.2
			C189.2,36.3,189.1,36.2,188.9,36.2z M189.4,32c-0.2,0-0.4,0.1-0.5,0.4h0.5V32z M189.2,36c0.1-0.3,0.2-0.5,0.2-0.7
			c0-0.2,0.1-0.4,0.1-0.7c0-0.1,0-0.2,0-0.4c0-0.2-0.1-0.3-0.3-0.3V36z M190,48.6l0.2-0.2h-0.5L190,48.6z M190.8,55.1
			c-0.1,0-0.2,0.1-0.2,0.3c0,0.2,0.1,0.3,0.2,0.3s0.2-0.1,0.2-0.3C191,55.2,190.9,55.1,190.8,55.1z M191,47.6c0-0.1,0-0.1-0.1-0.1
			c-0.1,0-0.2,0-0.2,0.1C190.9,47.8,190.9,47.8,191,47.6z M191,59.7c0-0.1,0-0.1-0.1-0.1c-0.1,0-0.2,0-0.2,0.1
			C190.9,60,190.9,60,191,59.7z M191,34.2c0.2,0.3,0.3,0.5,0.5,0.7c0.1,0.2,0.4,0.3,0.7,0.3c0.1,0,0.3,0,0.4,0s0.2-0.1,0.3-0.3
			c0,0-0.1,0-0.1-0.1c0-0.1-0.1-0.1-0.1-0.1c0,0-0.2,0-0.4-0.1c-0.2-0.1-0.3-0.1-0.4-0.2c0,0-0.1-0.1-0.1-0.2c0-0.2-0.1-0.2-0.1-0.2
			h-0.1h-0.2l-0.1,0.1C191,34.1,191,34.1,191,34.2z M192,56.1c0-0.1,0-0.1-0.2-0.1s-0.3,0-0.2,0.1s0.1,0.1,0.3,0.1
			S192,56.2,192,56.1z M192.8,56.4c0.2,0,0.4-0.1,0.5-0.3h-0.5V56.4z M193.6,43.2h0.3v-0.3h-0.3V43.2z M194.1,45v-0.3h-0.3L194.1,45
			z M193.9,41.3c0,0.1,0,0.3,0.1,0.6s0.1,0.5,0.2,0.7c0.1,0.2,0.2,0.5,0.3,0.7c0.1,0.2,0.3,0.3,0.5,0.3l0.1-0.1l0.1-0.1l0.1-0.1
			c0-0.1,0.1-0.3,0.1-0.7s0-0.6,0-0.7c-0.2,0-0.4,0.1-0.6,0.3c-0.1-0.2-0.2-0.4-0.3-0.6C194.4,41.4,194.2,41.3,193.9,41.3z
			 M195.1,32.3c0,0.1,0,0.2,0,0.4c0,0.2,0.1,0.3,0.3,0.4c0.2,0,0.3-0.1,0.3-0.3v-0.1c0-0.2-0.1-0.3-0.2-0.3
			C195.3,32.4,195.2,32.3,195.1,32.3z M195.1,44.3h0.3v-0.3h-0.3V44.3z M195.7,56.3c0.5,0.3,0.8,0.5,1,0.8c0.1,0,0.2,0,0.2-0.1
			l0.1-0.1c0-0.1,0-0.3,0-0.6c0-0.3,0-0.5,0-0.6c-0.2,0-0.5,0.1-0.7,0.2S195.9,56.2,195.7,56.3z M195.7,60.8h0.3
			c0-0.2-0.1-0.4-0.3-0.5V60.8z M196.4,57.6c0,0.2,0,0.5,0.1,0.7s0.2,0.4,0.5,0.4h0.2c0-0.3-0.1-0.5-0.2-0.8S196.7,57.6,196.4,57.6z
			 M196.6,44.5c0,0.1,0,0.3,0,0.6c0,0.3,0.1,0.5,0.4,0.5c0.2,0,0.3-0.2,0.3-0.5c0-0.3,0-0.5,0-0.6H196.6z M197,46.6v-0.5l-0.3,0.2
			L197,46.6z M196.9,40c0,0,0,0.1,0.1,0.1c0,0,0,0.1,0.1,0.1l0.1,0.1c0.1-0.4,0.3-0.6,0.7-0.6c0.4,0,0.7,0,0.9,0.1
			c-0.1-0.2-0.2-0.3-0.4-0.3c-0.2,0-0.3,0-0.4,0c-0.1,0-0.3,0-0.6,0C197.1,39.6,196.9,39.7,196.9,40z M199,40.4
			c-0.1,0-0.2,0.1-0.4,0.2c-0.2,0.1-0.2,0.2-0.2,0.3h0.9L199,40.4z M198.5,33.4h0.5v-0.3h-0.5V33.4z M199,60.4
			c-0.1,0-0.1,0.1-0.1,0.3s0,0.3,0.1,0.3c0.2,0,0.3-0.1,0.3-0.3S199.2,60.4,199,60.4z M199.8,44.7l0.3-0.3h-0.5L199.8,44.7z
			 M199.8,41.6c-0.1,0-0.1,0.1-0.1,0.3s0,0.3,0.1,0.3c0.2,0,0.3-0.1,0.3-0.3S200,41.6,199.8,41.6z M200.1,40.6
			c0-0.1-0.1-0.1-0.2-0.1c-0.1,0-0.2,0-0.2,0.1c0,0.1,0.1,0.1,0.2,0.1C200,40.8,200.1,40.7,200.1,40.6z M199.8,43.7h0.3v-0.3h-0.3
			V43.7z M200.8,44.5c0-0.1-0.1-0.1-0.2-0.1s-0.1,0-0.1,0.1c0,0.1,0.1,0.1,0.2,0.1S200.8,44.6,200.8,44.5z M200.6,42.9h0.3v-0.3
			L200.6,42.9z M200.8,38.8c-0.1,0-0.2,0.1-0.2,0.2c0,0.2,0.1,0.2,0.2,0.2s0.2-0.1,0.2-0.2C201,38.9,201,38.8,200.8,38.8z M201,39.8
			c0,0.5,0.1,0.9,0.3,1.2c0.2,0.3,0.4,0.6,0.5,1c0.1-0.1,0.2-0.2,0.2-0.3v-0.1v-0.1c0-0.1,0-0.2-0.1-0.4s-0.1-0.3-0.1-0.4
			c-0.1-0.3-0.1-0.5-0.2-0.7C201.7,39.8,201.5,39.8,201,39.8z M201.9,43.5c-0.1,0-0.2,0.1-0.2,0.2c0,0.2,0.1,0.2,0.2,0.2
			c0.1,0,0.1-0.1,0.1-0.2C202,43.5,202,43.5,201.9,43.5z M202.1,37c-0.1,0-0.1,0.1-0.1,0.3s0,0.3,0.1,0.2c0.1,0,0.1-0.1,0.1-0.3
			C202.2,37.1,202.2,37,202.1,37z M202.4,36c-0.1,0-0.2,0.1-0.2,0.3c0,0.2,0.1,0.3,0.2,0.3c0.1,0,0.2-0.1,0.2-0.3
			C202.6,36.1,202.5,36,202.4,36z M203.4,40.6v-0.3h-0.8L203.4,40.6z M203.8,56.9c-0.5,0-0.7,0.2-0.7,0.5c0.3,0,0.6-0.2,0.9-0.5
			H203.8z M203.7,36.7c-0.1,0-0.2,0.1-0.2,0.3s0.1,0.3,0.2,0.3s0.2-0.1,0.2-0.3S203.8,36.7,203.7,36.7z M204,37
			c-0.1,0-0.2,0.1-0.2,0.3c0,0.2,0.1,0.3,0.2,0.3s0.2-0.1,0.2-0.3C204.2,37.1,204.1,37,204,37z M205,58.1c0,0,0,0.1,0.1,0.2l0.1,0.1
			c0.1,0,0.3-0.1,0.4-0.2c0.2-0.1,0.3-0.2,0.4-0.3l-0.3-0.3h-0.1h-0.1c0,0-0.1,0.1-0.3,0.1s-0.2,0.1-0.3,0.1V58.1L205,58.1z
			 M205.5,60.4v-0.2h-0.3L205.5,60.4z M205.7,56.9c-0.1,0-0.2,0.1-0.2,0.2c0,0.2,0.1,0.2,0.2,0.2s0.2-0.1,0.2-0.2
			C205.9,57,205.9,56.9,205.7,56.9z M206.5,57.1c-0.2,0-0.3,0.1-0.3,0.3s0.1,0.3,0.3,0.3c0.1,0,0.1-0.1,0.1-0.3
			S206.6,57.1,206.5,57.1z M208.3,60.8c-0.3,0-0.5,0.1-0.5,0.3h0.1h0.1c0,0,0.1-0.1,0.3-0.1c0.1,0,0.2-0.1,0.2-0.1H208.3z"/>
		<path class="st1" d="M220.3,62.3c-0.2,0-0.4,0-0.4-0.1s-0.2,0-0.4,0.3c0-0.2-0.1-0.5-0.2-1c-0.1-0.5-0.2-0.8-0.4-1v-3
			c-0.1-0.2-0.2-0.5-0.3-0.7c-0.1-0.3-0.1-0.5-0.1-0.7c0-0.3,0.2-0.5,0.5-0.7c0.3-0.2,0.5-0.5,0.5-0.9c0-0.1,0-0.5-0.1-1
			c-0.1-0.6-0.1-0.9-0.2-1c0,0-0.2-0.2-0.4-0.5c-0.2-0.3-0.3-0.4-0.3-0.5c0,0-0.1-0.2,0-0.5c0-0.3,0.1-0.6,0.2-0.8
			c0,0,0.1,0,0.1-0.1s0-0.1,0.1-0.1c0,0,0.1-0.1,0.1-0.2v-0.1v-0.2c-0.2-0.7-0.4-1.3-0.5-2s-0.2-1.3-0.2-2.1c0-0.1,0.1-0.2,0.1-0.3
			c0-0.1,0.1-0.2,0.1-0.2c0,0,0.1-0.1,0.1-0.1v-0.9c0-0.3,0-0.6-0.1-1.1c0-0.4-0.1-0.9-0.2-1.4c-0.1-0.5-0.3-0.9-0.5-1.3
			c-0.2-0.4-0.5-0.6-0.8-0.8c0,0-0.1,0.1-0.2,0.1c0,0-0.1,0.1-0.2,0.1h-0.1c-0.1,0-0.2,0-0.3-0.1l-0.3-0.1h-0.2
			c-0.3,0-0.6,0.1-0.7,0.2c-0.1-0.4-0.2-0.9-0.4-1.3c-0.2-0.4-0.6-0.6-1.1-0.4c0-0.2-0.2-0.6-0.3-1c-0.2-0.5-0.4-0.8-0.7-0.9
			c0.7-0.4,1-0.8,1.1-1.4c0.1-0.6,0.1-1.2,0.1-1.8c-0.1,0-0.2,0-0.4,0.1c-0.2,0.1-0.2,0-0.2-0.3c0-0.1,0-0.3,0-0.5
			c0-0.3,0-0.4,0-0.5c0-0.2,0-0.5,0-0.9c0-0.4,0.1-0.6,0.3-0.8c0.2,0,0.3,0.2,0.3,0.4c0,0.2,0,0.4-0.1,0.7c0,0.2-0.1,0.5-0.1,0.7
			s0.1,0.3,0.3,0.3c0.2,0,0.4-0.1,0.5-0.2l0.2,0.9c0.1,0,0.2-0.1,0.3-0.2c0.1-0.1,0.2-0.2,0.3-0.3V32v-0.1c0,0-0.1-0.2-0.2-0.4
			c-0.1-0.2-0.1-0.3-0.1-0.4V31v-0.1c0.1-0.1,0.2-0.2,0.4-0.5c0.2-0.2,0.4-0.3,0.6-0.3v0.3c0,0-0.1,0.1-0.2,0.3
			c-0.1,0.1-0.1,0.2-0.1,0.3c0,0.1,0.1,0.2,0.2,0.4s0.2,0.3,0.3,0.4c0.7-0.1,1.2-0.2,1.6-0.3c0.4-0.1,0.7-0.5,1-1.2
			c0.3,0,0.5,0.1,0.7,0.2c0.2,0.2,0.3,0.3,0.4,0.5c0.1,0.2,0.2,0.4,0.3,0.5c0.1,0.2,0.2,0.2,0.4,0.2c0.3,0,0.4-0.1,0.5-0.3
			c0.1-0.2,0.2-0.3,0.5-0.3c0,0.9,0.2,1.5,0.5,1.8c0.3,0.3,0.7,0.5,1.1,0.5c0.4,0.1,0.8,0.1,1.1,0.1c0.3,0,0.5,0.2,0.6,0.6
			c0.1-0.2,0.3-0.4,0.7-0.6c0.4-0.2,0.7-0.4,0.8-0.4c0.1,0,0.3,0,0.6,0c0.3,0,0.5,0,0.6,0c0.5-0.2,1-0.6,1.6-1.2
			c0.6-0.6,1-1,1.2-1.4c0,0,0.1,0,0.1-0.1c0-0.1,0.1-0.1,0.1-0.1c0.1,0,0.3,0,0.5,0c0.3,0,0.4,0,0.5,0c0.1,0,0.3-0.2,0.5-0.5
			c0.2-0.3,0.4-0.4,0.5-0.5h0.1c0,0,0.1,0,0.1,0c0,0,0,0,0.1,0l0.1,0.1c0,0,0.1,0,0.3,0.1s0.2,0.1,0.3,0.1h0.1h0.1
			c0,0,0.2,0,0.4-0.1c0.2-0.1,0.3-0.1,0.4-0.1c0,0,0.2,0.1,0.3,0.4c0.2,0.2,0.3,0.4,0.3,0.4c0.2,0.1,0.5,0.2,0.9,0.2
			c0.4,0,0.7,0.1,0.8,0.1c0,0.2,0.1,0.4,0.2,0.7c0.1,0.2,0.2,0.5,0.2,0.9h0.3c0,0,0.2,0,0.3-0.1c0.2-0.1,0.3-0.1,0.3-0.1h0.2
			c0.2,0,0.3,0.1,0.5,0.3c0.1,0.2,0.3,0.4,0.4,0.7c0.1,0.3,0.2,0.5,0.4,0.8c0.2,0.3,0.4,0.5,0.6,0.7l0.1,0.1h0.1
			c0,0.1,0,0.2-0.1,0.5c-0.1,0.2-0.1,0.4-0.1,0.4v0.2c0,0,0,0.1,0.1,0.1l0.2,0.1l0.1-0.1c0,0,0.1-0.1,0.1-0.1c0,0,0-0.1,0.1-0.1
			c0-0.1,0.1-0.2,0.2-0.2l0.1-0.1l0.1,0.1c0.1,0.1,0.2,0.2,0.5,0.4c0.2,0.2,0.3,0.3,0.3,0.4v2.2l-0.2,0.3c-0.2,0.1-0.5,0-0.9-0.3
			c-0.4-0.3-0.6-0.6-0.7-0.7c0,0.1-0.1,0.2-0.1,0.3c0,0.1-0.1,0.2-0.1,0.3v0.1v0.1c0,0.1,0.1,0.3,0.1,0.8c0,0.4,0.1,0.7,0.1,0.8v0.1
			c0,0-0.1,0.2-0.3,0.4c-0.2,0.2-0.4,0.4-0.7,0.7c-0.3,0.2-0.5,0.5-0.7,0.6c-0.2,0.2-0.4,0.3-0.4,0.3c-0.3,0-0.5-0.1-0.7-0.3
			s-0.3-0.4-0.4-0.6c-0.1-0.2-0.2-0.4-0.3-0.7c-0.1-0.2-0.3-0.4-0.5-0.4c-0.1,0-0.4,0.1-0.8,0.2c-0.4,0.1-0.7,0.2-0.8,0.3
			c-0.2-0.3-0.4-0.6-0.4-0.7c0-0.2-0.1-0.4-0.1-0.7c0-0.3,0-0.5,0.1-0.7c0-0.2,0.2-0.4,0.4-0.6h-0.6c-0.3,0-0.5,0-0.6,0.1
			c-0.1,0.1-0.2,0.1-0.4,0.1c-0.3,0-0.5,0-0.5-0.1c0-0.1-0.3-0.1-0.7-0.1c-0.7,0-1.2,0.2-1.5,0.6c-0.3,0.4-0.6,1-0.7,1.6l0.1,0.3
			c0,0.1,0.1,0.2,0.1,0.2c0,0,0,0.1-0.1,0.1l-0.2,0.2l-0.1,0.1c-0.2,0-0.3-0.1-0.3-0.2s-0.1-0.2-0.2-0.4c-0.1-0.2-0.2-0.3-0.4-0.4
			s-0.5-0.2-0.9-0.2c-0.1,0-0.3,0.1-0.7,0.4c-0.4,0.3-0.5,0.5-0.5,0.8v0.1l0.3,0.3V41c0,0,0,0.1,0.1,0.1h-0.4c0,0-0.1-0.1-0.2-0.2
			s-0.2-0.2-0.2-0.2l-0.1-0.1c-0.4,0-0.6,0.2-0.8,0.5c-0.2,0.3-0.3,0.7-0.3,1c0,0.2,0.2,0.4,0.5,0.5c0.4,0.1,0.6,0.1,0.9,0
			c-0.2,0.4-0.3,0.8-0.4,1.1c-0.1,0.3-0.1,0.7-0.1,1.1c0,0.2,0,0.3,0.1,0.4c0.1,0.1,0.1,0.3,0.1,0.5c0,0.2,0,0.4-0.1,0.4
			c-0.1,0-0.1,0.1-0.1,0.3v0.3c0,0,0.1,0.1,0.3,0.2c0.1,0.1,0.2,0.2,0.2,0.2l-0.1,0.3c0,0.1-0.1,0.2-0.1,0.2v0.1
			c0,0.3,0.1,0.7,0.4,1.3c0.3,0.6,0.4,1,0.4,1.4c0,0.1,0,0.3,0,0.5c0,0.2-0.1,0.5-0.1,0.7c-0.1,0.2-0.2,0.4-0.3,0.6
			c-0.1,0.2-0.3,0.2-0.4,0.2v0.7c0,0.7,0.1,1.5,0.4,2.5c0.3,1,0.4,1.8,0.4,2.4c0,0.5-0.1,0.9-0.3,1.1c-0.2,0.2-0.4,0.4-0.6,0.5
			c-0.2,0.1-0.4,0.1-0.6,0.2c-0.2,0-0.3,0.1-0.3,0.3c0,0.2,0.1,0.4,0.2,0.6c0.1,0.2,0.2,0.3,0.2,0.4c0,0.5-0.1,0.8-0.4,1
			c-0.3,0.2-0.6,0.4-0.9,0.5c-0.4,0.1-0.7,0.3-1.1,0.4c-0.4,0.1-0.7,0.3-1,0.6c0,0-0.1,0.1-0.2,0.2c-0.1,0.1-0.1,0.2-0.1,0.2h-0.1
			h-0.1l-0.5-0.5c0,0-0.1,0-0.1-0.1c0,0-0.1,0-0.1-0.1v0.1c-0.1,0-0.2,0.1-0.4,0.3c-0.2,0.2-0.3,0.3-0.3,0.4c0,0-0.1,0-0.1-0.1
			s0-0.2,0-0.2c0-0.4,0.1-0.7,0.4-0.8C220.1,62.9,220.3,62.7,220.3,62.3z M214.4,33.6c-0.1,0-0.1,0.1-0.1,0.2c0,0.2,0,0.2,0.1,0.2
			c0.2,0,0.3-0.1,0.3-0.2C214.6,33.7,214.5,33.6,214.4,33.6z M215.4,32.3c-0.1,0-0.1,0-0.1,0.1c0,0.1,0,0.2,0.1,0.2
			c0.1,0,0.1,0,0.1-0.1S215.5,32.4,215.4,32.3z M219.1,33.9c-0.3,0-0.5,0.1-0.5,0.4c0,0.2-0.1,0.5-0.1,0.6h0.4l0.3-0.9L219.1,33.9z
			 M219.2,51.2l0.3-0.5h-0.3V51.2z M220.7,60.2c-0.4-0.1-0.6,0.1-0.6,0.5c0,0.4-0.1,0.6-0.1,0.7h0.5c0-0.1,0-0.2,0.1-0.3
			c0-0.1,0.1-0.2,0.1-0.3c0-0.1,0-0.2,0.1-0.3V60.2L220.7,60.2z M220.2,48.7h0.3v-0.3h-0.3V48.7z M221.4,59.7c0,0.3,0.1,0.5,0.3,0.5
			v-0.5H221.4z M222.5,51.4c-0.1,0-0.1,0.1-0.1,0.3c0,0.2,0,0.3,0.1,0.3c0.1,0,0.1-0.1,0.1-0.3C222.6,51.5,222.5,51.4,222.5,51.4z
			 M224.8,52.2c-0.1,0.1-0.2,0.2-0.3,0.4c0,0.2-0.1,0.3-0.1,0.4h0.3V52.2z M225,58.8c-0.1,0-0.1,0-0.1,0.1c0,0.1,0,0.1,0.1,0.1
			c0.1,0,0.1-0.1,0.1-0.1C225.2,58.8,225.1,58.8,225,58.8z M225.6,51.4v-0.2h-0.2L225.6,51.4z M226,36.9c-0.1,0-0.2,0.1-0.2,0.3
			c0,0.2,0.1,0.3,0.2,0.3c0.1,0,0.1-0.1,0.1-0.3C226.1,37,226.1,36.9,226,36.9z M231.9,36.6v-0.4l-0.3,0.2L231.9,36.6z M233,36
			c0,0.1,0.1,0.2,0.2,0.2c0.1,0,0.2,0.1,0.3,0.1V36H233z M237.2,36.2c-0.1,0-0.1,0.1-0.1,0.2c0,0.1,0,0.2,0.1,0.2
			c0.1,0,0.2-0.1,0.2-0.2C237.4,36.2,237.4,36.2,237.2,36.2z M237.7,37.9v-0.2h-0.2L237.7,37.9z M238.3,37.2h0.4l-0.4-0.3V37.2z"/>
	</g>
	<g>
	</g>
</g>
<g>
</g>
<g>
</g>
<g>
</g>
<g>
</g>
<g>
</g>
<g>
</g>
</svg>
